<svg xmlns="http://www.w3.org/2000/svg" width="190.483" height="109.442" viewBox="0 0 190.483 109.442">
  <g id="_6660" data-name="6660" transform="translate(-446.498 54.526)">
    <g id="Group_206" data-name="Group 206" transform="translate(446.498 -54.526)">
      <path id="Path_73" data-name="Path 73" d="M319.713,279s-18.308-29.222-4.623-58.159c12.875-27.234,34.342-12.814,58.349-34.444,36.446-32.838,108.76-14.162,93.808,31.176-7.748,23.5,31.612,37.576,18.444,61.474Z" transform="translate(-305.742 -169.778)" fill="#262537"/>
      <g id="Group_186" data-name="Group 186" transform="translate(119.892 67.304)">
        <path id="Path_74" data-name="Path 74" d="M2029.8,1160.942h-21.086a.514.514,0,0,1-.51-.511v-1.62a.514.514,0,0,1,.51-.511H2029.8a.514.514,0,0,1,.511.511v1.62A.514.514,0,0,1,2029.8,1160.942Z" transform="translate(-2008.2 -1158.3)" fill="#d9e7fc"/>
        <g id="Group_183" data-name="Group 183" transform="translate(0.767 2.635)">
          <path id="Path_75" data-name="Path 75" d="M2024.063,1197.007l-.266,1.539-3.8,22.312a.191.191,0,0,1-.2.136c-.2,0-.347-.13-.327-.279l3.016-22.849.116-.865h1.457Z" transform="translate(-2019.473 -1197)" fill="#d9e7fc"/>
        </g>
        <path id="Path_76" data-name="Path 76" d="M2065.28,1197.007l-.266,1.539c-.177-.613-1.314-.681-1.314-.681l.116-.865h1.464Z" transform="translate(-2059.921 -1194.365)" fill="#bfd3ef"/>
        <g id="Group_185" data-name="Group 185" transform="translate(16.756 2.642)">
          <g id="Group_184" data-name="Group 184" transform="translate(0)">
            <path id="Path_77" data-name="Path 77" d="M2258.556,1236.481a.218.218,0,0,1-.2-.225l-3.8-36.623-.163-1.58-.1-.953h1.457l.116,1.416.089,1.11,2.928,36.392C2258.9,1236.263,2258.753,1236.481,2258.556,1236.481Z" transform="translate(-2254.3 -1197.1)" fill="#d9e7fc"/>
          </g>
          <path id="Path_78" data-name="Path 78" d="M2255.961,1199.626a2.551,2.551,0,0,0-1.566-1.573h0l-.1-.953h1.457l.116,1.416Z" transform="translate(-2254.3 -1197.1)" fill="#bfd3ef"/>
        </g>
      </g>
      <g id="Group_187" data-name="Group 187" transform="translate(126.564 41.469)">
        <path id="Path_79" data-name="Path 79" d="M2142.1,793.809s7.4-10.955,16.967-14.843a1.469,1.469,0,0,1,1.838,2.063c-.014.02-.02.041-.034.061C2159.721,783.126,2148.507,788.464,2142.1,793.809Z" transform="translate(-2139.656 -778.854)" fill="#dfebfd" opacity="0.5"/>
        <path id="Path_80" data-name="Path 80" d="M2106.2,867.65s13.467-11.52,26.976-12.739a1.557,1.557,0,0,1,1.7,1.321,2.492,2.492,0,0,1-.926,2.022C2131.807,860.4,2116,863.2,2106.2,867.65Z" transform="translate(-2106.2 -849.726)" fill="#dfebfd" opacity="0.5"/>
      </g>
      <g id="Group_188" data-name="Group 188" transform="translate(68.209 24.027)">
        <path id="Path_81" data-name="Path 81" d="M1255.071,586.045s-5.229-6.114-5.958-12.351a.892.892,0,0,1,1.5-.742l.027.027C1251.666,573.987,1252.98,581.429,1255.071,586.045Z" transform="translate(-1249.107 -569.294)" fill="#dfebfd"/>
        <path id="Path_82" data-name="Path 82" d="M1310.017,541.341s-4.575-9.764-3.1-17.872a.95.95,0,0,1,1.049-.783,1.514,1.514,0,0,1,1.035.872C1309.908,525.157,1309,534.873,1310.017,541.341Z" transform="translate(-1302.705 -522.677)" fill="#dfebfd"/>
      </g>
      <path id="Path_83" data-name="Path 83" d="M1451.022,404.083c-2.308-2.506-6.754.974-6.754.974s-.681,6.843-1.593,7.469-.558-5.964-.558-5.964c-1.975.8-5.576,5.61-5.576,5.61s3.4,5.794,2.369,6.182-2.751-5.283-2.751-5.283a10.194,10.194,0,0,0-2.131,4.507c-.32,4.569,5.563,4.746,5.563,4.746a10.935,10.935,0,0,1,1.1,5.066h0a7.809,7.809,0,0,0,.034,1.484l.5-.259c-.027-.157-.054-.306-.068-.456h0v-.007c-.007-.1-.014-.231-.021-.395h0c0-.375-.014-.647-.034-.844h0a8.627,8.627,0,0,1,.293-3.207,1.058,1.058,0,0,1-.225-.17c.075.055.15.109.225.17,1.8,1.382,6.209-.531,8.327-2.254s.735-1.852-1.1-2.267-4.364,1.26-5.372,1.246-.082-1.042,1.566-1.743,3.255.47,5.93-.62,2.124-6.9,2.124-6.9c-1.478,1.464-5.14,2.138-5.576,1.593s4.269-2.921,4.9-3.479C1452.812,408.706,1453.33,406.582,1451.022,404.083Z" transform="translate(-1353.217 -387.285)" fill="#dfebfd"/>
      <path id="Path_84" data-name="Path 84" d="M1819.558,448.038c-3.411-3.7-9.988,1.437-9.988,1.437s-1.008,10.117-2.349,11.043-.824-8.817-.824-8.817c-2.928,1.178-8.238,8.293-8.238,8.293s5.038,8.565,3.506,9.137-4.072-7.816-4.072-7.816c-2.274,2.213-3.152,6.666-3.152,6.666-.477,6.754,8.225,7.02,8.225,7.02a16.154,16.154,0,0,1,1.62,7.489h0a11.606,11.606,0,0,0,.054,2.192l.735-.381c-.041-.232-.075-.456-.1-.674v-.014c-.007-.143-.021-.34-.034-.586h0c-.007-.558-.02-.96-.048-1.246h0c-.048-1.729-.014-4.031.436-4.746a1.733,1.733,0,0,1-.334-.252l.334.252c2.662,2.043,9.185-.79,12.31-3.329s1.089-2.737-1.634-3.357-6.454,1.859-7.946,1.838-.116-1.539,2.315-2.574,4.814.688,8.77-.919,3.139-10.2,3.139-10.2c-2.186,2.165-7.605,3.159-8.252,2.356s6.311-4.317,7.251-5.147C1822.207,454.88,1822.969,451.742,1819.558,448.038Z" transform="translate(-1689.086 -427.842)" fill="#dfebfd"/>
      <path id="Path_85" data-name="Path 85" d="M747.9,758.649c-.007-5.638,9.3-6.407,9.3-6.407s8.511,7.551,10.322,7.292-6.019-7.877-6.019-7.877c3.3-1.253,13.072.558,13.072.558s2.369,10.866,4.058,10.172-2.587-9.518-2.587-9.518c3.547.1,7.653,3.091,7.653,3.091,5.522,5.195-1.43,12.017-1.43,12.017a18.009,18.009,0,0,0,4.357,7.387h0a12.738,12.738,0,0,1,1.62,1.845l-.892.245c-.136-.218-.279-.429-.429-.626v-.007l-.007-.007c-.1-.123-.238-.293-.415-.5h0c-.415-.463-.708-.8-.906-1.062h0c-1.273-1.457-3.05-3.323-3.963-3.568a1.793,1.793,0,0,0,.082-.463c-.027.15-.055.3-.082.463-.64,3.7-8.15,6.325-12.65,6.611s-2.969-1.423-1.205-4,6.72-3.37,7.932-4.521-1.076-1.355-3.854-.361-3.432,4.221-7.9,5.91-10.322-6.005-10.322-6.005c3.438.123,8.654-3.173,8.572-4.33s-8.47,1.246-9.872,1.273S747.907,764.286,747.9,758.649Z" transform="translate(-713.816 -711.627)" fill="#dfebfd"/>
      <g id="Group_193" data-name="Group 193" transform="translate(59.8 32.315)">
        <g id="Group_189" data-name="Group 189">
          <path id="Path_86" data-name="Path 86" d="M1202.244,682.719a38.326,38.326,0,1,1-65.437-27.071,38.229,38.229,0,0,1,27.118-11.248c.974,0,1.94.034,2.894.109a38.241,38.241,0,0,1,26.37,13.481,37.4,37.4,0,0,1,3.118,4.249A38.106,38.106,0,0,1,1202.244,682.719Z" transform="translate(-1125.6 -644.4)" fill="#699ff0"/>
          <path id="Path_87" data-name="Path 87" d="M1220.416,926.98a38.457,38.457,0,0,1-.62,6.9,37.67,37.67,0,0,1-1.872,6.713,38.338,38.338,0,0,1-53.869,20.2c-.5-.266-.98-.538-1.464-.824A38.356,38.356,0,0,1,1145.1,937a65.984,65.984,0,0,0,19.35,1.62q2.135-.133,4.385-.429a63.92,63.92,0,0,0,16.865-4.63c13.944-5.978,23.326-17.954,28.787-27.057A38.126,38.126,0,0,1,1220.416,926.98Z" transform="translate(-1143.772 -888.655)" fill="#4888e5"/>
          <path id="Path_88" data-name="Path 88" d="M1680.957,868.635a38.456,38.456,0,0,1-.62,6.9,22.149,22.149,0,0,0-4.848-.3c-2.26.266-4.521,4.916-9.171,5.1s-10.363-3.37-16.477-.98-9.3-.136-10.363-1.859,2.655-5.712,2.322-7.442.47-7.571,5.651-7.571a9.874,9.874,0,0,0,8.238-3.854c2.608-2.928,4.65-.266,6.775-2.526s-1.593-6.243,0-8.906,9.437-3.3,9.437-3.3A38.166,38.166,0,0,1,1680.957,868.635Z" transform="translate(-1604.313 -830.317)" fill="#a8d29f"/>
          <path id="Path_89" data-name="Path 89" d="M1145.847,940.527c-1.859,2.621.667,8.068-.933,10.86s-4.65,2.26-6.911,3.588c-1.961,1.151-2.744,5.91-9.035,7.585a38.5,38.5,0,0,1-2.376-23.762,11.771,11.771,0,0,1,5.44-3.091c7.571-1.995,7.762-7.564,10.819-7.673C1150.292,927.775,1147.705,937.906,1145.847,940.527Z" transform="translate(-1125.693 -908.717)" fill="#a8d29f"/>
          <path id="Path_90" data-name="Path 90" d="M1646.656,895.6s-4.65-.933-7.176.667-7.639,4.453-6.979,6.114,5.515,2.921,7.51,2.859.633-4.01,10.3-2.86C1652.757,902.668,1652.791,897.282,1646.656,895.6Z" transform="translate(-1597.935 -878.245)" fill="#a8d29f"/>
          <path id="Path_91" data-name="Path 91" d="M1324.2,645.02c-2.356,4.126-6.666,9.348-13.951,11.234a36.1,36.1,0,0,1-20.044-.606,38.229,38.229,0,0,1,27.118-11.248c.974,0,1.94.034,2.894.109A38.353,38.353,0,0,1,1324.2,645.02Z" transform="translate(-1278.993 -644.4)" fill="#7db2ff"/>
          <path id="Path_92" data-name="Path 92" d="M1457.333,1407.2a38.338,38.338,0,0,1-53.869,20.2c-.5-.265-.98-.538-1.464-.824C1411.886,1425.855,1436.567,1422.472,1457.333,1407.2Z" transform="translate(-1383.181 -1355.264)" fill="#3b7fd1"/>
          <path id="Path_93" data-name="Path 93" d="M1248.268,1370.182c-2.036,1.484-2.519,6.039-3.82,6.672a10.651,10.651,0,0,0-2.492,2.512,38.475,38.475,0,0,1-13.256-11.711c2.3-1.593,6.611-4.289,9.607-4.364,0,0,1.5-.02,2.6-3.057a14.086,14.086,0,0,1,1.45-3.057c.838-1.232,1.845-1.838,3.18-1.355a2.3,2.3,0,0,1,1.205.933c.776,1.151.824,2.982,3,4.746C1252.687,1363.878,1250.3,1368.7,1248.268,1370.182Z" transform="translate(-1221.68 -1307.231)" fill="#a8d29f"/>
        </g>
        <g id="Group_190" data-name="Group 190" transform="translate(46.413 1.552)">
          <path id="Path_94" data-name="Path 94" d="M1816.542,696.956s-.4-7.2-9.26-8.456C1807.282,688.5,1806.955,696.956,1816.542,696.956Z" transform="translate(-1807.281 -687.05)" fill="#a8d29f"/>
          <path id="Path_95" data-name="Path 95" d="M1937.4,711.06s7.1,1.341,9.981-7.129C1947.381,703.932,1939.184,701.637,1937.4,711.06Z" transform="translate(-1928.541 -701.201)" fill="#a8d29f"/>
          <path id="Path_96" data-name="Path 96" d="M1920.165,674.056s3.153-2.553.572-6.856C1920.737,667.2,1916.781,669.876,1920.165,674.056Z" transform="translate(-1911.204 -667.2)" fill="#a8d29f"/>
          <path id="Path_97" data-name="Path 97" d="M1925.086,809.018s-1.062,4.623-.878,6.25h.878s-.34-4.3.5-6.468Z" transform="translate(-1916.227 -799.159)" fill="#a8d29f"/>
        </g>
        <g id="Group_191" data-name="Group 191" transform="translate(60.698 18.049)">
          <path id="Path_98" data-name="Path 98" d="M2021.485,923.6s-.191-3.411-4.385-4C2017.107,919.6,2016.95,923.6,2021.485,923.6Z" transform="translate(-2017.1 -918.912)" fill="#82b378"/>
          <path id="Path_99" data-name="Path 99" d="M2078.7,930.256s3.363.633,4.725-3.377C2083.425,926.885,2079.544,925.8,2078.7,930.256Z" transform="translate(-2074.506 -925.592)" fill="#82b378"/>
          <path id="Path_100" data-name="Path 100" d="M2070.547,912.748a2.421,2.421,0,0,0,.272-3.248A2.1,2.1,0,0,0,2070.547,912.748Z" transform="translate(-2066.305 -909.5)" fill="#82b378"/>
          <path id="Path_101" data-name="Path 101" d="M2072.872,976.509a14.75,14.75,0,0,0-.415,2.955h.415a9.36,9.36,0,0,1,.231-3.064Z" transform="translate(-2068.678 -971.845)" fill="#82b378"/>
        </g>
        <g id="Group_192" data-name="Group 192" transform="translate(47.741 11.636)">
          <path id="Path_102" data-name="Path 102" d="M1829.544,824.112a2.881,2.881,0,0,0-2.751-2.512A2.463,2.463,0,0,0,1829.544,824.112Z" transform="translate(-1826.793 -821.171)" fill="#a8d29f"/>
          <path id="Path_103" data-name="Path 103" d="M1865.4,828.319a2.706,2.706,0,0,0,2.969-2.117A2.347,2.347,0,0,0,1865.4,828.319Z" transform="translate(-1862.771 -825.391)" fill="#a8d29f"/>
          <path id="Path_104" data-name="Path 104" d="M1860.321,817.336a1.511,1.511,0,0,0,.17-2.036A1.313,1.313,0,0,0,1860.321,817.336Z" transform="translate(-1857.658 -815.3)" fill="#a8d29f"/>
          <path id="Path_105" data-name="Path 105" d="M1861.772,857.461a9.415,9.415,0,0,0-.259,1.859h.259a5.78,5.78,0,0,1,.15-1.92Z" transform="translate(-1859.143 -854.534)" fill="#a8d29f"/>
        </g>
      </g>
      <g id="Group_194" data-name="Group 194" transform="translate(122.486 25.384)">
        <path id="Path_106" data-name="Path 106" d="M2152.453,785.372s-.681-.136-.837,0-.9.885-.736,1.13.919-.2,1.076-.245.6-.218.6-.218Z" transform="translate(-2143.738 -768.786)" fill="#ffb27d"/>
        <path id="Path_107" data-name="Path 107" d="M2280.8,829.42l.729.272s3.173-4.405,3.568-8.279a5.959,5.959,0,0,0-.1-1.981s.034-.177.089-.49c.027-.143.054-.32.088-.524.1-.592.245-1.4.409-2.322.374-2.124.858-4.834,1.232-6.829l-.2-.061-2.131-.688-.442-1.4-1.586-.415a14.634,14.634,0,0,0-.674,3.969c-.061.429-.109.906-.15,1.416a28.433,28.433,0,0,0,.15,5.74c.075.572.164,1.157.279,1.763a8.014,8.014,0,0,1,.061,1.736A57.955,57.955,0,0,1,2280.8,829.42Z" transform="translate(-2264.834 -788.719)" fill="#35488b"/>
        <path id="Path_108" data-name="Path 108" d="M2293,811.992l3.445,6.849c.027-.143.054-.32.088-.524.1-.592.245-1.4.408-2.322.375-2.124.858-4.834,1.232-6.829l-.2-.061-2.131-.688-.443-1.4-1.586-.415a14.63,14.63,0,0,0-.674,3.969C2293.1,811.005,2293.041,811.475,2293,811.992Z" transform="translate(-2276.203 -788.626)" fill="#2c3a64"/>
        <path id="Path_109" data-name="Path 109" d="M2315.3,796.675l.082-.681c1.334.354,4.909-.994,4.909-.994s1.294,1.137,1.123,3.867c-.082,1.335-.231,6.992-.395,8.667-.054.606-.109,1.042-.129,1.212h0a.239.239,0,0,0,.041.15,7.852,7.852,0,0,1,.586,1.232c1.552,4.14-.238,9.239-.238,9.239l-.463-.191s-1.021-5.678-1.852-8.184a4.789,4.789,0,0,0-.4-.96,10.849,10.849,0,0,1-1-2.662,65.818,65.818,0,0,1-1.341-7.067C2316.178,800.3,2315.3,796.675,2315.3,796.675Z" transform="translate(-2296.985 -777.815)" fill="#35488b"/>
        <path id="Path_110" data-name="Path 110" d="M2174.3,682.5l.1.667s.041,0,.123-.007c.245-.014.837-.048,1.5-.123a8.3,8.3,0,0,0,2.676-.572,10.312,10.312,0,0,0,2.689-3.152.744.744,0,0,0,.055-.1,4.906,4.906,0,0,0,.708-2,2.851,2.851,0,0,0-.1-.906,2.411,2.411,0,0,0-.409-.817.511.511,0,0,0-.075-.1,1.989,1.989,0,0,0-.524-.449c-.136-.055-.279.014-.429.17v.007a2.594,2.594,0,0,0-.381.565l-.014.014c-.027.048-.055.1-.088.163-.014.014-.014.027-.021.041-.062.129-.123.259-.184.4-.681,1.484-1.4,3.731-2.008,4.4a11.757,11.757,0,0,1-2.4,1.273C2174.858,682.279,2174.3,682.5,2174.3,682.5Z" transform="translate(-2165.585 -665.918)" fill="#ffb27d"/>
        <path id="Path_111" data-name="Path 111" d="M2277.8,629.484a4.128,4.128,0,0,0,1.539.361c2.3.129,2.819-1.886,2.914-3.227a1.936,1.936,0,0,0-.79-.1c-.163.007-.334.027-.477.041a3.547,3.547,0,0,1-1.076-2.056l-.1.048-1.661.783s.177.538.306,1.055a2.1,2.1,0,0,1,.116.906l-.211.089h0A12.078,12.078,0,0,0,2277.8,629.484Z" transform="translate(-2262.038 -618.924)" fill="#ffb27d"/>
        <path id="Path_112" data-name="Path 112" d="M2266.5,657.968c.021.048.034.089.054.136a58.255,58.255,0,0,1,1.661,6.448c-.157.933,7.02-.184,7.033-1.035.252-.9-.9-2.349-1.546-3.078a1.841,1.841,0,0,1-.218-.293,2.012,2.012,0,0,1-.292-.858,27.949,27.949,0,0,1-.089-3.023h0c-.129-.1-.252-.177-.361-.266a3.255,3.255,0,0,1-.442-.368.662.662,0,0,1-.211-.415,3,3,0,0,1,.007-.347c.007-.055.014-.109.021-.163a4.6,4.6,0,0,1,.334-1.11,4.284,4.284,0,0,0-1.716-.1v.163a5.752,5.752,0,0,1-.129,1.62c-.163.245-3.1,1.307-3.254.974a6.107,6.107,0,0,1,.279-1.9h0a4.791,4.791,0,0,0-1.335.708C2266.906,655.449,2266.048,656.75,2266.5,657.968Z" transform="translate(-2251.321 -645.903)" fill="#f99746"/>
        <path id="Path_113" data-name="Path 113" d="M2262.055,543.832c.007-.1.082-1.171,1.716-1.232,0,0-.8.1-.946.449a1.328,1.328,0,0,1,.994-.3c.443.143.708.919.708,1.178s-.245,1.083-.531,1.157a.819.819,0,0,1-.34,0,3.053,3.053,0,0,1,.218.395c.654,1.341-.021,2.649-.572,2.506-.354-.1-.456.511-.456.511l-3.445-2.785C2259.414,545.712,2260.673,543.1,2262.055,543.832Z" transform="translate(-2244.891 -542.6)" fill="#2c3a64"/>
        <path id="Path_114" data-name="Path 114" d="M2283,625.983s.177.538.306,1.055a2.14,2.14,0,0,0,1.355-1.838Z" transform="translate(-2266.884 -619.576)" fill="#ed985f"/>
        <path id="Path_115" data-name="Path 115" d="M2259.868,587.418s2.322-.538,1.961-1.974-.3-2.478-1.791-2.192-1.648.9-1.641,1.409S2259.255,587.52,2259.868,587.418Z" transform="translate(-2243.956 -580.439)" fill="#ffb27d"/>
        <path id="Path_116" data-name="Path 116" d="M2254.984,580.244c.252-.524.545-.5.729-.4a1.664,1.664,0,0,1,2.158-.184,2.831,2.831,0,0,0,1.3,1.4,1.938,1.938,0,0,1-1.389.354,1.692,1.692,0,0,1-.919-.347,5.591,5.591,0,0,0,1.212.9,3.959,3.959,0,0,1-2.247-1.9,1.815,1.815,0,0,0-.333.8c-.028.395.109,1.164-.116,1.191C2255.373,582.055,2254.61,581.02,2254.984,580.244Z" transform="translate(-2240.68 -576.839)" fill="#2c3a64"/>
        <path id="Path_117" data-name="Path 117" d="M2257.74,677.2s-.558.974-.64,1.226a1.161,1.161,0,0,1,1.014.531S2258.183,677.329,2257.74,677.2Z" transform="translate(-2242.748 -668.036)" fill="#f99746"/>
        <path id="Path_118" data-name="Path 118" d="M2314.165,692.769c1.416-.014,2.615-1.484,3.343-2.655a2.015,2.015,0,0,1-.293-.858,27.951,27.951,0,0,1-.089-3.023h0c-.129-.1-.252-.177-.361-.266a3.244,3.244,0,0,1-.442-.368C2315.159,687.561,2312.245,692.79,2314.165,692.769Z" transform="translate(-2295.332 -675.864)" fill="#ed7d2b"/>
        <path id="Path_119" data-name="Path 119" d="M2244.4,665.451l.191.708s.245-.041.633-.116a1.781,1.781,0,0,0,.184-.041c.313-.061.681-.143,1.083-.232h.007c.694-.163,1.464-.368,2.117-.585a6.26,6.26,0,0,0,1.13-.5.54.54,0,0,0,.075-.054,8.834,8.834,0,0,0,2.015-3.336c.082-.2.163-.409.238-.606a15.221,15.221,0,0,0,.633-2.1,6.383,6.383,0,0,0,.15-1,1.949,1.949,0,0,0,.007-.279c-.014-1.607-.81-1.825-.81-1.825a.127.127,0,0,0-.054-.014c-.136-.02-.279.075-.429.252a4.821,4.821,0,0,0-.593,1.048c-.313.715-.647,1.641-.96,2.553-.17.5-.341,1.008-.5,1.471-.1.279-.191.545-.279.79a7.454,7.454,0,0,1-.463,1.076,2.628,2.628,0,0,1-.681.613,24.112,24.112,0,0,1-2.192,1.362c-.313.177-.606.34-.844.47C2244.659,665.308,2244.4,665.451,2244.4,665.451Z" transform="translate(-2230.912 -647.776)" fill="#ffb27d"/>
        <path id="Path_120" data-name="Path 120" d="M2341,656.532a2.086,2.086,0,0,1,1.886.538c-.014-1.6-.81-1.825-.81-1.825C2341.756,655.116,2341.381,655.675,2341,656.532Z" transform="translate(-2320.935 -647.559)" fill="#f99746"/>
        <path id="Path_121" data-name="Path 121" d="M2363.3,1129.977h3.683a2.033,2.033,0,0,0-.1-.987c-.184-.408-.47-.592-.4-1.089a1.319,1.319,0,0,1-1.15.436,4.074,4.074,0,0,1-.64.831C2364.451,1129.344,2363.375,1129.275,2363.3,1129.977Z" transform="translate(-2341.717 -1088.05)" fill="#233862"/>
        <path id="Path_122" data-name="Path 122" d="M2247.2,1132.213h3.683a1.55,1.55,0,0,0-.1-.987.722.722,0,0,1,.027-.851,1.444,1.444,0,0,1-.62.116,1.379,1.379,0,0,1-.545-.191,12.227,12.227,0,0,1-1.048,1.1C2248.344,1131.58,2247.275,1131.512,2247.2,1132.213Z" transform="translate(-2233.521 -1090.286)" fill="#233862"/>
        <path id="Path_123" data-name="Path 123" d="M2067.677,791.687l-.878-2.138a.6.6,0,0,0-.7-.347,3.675,3.675,0,0,0-1.144-1.3,2.693,2.693,0,0,0-1.539-.5,2.169,2.169,0,0,0-.824.163,2.911,2.911,0,0,0-1.348,3.629l-.068.027s-.211-.014-.572-.014a10.286,10.286,0,0,0-5.488,1.4.482.482,0,0,0-.116.306.472.472,0,0,0,.041.2s2.887-1.866,5.556.055c.163.116.32.225.477.327l.238.586a1.913,1.913,0,0,0,2.485,1.042l2.444-1,.511-.211A1.717,1.717,0,0,0,2067.677,791.687Zm-4.739-1.729-.994.409a.572.572,0,0,0-.34.681l-.109.041a2.645,2.645,0,0,1,1.2-3.282,1.984,1.984,0,0,1,.477-.129,2.321,2.321,0,0,1,1.525.368,3.386,3.386,0,0,1,1.158,1.253l-.15.061a.585.585,0,0,0-.722-.245l-.994.409a.493.493,0,0,0-.456-.306.583.583,0,0,0-.184.034l-.136.055A.5.5,0,0,0,2062.938,789.958Z" transform="translate(-2054.407 -770.73)" fill="#c94c43"/>
        <path id="Path_124" data-name="Path 124" d="M2061.073,856.3c-.156-.1-.313-.211-.477-.327-2.669-1.92-5.556-.055-5.556-.055a.6.6,0,0,1-.041-.2,5.582,5.582,0,0,1,3.792-.851C2061,855.224,2061.393,855.531,2061.073,856.3Z" transform="translate(-2054.407 -833.546)" fill="#b23b38"/>
        <path id="Path_125" data-name="Path 125" d="M2178.582,794.089l-.511.211c.763-.415-.184-2.179-.735-3.343s-1.389-.633-1.389-.633a.662.662,0,0,0-.6-.368.461.461,0,0,0-.306-.449l.136-.054a.44.44,0,0,1,.184-.034.494.494,0,0,1,.456.306l.994-.409a.584.584,0,0,1,.722.245l.15-.061a3.382,3.382,0,0,0-1.157-1.253,2.312,2.312,0,0,0-1.525-.368,1.131,1.131,0,0,0,.245-.279,2.729,2.729,0,0,1,1.539.5,3.745,3.745,0,0,1,1.144,1.3.59.59,0,0,1,.7.347l.878,2.138A1.7,1.7,0,0,1,2178.582,794.089Z" transform="translate(-2166.238 -770.919)" fill="#b23b38"/>
        <path id="Path_126" data-name="Path 126" d="M2207.065,797.855c.354.15.851.667,1.648.354a12.458,12.458,0,0,1,1.464-.449,1.793,1.793,0,0,0,.184-.041l-.313-.919a.226.226,0,0,1-.041.014,5.724,5.724,0,0,1-1.729.157c-.545-.129-1.464.531-1.464.531S2206.711,797.706,2207.065,797.855Z" transform="translate(-2195.871 -779.493)" fill="#ffb27d"/>
        <path id="Path_127" data-name="Path 127" d="M2047.5,875.355a5.32,5.32,0,0,0-.6-1.355,5.433,5.433,0,0,0-.6,1.355.6.6,0,1,0,1.2,0Z" transform="translate(-2046.3 -851.436)" fill="#fff"/>
      </g>
      <path id="Path_128" data-name="Path 128" d="M998.756,1127.624c-9.6-1.777-15.251,9.58-16.225,10.989-.974-1.409-6.625-12.759-16.225-10.989-10.587,1.961-15.142,11.949-11.146,21.7,3.261,7.946,24.32,20.664,27.221,22.182v.156l.15-.075.15.075v-.156c2.894-1.511,23.626-14.38,27.221-22.182A15.356,15.356,0,0,0,998.756,1127.624Z" transform="translate(-905.629 -1062.233)" fill="#f77d48"/>
      <g id="Group_205" data-name="Group 205" transform="translate(33.65 61.548)">
        <g id="Group_199" data-name="Group 199" transform="translate(23.958 17.964)">
          <path id="Path_129" data-name="Path 129" d="M1167.07,1371.641c-.17.422-1.314.306-2.2-.293s-2.138-1.144-2.853-1.641a8.748,8.748,0,0,1-1.518-2.594,5.233,5.233,0,0,0-.293-.524c-.518-.157-.484-.688-.967-.865-.572-.2-.395-.518-.395-.518a2.084,2.084,0,0,1,.906-.122c.177.027.538.545.749.871.2.15.436.347.688.579a19.6,19.6,0,0,1,1.784,1.8c.368.456,2.723.953,3.363,1.477C1167.479,1370.736,1167.07,1371.641,1167.07,1371.641Z" transform="translate(-1154.367 -1363.206)" fill="#ed985f"/>
          <path id="Path_130" data-name="Path 130" d="M1220,1538.208l2.472,13.733.858.054s.674-5.978.1-8.041.994-4.677.552-6.468S1220,1538.208,1220,1538.208Z" transform="translate(-1211.382 -1523.277)" fill="#ed985f"/>
          <path id="Path_131" data-name="Path 131" d="M1230.395,1406.732l-2.158-.354a5.214,5.214,0,0,1-.136-1.26c0-.531.041-.974.041-.974l1.743-.17.776-.075A7.372,7.372,0,0,0,1230.395,1406.732Z" transform="translate(-1218.93 -1399.386)" fill="#ffb27d"/>
          <path id="Path_132" data-name="Path 132" d="M1230.456,1405.354a3.357,3.357,0,0,1-2.356.79c0-.531.041-.974.041-.974l1.743-.17Z" transform="translate(-1218.93 -1400.411)" fill="#ed985f"/>
          <path id="Path_133" data-name="Path 133" d="M1206.271,1545.3a7.162,7.162,0,0,0-.633,3.472,5.925,5.925,0,0,1,.109.926c.014.293.014.586.007.885a17.989,17.989,0,0,1-1.151,5.195c-.014.034-.02.048-.02.048l-.756-.082-.327-14.407s3.466-1.4,3.656.436A9.5,9.5,0,0,1,1206.271,1545.3Z" transform="translate(-1196.005 -1526.989)" fill="#ffb27d"/>
          <path id="Path_134" data-name="Path 134" d="M1228.546,1551.2s-.218.034-.552.068a10.166,10.166,0,0,1-2.226.054c-.293-.048-.456-.531-.531-1.178-.17-1.437.082-3.69.32-3.792a26.084,26.084,0,0,1,3.329-.021S1229.533,1547.944,1228.546,1551.2Z" transform="translate(-1216.21 -1532.074)" fill="#35488b"/>
          <path id="Path_135" data-name="Path 135" d="M1229.458,1560.789a10.153,10.153,0,0,1-2.227.054c-.293-.048-.456-.531-.531-1.178l1.641-2.683,1.232-.483A9.771,9.771,0,0,1,1229.458,1560.789Z" transform="translate(-1217.626 -1541.596)" fill="#2c3a64"/>
          <path id="Path_136" data-name="Path 136" d="M1195.7,1542.122a23.06,23.06,0,0,0-.545,5.1,8.624,8.624,0,0,0,2.962,0s2.478-3.6,2.267-4.759S1196.321,1541.748,1195.7,1542.122Z" transform="translate(-1188.214 -1527.817)" fill="#35488b"/>
          <path id="Path_137" data-name="Path 137" d="M1219.166,1355.657s2.015,1.593,2.989.327,1.893-1.92.647-2.989-1.872-.783-2.295-.436S1218.669,1355.208,1219.166,1355.657Z" transform="translate(-1210.507 -1351.245)" fill="#ffb27d"/>
          <path id="Path_138" data-name="Path 138" d="M1239.454,1339.826a.472.472,0,0,0-.238,0h0a1.256,1.256,0,0,0,.041-.769.894.894,0,0,1-.191.558c-.014-.946-2.356-1.532-2.574-1.593s-.191-.422-.191-.422a1.3,1.3,0,0,0-.906,1.219c.014.558.477,1.621.769,1.641s.163.259-.041.586a1.645,1.645,0,0,0,.429,1.545c.293.252.449.041.62-.054a.819.819,0,0,1,.136-.054,2.8,2.8,0,0,0,1.75-1.688,2.131,2.131,0,0,0,.157-.858A1.511,1.511,0,0,1,1239.454,1339.826Z" transform="translate(-1225.729 -1337.6)" fill="#2c3a64"/>
          <g id="Group_195" data-name="Group 195" transform="translate(8.698 28.133)">
            <path id="Path_139" data-name="Path 139" d="M1224.532,1752.332h-.477c-.163-.02-.279-.061-.443-.082a.487.487,0,0,0-.388.082l-.007.007h-2.029c-.054-.062,0-.211.048-.327a.3.3,0,0,1,.191-.157,2.292,2.292,0,0,0,1.028-.415c.218-.177,1.055-.64,1.055-.64h.007c.021,0,.109.027.49.306.2.15.531-.2.531-.2a.491.491,0,0,1,.109.129.368.368,0,0,1,.041.279,1.71,1.71,0,0,0,.143.667c.048.123.089.211.089.211S1224.94,1752.284,1224.532,1752.332Z" transform="translate(-1221.166 -1750.8)" fill="#739cf3"/>
            <path id="Path_140" data-name="Path 140" d="M1256.737,1751.031a1.712,1.712,0,0,1-.517.231c-.218.027-.62-.463-.62-.463h.007c.021,0,.109.027.49.306.2.15.531-.2.531-.2A.38.38,0,0,1,1256.737,1751.031Z" transform="translate(-1253.256 -1750.8)" fill="#415da5"/>
            <path id="Path_141" data-name="Path 141" d="M1224.532,1768.361h-.477c-.163-.021-.279-.061-.443-.082a.486.486,0,0,0-.388.082l-.007.007h-2.029c-.054-.061,0-.211.048-.327.061-.048.082.211.116.252a10.164,10.164,0,0,0,1.75-.048,1.1,1.1,0,0,1,.769-.082,2.026,2.026,0,0,0,.967-.163c.048.123.089.211.089.211S1224.94,1768.313,1224.532,1768.361Z" transform="translate(-1221.166 -1766.829)" fill="#415da5"/>
          </g>
          <g id="Group_196" data-name="Group 196" transform="translate(5.429 28.133)">
            <path id="Path_142" data-name="Path 142" d="M1176.532,1752.332h-.477c-.163-.02-.279-.061-.443-.082a.487.487,0,0,0-.388.082l-.007.007h-2.029c-.054-.062,0-.211.048-.327a.3.3,0,0,1,.191-.157,2.291,2.291,0,0,0,1.028-.415c.218-.177,1.055-.64,1.055-.64h.007c.02,0,.109.027.49.306.2.15.531-.2.531-.2a.491.491,0,0,1,.109.129.368.368,0,0,1,.041.279,1.71,1.71,0,0,0,.143.667c.048.123.089.211.089.211S1176.94,1752.284,1176.532,1752.332Z" transform="translate(-1173.166 -1750.8)" fill="#739cf3"/>
            <path id="Path_143" data-name="Path 143" d="M1208.737,1751.031a1.714,1.714,0,0,1-.517.231c-.218.027-.62-.463-.62-.463h.007c.02,0,.109.027.49.306.2.15.531-.2.531-.2A.381.381,0,0,1,1208.737,1751.031Z" transform="translate(-1205.256 -1750.8)" fill="#415da5"/>
            <path id="Path_144" data-name="Path 144" d="M1176.532,1768.361h-.477c-.163-.021-.279-.061-.443-.082a.487.487,0,0,0-.388.082l-.007.007h-2.029c-.054-.061,0-.211.048-.327.061-.048.082.211.116.252a10.166,10.166,0,0,0,1.75-.048,1.1,1.1,0,0,1,.769-.082,2.026,2.026,0,0,0,.967-.163c.048.123.089.211.089.211S1176.94,1768.313,1176.532,1768.361Z" transform="translate(-1173.166 -1766.829)" fill="#415da5"/>
          </g>
          <path id="Path_145" data-name="Path 145" d="M1203.412,1433.86a10.547,10.547,0,0,1-4.289.163,6.209,6.209,0,0,1-1.723-.585l.708-5.644.143-2.621a7.169,7.169,0,0,1,1.205-.272,9.416,9.416,0,0,0,2.288.027,1.648,1.648,0,0,1,1.178,1.049C1203.473,1427.766,1203.657,1429.993,1203.412,1433.86Z" transform="translate(-1190.32 -1418.956)" fill="#fff"/>
          <path id="Path_146" data-name="Path 146" d="M1116.607,1371.548c-.177.422-1.321.306-2.2-.293-.075-.054-.157-.1-.238-.156-.858-.538-1.968-1.035-2.621-1.491-.613-.422-1.26-2.179-1.7-2.934a1.461,1.461,0,0,0-.116-.184c-.511-.156-.477-.688-.96-.865-.572-.2-.4-.517-.4-.517a2.109,2.109,0,0,1,.906-.122c.184.027.545.545.749.871.143.109.313.245.49.388a19.892,19.892,0,0,1,1.981,1.981,9.959,9.959,0,0,0,2.5,1.035,3.779,3.779,0,0,1,.871.443C1117.016,1370.643,1116.607,1371.548,1116.607,1371.548Z" transform="translate(-1107.335 -1363.112)" fill="#ffb27d"/>
          <path id="Path_147" data-name="Path 147" d="M1195.306,1426.3c-.191.878-2.424-.184-2.506-.238.123-1.314.1-2.036.477-2.267a6.667,6.667,0,0,1,2.042.02C1197.089,1424.452,1195.306,1426.3,1195.306,1426.3Z" transform="translate(-1186.034 -1417.861)" fill="#fff"/>
          <path id="Path_148" data-name="Path 148" d="M1161.288,1366.435a.954.954,0,0,1-.688.579,5.2,5.2,0,0,0-.293-.524c-.517-.156-.483-.688-.967-.865-.572-.2-.395-.517-.395-.517a2.086,2.086,0,0,1,.906-.123c.177.027.538.545.749.871C1160.8,1366.006,1161.029,1366.2,1161.288,1366.435Z" transform="translate(-1154.46 -1363.112)" fill="#ffa412"/>
          <g id="Group_197" data-name="Group 197" transform="translate(3.609 0.638)">
            <path id="Path_149" data-name="Path 149" d="M1150.3,1350.456c-.191.15-.708.674-.708.674l-1.192-1.539s.606-.388.81-.538c.184-.143.729-.654.729-.654l1.191,1.539S1150.49,1350.306,1150.3,1350.456Z" transform="translate(-1148.266 -1348.303)" fill="#fff"/>
            <path id="Path_150" data-name="Path 150" d="M1155.146,1356.7c-.191.15-.708.674-.708.674l-.837-1.083s.606-.388.81-.538c.184-.143.729-.654.729-.654l.838,1.083S1155.336,1356.55,1155.146,1356.7Z" transform="translate(-1153.112 -1354.547)" fill="#fff"/>
            <rect id="Rectangle_171" data-name="Rectangle 171" width="1.947" height="0.157" transform="translate(1.786 0) rotate(52.28)" fill="#fff"/>
            <rect id="Rectangle_172" data-name="Rectangle 172" width="1.947" height="0.157" transform="translate(0.124 1.289) rotate(52.28)" fill="#fff"/>
          </g>
          <g id="Group_198" data-name="Group 198" transform="translate(0 0.058)">
            <path id="Path_151" data-name="Path 151" d="M1096.776,1342.993l-1.586,1.947a.541.541,0,0,1-.763.075l-.8-.654a.572.572,0,0,1-.082-.8l1.573-1.927a1.033,1.033,0,0,1,1.083-.34.134.134,0,0,0,.136-.048.142.142,0,0,1,.027-.041l.082-.1.592.483-.082.1c-.014.014-.021.027-.034.034a.106.106,0,0,0-.027.122A1.075,1.075,0,0,1,1096.776,1342.993Z" transform="translate(-1093.421 -1340.92)" fill="#ebf3fa" opacity="0.5"/>
            <path id="Path_152" data-name="Path 152" d="M1100.783,1346.254l-1.586,1.947a.541.541,0,0,1-.762.075l-.5-.409a.572.572,0,0,1-.082-.8l1.573-1.927a1.033,1.033,0,0,1,1.083-.34.074.074,0,0,0,.054,0,.106.106,0,0,0,.075-.054.144.144,0,0,1,.027-.041l.082-.1.3.245-.082.1c-.014.014-.02.027-.034.034a.106.106,0,0,0-.027.123A1.061,1.061,0,0,1,1100.783,1346.254Z" transform="translate(-1097.428 -1344.181)" fill="#ebf3fa" opacity="0.3"/>
            <path id="Path_153" data-name="Path 153" d="M1100.55,1348.06l-1.586,1.947a.541.541,0,0,1-.763.075l-.17-.143a.572.572,0,0,1-.082-.8l1.573-1.927a1.034,1.034,0,0,1,1.083-.34.074.074,0,0,0,.054,0,.065.065,0,0,0,.014.048A1.076,1.076,0,0,1,1100.55,1348.06Z" transform="translate(-1097.521 -1346.259)" fill="#ebf3fa" opacity="0.3"/>
            <rect id="Rectangle_173" data-name="Rectangle 173" width="2.145" height="1.477" transform="translate(1.56 0.888) rotate(39.217)" fill="#ebf3fa"/>
            <rect id="Rectangle_174" data-name="Rectangle 174" width="0.851" height="0.204" transform="translate(3.115 0) rotate(39.107)" fill="#ebf3fa"/>
          </g>
          <path id="Path_154" data-name="Path 154" d="M1110.527,1366.344a1.157,1.157,0,0,1-.674.429,1.45,1.45,0,0,0-.116-.184c-.511-.157-.477-.688-.96-.865-.572-.2-.4-.518-.4-.518a2.111,2.111,0,0,1,.906-.122c.184.027.545.545.749.871C1110.173,1366.058,1110.344,1366.195,1110.527,1366.344Z" transform="translate(-1107.335 -1363.206)" fill="#ffa412"/>
        </g>
        <g id="Group_204" data-name="Group 204">
          <path id="Path_155" data-name="Path 155" d="M893.6,1223.641l-.116.776s-.054,0-.143-.007c-.279-.02-.967-.054-1.736-.143a9.436,9.436,0,0,1-3.091-.661,11.791,11.791,0,0,1-3.1-3.642.476.476,0,0,1-.061-.116,5.589,5.589,0,0,1-.817-2.315,3.31,3.31,0,0,1,.109-1.049,2.731,2.731,0,0,1,.47-.946.69.69,0,0,1,.089-.109,2.13,2.13,0,0,1,.606-.517c.157-.061.32.014.49.2v.007a2.914,2.914,0,0,1,.443.654c.007.007.014.014.014.02.034.055.061.123.1.191a.175.175,0,0,1,.027.048c.068.15.143.3.211.463.783,1.716,1.62,4.31,2.322,5.079a13.184,13.184,0,0,0,2.771,1.471C892.964,1223.383,893.6,1223.641,893.6,1223.641Z" transform="translate(-874.795 -1205.282)" fill="#ffb27d"/>
          <path id="Path_156" data-name="Path 156" d="M782.778,1075.058a1.662,1.662,0,0,0-1.573-1.3c-1.334-.068-2.9.994-2.771,2.383s-1.369,1.961-1.634,3.125.994,1.171,1.26,2.07-.477,1.709,1.144,1.784,3.493-.2,3.874-1.117a27.374,27.374,0,0,0,.586-4.6Z" transform="translate(-774.365 -1073.755)" fill="#2c3a64"/>
          <path id="Path_157" data-name="Path 157" d="M768.994,1164.972a4.691,4.691,0,0,1-.361,1.144c-.129.293-.272.565-.422.858-.443.844-1.416,1.232-1.511,2.894a7.608,7.608,0,0,0,.272,2.233c1.157,4.643-7.966.688-7.455-.518,1.028-2.39,2.41-3.738,2.458-5.74v-.014c-.007-.1-.007-.354-.007-.7-.007-.837,0-2.179.007-2.853v-.048c.007-.293,0-.5-.007-.558.749-2.723,2.233-2.676,2.744-2.648.191.007.381.027.545.048a4.082,4.082,0,0,0,1.246-2.369l.116.054,1.913.9s-.2.626-.354,1.219a2.368,2.368,0,0,0-.129,1.042c.15.061.238.1.238.1h0A10.618,10.618,0,0,1,768.994,1164.972Z" transform="translate(-758.273 -1151.053)" fill="#ffb27d"/>
          <path id="Path_158" data-name="Path 158" d="M799.838,1393.463l-.7.368s-3.813-5.256-4.262-9.736a6.706,6.706,0,0,1,.123-2.288s-.075-.443-.2-1.171q-.041-.214-.082-.47c-.109-.62-.238-1.375-.388-2.213s-.306-1.729-.47-2.655c-.327-1.818-.667-3.7-.953-5.236l.225-.075,1.042-.334,1.416-.456.511-1.614.334-.088,1.5-.4a2.848,2.848,0,0,1,.17.524,24.505,24.505,0,0,1,.531,3.288q.041.368.082.776a31.826,31.826,0,0,1,0,8.272c-.082.661-.191,1.334-.32,2.036a9.161,9.161,0,0,0-.068,2.009A68.99,68.99,0,0,0,799.838,1393.463Z" transform="translate(-789.403 -1347.128)" fill="#35488b"/>
          <path id="Path_159" data-name="Path 159" d="M806.64,1375.1c-.98,2.335-3.1,7.346-3.915,9.253-.109-.62-.238-1.375-.388-2.213s-.306-1.729-.47-2.655l-.368-3.888.688-1.757.872-2.24s.654.034,1.389.075c.606.034,1.273.082,1.668.129A26.664,26.664,0,0,1,806.64,1375.1Z" transform="translate(-797.417 -1351.321)" fill="#2c3a64"/>
          <path id="Path_160" data-name="Path 160" d="M991.595,1337.176c-.334.293-1.736-1.171-1.859-1.307-.279-.02-.967-.054-1.736-.143a8.4,8.4,0,0,0,.572-1.225c.783.347,1.423.6,1.423.6a4.73,4.73,0,0,1,1.382.4C991.881,1336.059,991.956,1336.863,991.595,1337.176Z" transform="translate(-971.219 -1316.747)" fill="#f99746"/>
          <path id="Path_161" data-name="Path 161" d="M967.457,1354.638c-.238,0-4.957-.238-4.957-.238l3.275,3.493,7.19,1.532Z" transform="translate(-947.456 -1335.292)" fill="#699ff0"/>
          <path id="Path_162" data-name="Path 162" d="M1025.235,1381.291c-.157.477-.429,1.961-.429,1.961l-3.806-1.246s.592-1.355.756-1.859c.15-.456.483-1.947.483-1.947l3.806,1.246C1026.052,1379.453,1025.391,1380.814,1025.235,1381.291Z" transform="translate(-1001.973 -1357.472)" fill="#f99746"/>
          <path id="Path_163" data-name="Path 163" d="M1040.611,1386.323c-.156.477-.429,1.961-.429,1.961l-2.682-.878s.592-1.355.756-1.859c.15-.456.483-1.947.483-1.947l2.683.878C1041.428,1384.485,1040.768,1385.847,1040.611,1386.323Z" transform="translate(-1017.349 -1362.504)" fill="#ed7d2b"/>
          <rect id="Rectangle_175" data-name="Rectangle 175" width="4.003" height="0.32" transform="translate(20.378 20.425) rotate(18.12)" fill="#ed7d2b"/>
          <rect id="Rectangle_176" data-name="Rectangle 176" width="4.003" height="0.32" transform="translate(19.035 24.538) rotate(18.12)" fill="#dc8d39"/>
          <g id="Group_201" data-name="Group 201" transform="translate(21.928 21.877)">
            <g id="Group_200" data-name="Group 200" transform="translate(0.097 0.206)">
              <path id="Path_164" data-name="Path 164" d="M1066.984,1398.861l1.375,2.1a.545.545,0,0,1-.157.749l-.865.565a.576.576,0,0,1-.79-.163l-1.355-2.077a1.043,1.043,0,0,1,0-1.137.123.123,0,0,0-.007-.143c-.007-.014-.02-.021-.027-.034l-.075-.109.64-.415.075.109a.289.289,0,0,1,.027.048.111.111,0,0,0,.109.061A1.016,1.016,0,0,1,1066.984,1398.861Z" transform="translate(-1065.024 -1398.193)" fill="#ecf2fd"/>
              <path id="Path_165" data-name="Path 165" d="M1071.364,1398.767l1.375,2.1a.545.545,0,0,1-.157.749l-.545.354a.576.576,0,0,1-.79-.163l-1.355-2.077a1.043,1.043,0,0,1,0-1.137c.014-.014.014-.034.021-.055a.107.107,0,0,0-.027-.088c-.007-.014-.021-.021-.027-.034l-.075-.109.32-.211.075.109a.289.289,0,0,1,.027.048.111.111,0,0,0,.109.061A1.031,1.031,0,0,1,1071.364,1398.767Z" transform="translate(-1069.404 -1398.1)" fill="#e5eaf5"/>
              <path id="Path_166" data-name="Path 166" d="M1071.1,1404.854l1.375,2.1a.545.545,0,0,1-.157.749l-.184.122a.576.576,0,0,1-.79-.163l-1.355-2.077a1.043,1.043,0,0,1,0-1.137c.014-.014.014-.034.02-.054a.058.058,0,0,0,.048,0A1.043,1.043,0,0,1,1071.1,1404.854Z" transform="translate(-1069.498 -1403.956)" fill="#ced4ea" opacity="0.3"/>
              <rect id="Rectangle_177" data-name="Rectangle 177" width="2.145" height="1.477" transform="translate(0.28 2.014) rotate(-33.121)" fill="#ebf3fa"/>
            </g>
            <rect id="Rectangle_178" data-name="Rectangle 178" width="0.851" height="0.204" transform="translate(0 0.466) rotate(-33.232)" fill="#ebf3fa"/>
          </g>
          <g id="Group_202" data-name="Group 202" transform="translate(17.132 20.551)">
            <path id="Path_167" data-name="Path 167" d="M995.286,1379.889l.511,2.458a.542.542,0,0,1-.422.64l-1.008.211a.574.574,0,0,1-.674-.443l-.5-2.431a1.03,1.03,0,0,1,.415-1.055.13.13,0,0,0,.048-.136.425.425,0,0,1-.014-.048l-.027-.129.749-.156.027.129a.135.135,0,0,1,.007.048.1.1,0,0,0,.082.1A1.08,1.08,0,0,1,995.286,1379.889Z" transform="translate(-993.167 -1378.582)" fill="#ecf2fd"/>
            <path id="Path_168" data-name="Path 168" d="M1000.412,1379.89l.511,2.458a.542.542,0,0,1-.422.64l-.633.129a.573.573,0,0,1-.674-.443l-.5-2.431a1.03,1.03,0,0,1,.415-1.055.177.177,0,0,0,.034-.041.115.115,0,0,0,.007-.1.44.44,0,0,1-.014-.048l-.027-.129.374-.075.027.129a.133.133,0,0,1,.007.048.1.1,0,0,0,.082.1A1.078,1.078,0,0,1,1000.412,1379.89Z" transform="translate(-998.292 -1378.582)" fill="#e5eaf5"/>
            <path id="Path_169" data-name="Path 169" d="M1000,1384.824l.511,2.458a.542.542,0,0,1-.422.64l-.218.048a.574.574,0,0,1-.674-.443l-.5-2.431a1.03,1.03,0,0,1,.415-1.055.176.176,0,0,0,.034-.041c.014.007.027.02.041.02A1.024,1.024,0,0,1,1000,1384.824Z" transform="translate(-998.292 -1383.428)" fill="#ced4ea" opacity="0.3"/>
            <rect id="Rectangle_179" data-name="Rectangle 179" width="2.145" height="1.477" transform="translate(0.067 1.951) rotate(-11.701)" fill="#ed7d2b"/>
            <rect id="Rectangle_180" data-name="Rectangle 180" width="0.851" height="0.204" transform="matrix(0.979, -0.205, 0.205, 0.979, 0.357, 0.174)" fill="#ed7d2b"/>
          </g>
          <g id="Group_203" data-name="Group 203" transform="translate(12.076 19.101)">
            <path id="Path_170" data-name="Path 170" d="M934.812,1373.3l-.81,5.168-.238,1.491-.47,2.982h-6.318s-.831-.511-1.913-1.185c-1.838-1.157-4.385-2.771-4.643-3.057a15.507,15.507,0,0,1-.735-3.152c-.395-2.247-.783-4.868-.783-4.868l2.315-4.323-1.995-4.773,2.635-7.278,3.275,3.493,7.2,1.525Z" transform="translate(-918.9 -1354.3)" fill="#aac9f5"/>
            <path id="Path_171" data-name="Path 171" d="M1004.822,1619.3l-.722,4.078,5.392-3.758Z" transform="translate(-998.299 -1601.257)" fill="#aac9f5"/>
            <path id="Path_172" data-name="Path 172" d="M1011.057,1694.848l-.7,4.473h-6.318s-.831-.511-1.913-1.185l-.524-1.539,6.073-2.757.729-.041Z" transform="translate(-995.969 -1670.685)" fill="#aac9f5"/>
            <path id="Path_173" data-name="Path 173" d="M1095.147,1633.3l-.81,5.168-.238,1.491c-.408-.2-3.261-1.675-3.146-2.492C1091.076,1636.589,1095.147,1633.3,1095.147,1633.3Z" transform="translate(-1079.235 -1614.304)" fill="#c3d9fa"/>
            <path id="Path_174" data-name="Path 174" d="M941.3,1712.7a26.42,26.42,0,0,1,4.112,1.518c.279.361,1.076,1.879,1.076,1.879Z" transform="translate(-939.775 -1688.298)" fill="#c3d9fa"/>
            <path id="Path_175" data-name="Path 175" d="M1014.7,1562.919s3.037-.878,3.316-1.28,2.24-2.839,2.24-2.839a25.876,25.876,0,0,1-.878,4.432C1019.017,1563.709,1014.7,1562.919,1014.7,1562.919Z" transform="translate(-1008.177 -1544.877)" fill="#c3d9fa"/>
            <path id="Path_176" data-name="Path 176" d="M923.024,1564.16l-3.241,6.066c-.395-2.247-.783-4.868-.783-4.868l1.832-2.158Z" transform="translate(-918.993 -1548.977)" fill="#9dc1ed"/>
            <path id="Path_177" data-name="Path 177" d="M923.024,1534.618s-1.757-.688-4.024,1.205l2.315-4.323Z" transform="translate(-918.993 -1519.435)" fill="#c3d9fa"/>
            <path id="Path_178" data-name="Path 178" d="M923.7,1461.3l5.352,1.4,2.24,3.411Z" transform="translate(-923.373 -1454.015)" fill="#c3d9fa"/>
            <path id="Path_179" data-name="Path 179" d="M1001.863,1567.091l-.163,3.8,6.08-2.764,4.194-4.16-3.84-5.066-1.838,4.875Z" transform="translate(-996.063 -1544.97)" fill="#9dc1ed"/>
          </g>
          <path id="Path_180" data-name="Path 180" d="M853.363,1084.919s-.517-1.852-2-2.029a2.269,2.269,0,0,0-2.621,1.579c-.2.872-.054,3.139.865,3.418S853.363,1084.919,853.363,1084.919Z" transform="translate(-841.369 -1082.247)" fill="#2c3a64"/>
          <path id="Path_181" data-name="Path 181" d="M749.263,1355.534l-.1-.79c-1.546.408-5.672-1.144-5.672-1.144s-1.5,1.314-1.3,4.466c.1,1.539.157,4.153.157,4.153h0c-.007,2.24.163,4.46.293,5.862.068.7.123,1.2.15,1.4h0a.26.26,0,0,1-.048.17,6.324,6.324,0,0,0-.674,1.423c-1.055,3.486-.225,8.838-.225,8.838l1.042,1.62s1.178-6.557,2.138-9.457a5.842,5.842,0,0,1,.463-1.11,12.444,12.444,0,0,0,1.151-3.077C747.309,1365.433,749.263,1355.534,749.263,1355.534Z" transform="translate(-741.538 -1334.547)" fill="#35488b"/>
          <path id="Path_182" data-name="Path 182" d="M866.113,1158.4s-.2.62-.354,1.219a2.467,2.467,0,0,1-1.559-2.117Z" transform="translate(-855.848 -1151.798)" fill="#ed985f"/>
          <path id="Path_183" data-name="Path 183" d="M864.069,1113.71s-2.683-.62-2.267-2.281.34-2.86,2.07-2.54,1.9,1.042,1.9,1.627S864.777,1113.826,864.069,1113.71Z" transform="translate(-853.573 -1106.449)" fill="#ffb27d"/>
          <path id="Path_184" data-name="Path 184" d="M856.834,1105.445c-.286-.606-.626-.572-.838-.463a1.918,1.918,0,0,0-2.492-.211,3.28,3.28,0,0,1-1.5,1.62,2.275,2.275,0,0,0,1.607.415,1.922,1.922,0,0,0,1.062-.4,6.37,6.37,0,0,1-1.4,1.042,4.584,4.584,0,0,0,2.594-2.2,2.111,2.111,0,0,1,.388.919c.027.456-.129,1.341.129,1.375C856.385,1107.535,857.263,1106.351,856.834,1105.445Z" transform="translate(-844.479 -1102.317)" fill="#2c3a64"/>
          <path id="Path_185" data-name="Path 185" d="M905.518,1217.5s.647,1.123.742,1.416a1.33,1.33,0,0,0-1.171.613C905.082,1219.522,905.109,1217.663,905.518,1217.5Z" transform="translate(-893.953 -1207.713)" fill="#f99746"/>
          <path id="Path_186" data-name="Path 186" d="M761.367,1195.093a1.55,1.55,0,0,1-.068.156c-.674,1.45-1.287,2.656-1.287,2.656s-.1,5.365-.912,5.576a21.05,21.05,0,0,1-2.7.354,20.245,20.245,0,0,1-2.846,0,4.6,4.6,0,0,1-2.812-.953c-.654-.871,2.369-3.738,2.785-5.8-.007-.109.014-.456.041-.906.054-.824.136-2,.163-2.717.007-.109.007-.2.007-.293v-.048c.143-.109.286-.211.422-.306.422-.306.735-.572.756-.906a2.675,2.675,0,0,0-.014-.4,1.845,1.845,0,0,0-.027-.191,5.529,5.529,0,0,0-.381-1.287,5.03,5.03,0,0,1,1.981-.116v.184a6.67,6.67,0,0,0,.15,1.872c.184.279,3.581,1.5,3.758,1.13a6.8,6.8,0,0,0-.327-2.192h0a5.343,5.343,0,0,1,1.546.817C760.9,1192.186,761.9,1193.69,761.367,1195.093Z" transform="translate(-750.026 -1181.956)" fill="#f99746"/>
          <path id="Path_187" data-name="Path 187" d="M796.5,1249.736c-.892-.415-2.24-2.574-3.1-4.119.054-.824.136-2,.163-2.717Z" transform="translate(-789.869 -1231.384)" fill="#ed7d2b"/>
          <path id="Path_188" data-name="Path 188" d="M803.038,1203.7l-.225.817s-.279-.054-.729-.136c-.136-.027-.211-.048-.211-.048-.361-.068-.783-.163-1.253-.266h-.007c-.8-.191-1.7-.422-2.451-.681a6.722,6.722,0,0,1-1.307-.579c-.034-.02-.054-.041-.089-.061a10.274,10.274,0,0,1-2.329-3.854c-.1-.238-.184-.47-.272-.7a17.025,17.025,0,0,1-.729-2.431,7,7,0,0,1-.17-1.157,2.672,2.672,0,0,1-.007-.327c.014-1.852.933-2.111.933-2.111l.061-.021c.157-.027.327.082.5.293a5.469,5.469,0,0,1,.681,1.205c.368.824.749,1.893,1.1,2.955.2.579.388,1.164.579,1.7.109.327.218.633.32.912a8.148,8.148,0,0,0,.538,1.246,3.1,3.1,0,0,0,.783.708,28.8,28.8,0,0,0,2.533,1.573c.361.2.694.388.98.545C802.739,1203.534,803.038,1203.7,803.038,1203.7Z" transform="translate(-789.737 -1184.079)" fill="#ffb27d"/>
          <path id="Path_189" data-name="Path 189" d="M795.479,1193.687a2.4,2.4,0,0,0-2.179.62c.014-1.852.94-2.1.94-2.1C794.607,1192.053,795.036,1192.693,795.479,1193.687Z" transform="translate(-789.776 -1184.118)" fill="#f99746"/>
          <path id="Path_190" data-name="Path 190" d="M906.965,1349.943c-.408.17-.987.776-1.906.408a13.52,13.52,0,0,0-1.7-.517c-.136-.027-.211-.048-.211-.048-.361-.068-.783-.163-1.253-.266a4.412,4.412,0,0,0,.681-1.321c.361.2.694.388.98.545a3.013,3.013,0,0,0,2,.177c.633-.15,1.7.613,1.7.613S907.381,1349.773,906.965,1349.943Z" transform="translate(-890.982 -1329.514)" fill="#f99746"/>
          <path id="Path_191" data-name="Path 191" d="M745.82,1735.906h-4.133a1.713,1.713,0,0,1,.116-1.11,2.256,2.256,0,0,0,.089-1.4,3.593,3.593,0,0,0,.688.32,1.21,1.21,0,0,0,.769-.143,13.636,13.636,0,0,0,.912,1.423C744.533,1735.191,745.738,1735.122,745.82,1735.906Z" transform="translate(-741.635 -1688.488)" fill="#233862"/>
          <path id="Path_192" data-name="Path 192" d="M868.32,1735.906h-4.133a1.713,1.713,0,0,1,.116-1.11,2.256,2.256,0,0,0,.089-1.4,3.593,3.593,0,0,0,.688.32,1.519,1.519,0,0,0,.858-.252,2.35,2.35,0,0,0,.824,1.532C867.033,1735.191,868.238,1735.122,868.32,1735.906Z" transform="translate(-855.794 -1688.488)" fill="#233862"/>
        </g>
      </g>
      <path id="Path_193" data-name="Path 193" d="M437.572,1770.583H247.511a.212.212,0,0,1-.211-.211v-.061a.212.212,0,0,1,.211-.211H437.572a.212.212,0,0,1,.211.211v.061A.212.212,0,0,1,437.572,1770.583Z" transform="translate(-247.3 -1661.141)" fill="#2e3552"/>
    </g>
  </g>
</svg>
