<svg id="announcement" xmlns="http://www.w3.org/2000/svg" xmlns:xlink="http://www.w3.org/1999/xlink" width="202.671" height="176.461" viewBox="0 0 202.671 176.461">
  <defs>
    <clipPath id="clip-path">
      <rect id="Rectangle_181" data-name="Rectangle 181" width="152.526" height="172.338"/>
    </clipPath>
  </defs>
  <g id="Group_225" data-name="Group 225" transform="translate(0 4.122)">
    <g id="Group_224" data-name="Group 224" clip-path="url(#clip-path)">
      <g id="Group_208" data-name="Group 208" transform="translate(20.058 134.913)">
        <path id="XMLID_41_" d="M270.963,235.013a5.227,5.227,0,0,0,1.477,6.864l15.259,10.2a4.488,4.488,0,0,0,6.337-1.6c4.8-8.464,7.383-10.53,6.46-15.661C299.881,231.615,270.963,235.013,270.963,235.013Z" transform="translate(-256.627 -233.442)" fill="#dda070"/>
        <path id="XMLID_40_" d="M265.2,290.953,248.1,279.49l15.936-27.99,17.1,11.4Z" transform="translate(-248.1 -239.465)" fill="#ecc297"/>
        <path id="XMLID_39_" d="M270.745,291.52l-8.245-5.531L281.143,253.2l8.245,5.531Z" transform="translate(-253.64 -240.033)" fill="#dda070"/>
        <g id="Group_207" data-name="Group 207" transform="translate(15.013 43.69)">
          <ellipse id="XMLID_38_" cx="1.784" cy="1.933" rx="1.784" ry="1.933" transform="translate(8.368)" fill="#65afaa"/>
          <ellipse id="XMLID_37_" cx="1.784" cy="1.933" rx="1.784" ry="1.933" transform="translate(4.122 7.464)" fill="#65afaa"/>
          <ellipse id="XMLID_36_" cx="1.784" cy="1.933" rx="1.784" ry="1.933" transform="translate(0 14.728)" fill="#65afaa"/>
        </g>
      </g>
      <path id="XMLID_35_" d="M223.482,172.669c3.63,12,10.644,20.326,15.751,18.527,5.045-1.8,6.276-13,2.646-24.991s-10.644-20.326-15.751-18.527S219.851,160.673,223.482,172.669Z" transform="translate(-217.76 -69.839)" fill="#6a2110"/>
      <g id="Group_209" data-name="Group 209" transform="translate(7.497 11.428)">
        <path id="XMLID_34_" d="M358.194,134.418c.615,1.733,0,2.932-1.354,2.8-39.193-3.732-77.094,4.465-113.395,20.393-1.108.533-2.277.267-2.523-.533-4.676-13.262-8.368-26.257-12.982-39.586-.308-.8-.554-2.066.615-2.466,36.855-14.195,70.264-35.387,97.213-66.31.923-1.066,2.153-.6,2.769,1.133Q343.3,92.133,358.194,134.418Z" transform="translate(-227.685 -48.148)" fill="#262537"/>
      </g>
      <path id="XMLID_33_" d="M362.508,151.715c-6.03-17.261-12.121-34.454-18.151-51.715-26.211,36.454-78.324,54.047-105.458,55.314,2.03,6.331,4.061,12.662,6.276,19.06.308.8,1.415,1.066,2.523.533,36.24-15.928,74.2-24.125,113.395-20.393C362.447,154.647,363.062,153.448,362.508,151.715Z" transform="translate(-224.503 -54.016)" fill="#262537"/>
      <g id="Group_210" data-name="Group 210" transform="translate(7.137 63.577)">
        <path id="XMLID_32_" d="M275.768,171.65c-16.489,5.265-27.01,9.8-34.455,12.662-10.152-12.929-13.967-26.257-14.213-43.251,9.352-3.665,21.9-8.93,33.163-14.661C259.648,138.862,266.97,162.92,275.768,171.65Z" transform="translate(-227.1 -126.4)" fill="#e95f24"/>
      </g>
      <path id="XMLID_31_" d="M409.289,141.382a9.849,9.849,0,0,0,2.83-.666c4.184-1.733,9.106-7.131,8.552-23.058-.369-10.729-3.138-23.925-7.752-37.187-4.676-13.262-10.706-25.124-17.043-33.388s-12.244-12.2-17.72-11.8a9.848,9.848,0,0,0-2.83.666c-4.184,1.733-9.106,7.131-8.552,23.058.369,10.729,3.138,23.925,7.752,37.187,4.676,13.262,10.706,25.124,17.043,33.388S403.874,141.848,409.289,141.382Z" transform="translate(-273.682 -32.42)" fill="#a83023"/>
      <path id="XMLID_30_" d="M412.537,140.024c3.815-1.533,8.183-6.6,7.691-21.659-.369-10.6-3.076-23.658-7.691-36.72-4.615-13.129-10.583-24.858-16.8-32.988-8.86-11.6-15.259-12.2-19.073-10.663s-8.183,6.6-7.691,21.659c.369,10.6,3.876,25.991,7.691,36.72,4.676,13.129,10.583,24.858,16.8,32.988C402.324,141.023,408.723,141.623,412.537,140.024Z" transform="translate(-274.532 -33.128)" fill="#e95f24"/>
      <path id="XMLID_29_" d="M415.157,135.736c3.384-1.4,7.26-6.131,6.46-20.593-.554-10.13-3.322-22.792-7.814-35.454-4.491-12.729-10.152-24.125-15.936-32.122-8.306-11.4-14.09-12.129-17.474-10.729s-7.26,6.131-6.46,20.593c.554,10.13,3.323,22.792,7.814,35.454,4.491,12.729,10.152,24.125,15.936,32.122C405.989,136.4,411.773,137.135,415.157,135.736Z" transform="translate(-276.413 -32.773)" fill="#f3991f"/>
      <path id="XMLID_28_" d="M17.588,0C26.55-.243,33.23,22.281,32.508,50.31s-8.572,50.95-17.534,51.2S-.668,79.226.053,51.2,8.625.247,17.588,0Z" transform="matrix(-0.935, 0.355, -0.355, -0.935, 154.176, 97.191)" fill="#fff"/>
      <path id="XMLID_27_" d="M410.619,110.7c8.675,24.658,10.644,46.783,4.43,49.316s-18.274-15.395-26.949-40.052Z" transform="translate(-281.904 -57.586)" fill="#262537"/>
      <g id="Group_213" data-name="Group 213" transform="translate(101.397 40.764)">
        <g id="Group_211" data-name="Group 211" transform="translate(0 1.58)">
          <path id="XMLID_26_" d="M380.3,98.711a136.326,136.326,0,0,0,19.5-4.132.949.949,0,0,1,1.169.466c2.523,6.931,4.984,13.728,7.445,20.459a1.014,1.014,0,0,1-.554,1.133A135.384,135.384,0,0,0,390.391,127.7c-1.723-3.732-3.384-7.731-4.922-11.862A150.476,150.476,0,0,1,380.3,98.711Z" transform="translate(-380.3 -94.538)" fill="#e95f24"/>
        </g>
        <g id="Group_212" data-name="Group 212" transform="translate(4.184 12.351)">
          <path id="XMLID_25_" d="M407.343,110.7l3.692,10.2a1.014,1.014,0,0,1-.554,1.133,137.161,137.161,0,0,0-17.535,11.329c-2.769-6.531-4.061-9.863-5.845-14.995C394.975,115.365,401.313,112.766,407.343,110.7Z" transform="translate(-387.1 -110.7)" fill="#a83023"/>
        </g>
        <path id="XMLID_24_" d="M4.2,0c2.131-.06,3.71,5.441,3.528,12.288S5.673,24.735,3.542,24.8-.168,19.354.014,12.507,2.072.061,4.2,0Z" transform="translate(15.193 2.865) rotate(-21.709)" fill="#f3991f"/>
        <path id="XMLID_23_" d="M2.732,0c1.34-.038,2.3,4.773,2.139,10.746S3.5,21.592,2.156,21.63-.142,16.856.017,10.883,1.392.038,2.732,0Z" transform="translate(17.497 3.349) rotate(-21.709)" fill="#fac013"/>
      </g>
      <g id="Group_215" data-name="Group 215" transform="translate(31.748 109.368)">
        <path id="XMLID_22_" d="M273,200.768c1.477,13.062,13.474,42.585,24,40.186,13.167-3,10.583-8.33,5.845-9.53s-16.858-22.325-16.3-35.387C282.906,192.371,273,200.768,273,200.768Z" transform="translate(-269.37 -195.11)" fill="#c4c5c4"/>
        <path id="XMLID_21_" d="M267.1,201.222c1.477,13.062,14.459,42.518,25.1,40.852,13.844-2.2,10.583-8.33,5.845-9.53s-17.535-20.859-17.412-35.054C277.006,193.824,267.1,201.222,267.1,201.222Z" transform="translate(-267.1 -195.564)" fill="#e7e7e7"/>
        <path id="XMLID_20_" d="M296.333,233.323c-5.107-4.665-13.044-18.06-14.643-29.523-2.092,1.466-4.676,3.465-5.045,5.065-.861-.267-5.476.8-7.445,1.333,3.2,11.862,11.075,28.39,18.827,33.055C291.165,241.12,294.549,236.122,296.333,233.323Z" transform="translate(-267.908 -198.009)" fill="#c4c5c4"/>
        <path id="XMLID_19_" d="M274.4,224.133l7.445-1.733,5.476,2.466,2.215,5.2,1.169,8.4,8-2.6.8,1.2s-8.368,8.464-10.583,8.863a1.879,1.879,0,0,1-1.169,1.6s-2.769-2-4.122-3.066C282.214,243.459,274.4,224.133,274.4,224.133Z" transform="translate(-269.909 -204.213)" fill="#8a8b8b"/>
        <g id="Group_214" data-name="Group 214" transform="translate(17.351 13.122)">
          <path id="XMLID_18_" d="M296.592,214.8c-.185.067-1.292.4-1.292.4s2.276,7.464,3.692,8.93C304.283,222.664,305.514,222.264,296.592,214.8Z" transform="translate(-295.3 -214.8)" fill="#971a38"/>
          <path id="XMLID_17_" d="M295.3,215.4c.369,2.4,2.092,7.331,3.692,8.93C302.806,223,304.221,222.864,295.3,215.4Z" transform="translate(-295.3 -215)" fill="#e41955"/>
        </g>
      </g>
      <path id="XMLID_16_" d="M278.846,187.328c-3.138-3.132-6.091-8.13-8.552-13.928-12.244,4.732-27.134,9.13-35.194,10.6a63.349,63.349,0,0,0,9.352,15.994C251.9,197.125,262.357,192.593,278.846,187.328Z" transform="translate(-223.041 -78.501)" fill="#a83023"/>
      <g id="Group_216" data-name="Group 216" transform="translate(42.27 109.561)">
        <path id="XMLID_15_" d="M295.214,196.2a3.246,3.246,0,0,1,4.8.6h0a3.916,3.916,0,0,1-.554,5.2l-9.721,8.4a3.246,3.246,0,0,1-4.8-.6h0a3.916,3.916,0,0,1,.554-5.2Z" transform="translate(-284.201 -195.401)" fill="#ecc297"/>
      </g>
      <g id="Group_217" data-name="Group 217" transform="translate(43.992 117.492)">
        <path id="XMLID_14_" d="M298.014,208.1a3.246,3.246,0,0,1,4.8.6h0a3.916,3.916,0,0,1-.554,5.2l-9.721,8.4a3.246,3.246,0,0,1-4.8-.6h0a3.916,3.916,0,0,1,.554-5.2Z" transform="translate(-287.001 -207.301)" fill="#ecc297"/>
      </g>
      <g id="Group_218" data-name="Group 218" transform="translate(45.715 125.422)">
        <path id="XMLID_13_" d="M300.814,220a3.246,3.246,0,0,1,4.8.6h0a3.916,3.916,0,0,1-.554,5.2l-9.721,8.4a3.246,3.246,0,0,1-4.8-.6h0a3.916,3.916,0,0,1,.554-5.2Z" transform="translate(-289.801 -219.201)" fill="#ecc297"/>
      </g>
      <g id="Group_219" data-name="Group 219" transform="translate(47.438 133.286)">
        <path id="XMLID_12_" d="M303.614,231.8a3.246,3.246,0,0,1,4.8.6h0a3.916,3.916,0,0,1-.554,5.2l-9.721,8.4a3.246,3.246,0,0,1-4.8-.6h0a3.916,3.916,0,0,1,.554-5.2Z" transform="translate(-292.601 -231.001)" fill="#ecc297"/>
      </g>
      <path id="XMLID_11_" d="M266.268,225l-7.568.133,5.353,24.525a5.722,5.722,0,0,0,6.768,4.6l3.692-1s7.445-1.733,6.091-8.064C279,238.062,272.421,226.466,266.268,225Z" transform="translate(-232.12 -95.713)" fill="#ecc297"/>
      <g id="Group_223" data-name="Group 223" transform="translate(26.41 120.757)">
        <path id="XMLID_10_" d="M263.024,223.971a3.72,3.72,0,0,1-4.492-3h0a4.059,4.059,0,0,1,2.769-4.865l11.136-2.866a3.72,3.72,0,0,1,4.491,3h0a4.059,4.059,0,0,1-2.769,4.865Z" transform="translate(-258.424 -212.508)" fill="#ecc297"/>
        <g id="Group_222" data-name="Group 222" transform="translate(15.838)" opacity="0.6">
          <g id="Group_220" data-name="Group 220" transform="translate(1.677 3.199)">
            <path id="XMLID_9_" d="M297.479,221.2a4,4,0,0,0-3.015-3.6l-3.138-.6-3.138,2.666a3.836,3.836,0,0,0-.861,4.665l5.23,1.066Z" transform="translate(-286.891 -217)" fill="#cf946d"/>
            <path id="XMLID_8_" d="M296.715,227.665a3.739,3.739,0,0,0,4.307-3.2,3.1,3.1,0,0,0,0-1.066l-4.922,4.2Z" transform="translate(-290.434 -219.135)" fill="#cf946d"/>
          </g>
          <g id="Group_221" data-name="Group 221">
            <path id="XMLID_7_" d="M284.864,215.4a3.25,3.25,0,0,0,4.368.933l3.076-2.666-7.137-1.4a4.03,4.03,0,0,0-.861-.067A3.725,3.725,0,0,0,284.864,215.4Z" transform="translate(-284.166 -212.2)" fill="#cf946d"/>
            <path id="XMLID_6_" d="M297.114,219.3a4.006,4.006,0,0,0-2.953-4.665l-.738-.133-2.707,2.333a3.411,3.411,0,0,1-.492.333l-2.03,1.666A3.988,3.988,0,0,0,286.9,221.3l5.845,1.2A3.72,3.72,0,0,0,297.114,219.3Z" transform="translate(-285.218 -212.967)" fill="#cf946d"/>
          </g>
        </g>
        <path id="XMLID_5_" d="M279.914,221.13a3.957,3.957,0,0,1-2.953-4.665h0a3.693,3.693,0,0,1,4.307-3.2l7.937,1.6a3.957,3.957,0,0,1,2.953,4.665h0a3.693,3.693,0,0,1-4.307,3.2Z" transform="translate(-265.531 -212.533)" fill="#ecc297"/>
      </g>
    </g>
  </g>
  <path id="XMLID_3_" d="M438.5,48.357l2.092,3.446,27.134-25.1-7.875-2.4Z" transform="translate(-285.05 -24.3)" fill="#f3991f"/>
  <path id="XMLID_2_" d="M465.4,88.713,492.534,72.9l3.445,11.383-29.595,7.2Z" transform="translate(-295.4 -40.263)" fill="#f3991f"/>
  <path id="XMLID_1_" d="M465.9,135l.369,2.4,31.994,9.291-3.138-10.337Z" transform="translate(-295.592 -60.944)" fill="#f3991f"/>
</svg>
