<svg id="Donate" xmlns="http://www.w3.org/2000/svg" width="230.838" height="145.095" viewBox="0 0 230.838 145.095">
  <g id="Group_140" data-name="Group 140" transform="translate(36.741 18.654)" opacity="0.25">
    <path id="Path_71" data-name="Path 71" d="M249.32,88.131V61.1L230.969,81.163v33.352h-11.8V66.7h-3.008l-8.566-8-8.6,8h-2.97v64.5H172.374V101.837H152.5v40.205H277.951V88.131ZM216.12,105.3H198.987V103.55H216.12Zm0-3.5H198.987v-1.751H216.12Zm0-3.5H198.987V96.545H216.12Zm0-3.465H198.987V93.08H216.12Zm0-3.5H198.987V89.577H216.12Zm0-3.465H198.987V86.113H216.12Zm0-3.5H198.987V82.61H216.12Zm0-3.5H198.987V79.107H216.12Zm0-3.465H198.987V75.643H216.12Zm0-3.5H198.987V72.14H216.12Zm0-3.5H198.987V68.637H216.12ZM246.96,140.9h-1.751V69.513L247,67.571V140.9Z" transform="translate(-132.283 -58.7)" fill="#262537"/>
    <path id="Path_72" data-name="Path 72" d="M243.194,128.078V78.7h-2.208V73.709H223.776V78.7h-2.208v62.059H205.425v-28.1H181.9v36.855H170.55V83.494H147.4v50.752h-2.7V104.054H140.51l-11.688-6.168v6.168h-2.551v37.312H120.6V90.8h-5.749V73.1h-.8V90.8H108.3v63.773H257.661V128.04H243.194Zm-124-4.8h-9.48v-1.1h9.48Zm0-2.551h-9.48v-1.1h9.48Zm0-2.551h-9.48v-1.1h9.48Zm0-2.551h-9.48v-1.066h9.48Zm0-2.513h-9.48v-1.1h9.48Zm0-2.551h-9.48v-1.1h9.48Zm0-2.551h-9.48v-1.1h9.48Zm0-2.551h-9.48v-1.1h9.48Zm0-2.513h-9.48v-1.1h9.48Zm0-2.551h-9.48v-1.1h9.48Zm0-2.551h-9.48v-1.1h9.48Zm0-2.551h-9.48v-1.1h9.48Zm0-2.513h-9.48v-1.1h9.48Zm33.2,15.115h-2.817v-2.817h2.817Zm0-4.683h-2.817V100.4h2.817Zm0-4.721h-2.817V95.677h2.817Zm0-4.683h-2.817V90.994h2.817Zm0-4.683h-2.817V86.311h2.817Zm5.33,18.77H154.9v-2.817h2.817Zm0-4.683H154.9V100.4h2.817Zm0-4.721H154.9V95.677h2.817Zm0-4.683H154.9V90.994h2.817Zm0-4.683H154.9V86.311h2.817Zm5.368,18.77H160.27v-2.817h2.817Zm0-4.683H160.27V100.4h2.817Zm0-4.721H160.27V95.677h2.817Zm0-4.683H160.27V90.994h2.817Zm0-4.683H160.27V86.311h2.817Zm5.368,18.77h-2.817v-2.817h2.817Zm0-4.683h-2.817V100.4h2.817Zm0-4.721h-2.817V95.677h2.817Zm0-4.683h-2.817V90.994h2.817ZM245.44,151.3h-2.932v-2.932h2.932Zm0-5.863h-2.932v-2.932h2.932Zm0-5.863h-2.932v-2.932h2.932Zm0-5.863h-2.932v-2.932h2.932Zm5.406,17.59h-2.932v-2.932h2.932Zm0-5.863h-2.932v-2.932h2.932Zm0-5.863h-2.932v-2.932h2.932Zm0-5.863h-2.932v-2.932h2.932Zm5.444,17.59h-2.932v-2.932h2.932Zm0-5.863h-2.932v-2.932h2.932Zm0-5.863h-2.932v-2.932h2.932Zm0-5.863h-2.932v-2.932h2.932Z" transform="translate(-104.911 -67.617)" fill="#262537"/>
    <path id="XMLID_302_" d="M256.414,286.309H99.7a.328.328,0,0,1-.3-.3h0a.328.328,0,0,1,.3-.3H256.376a.328.328,0,0,1,.3.3h0A.27.27,0,0,1,256.414,286.309Z" transform="translate(-99.4 -199.274)" fill="#262537"/>
    <path id="XMLID_301_" d="M257.146,290.309H106.6a.328.328,0,0,1-.3-.3h0a.328.328,0,0,1,.3-.3H257.146a.328.328,0,0,1,.3.3h0A.328.328,0,0,1,257.146,290.309Z" transform="translate(-103.673 -201.751)" fill="#262537"/>
  </g>
  <g id="Group_142" data-name="Group 142" transform="translate(0 73.717)">
    <rect id="XMLID_300_" width="230.838" height="37.883" transform="translate(0 33.496)" fill="#262537"/>
    <g id="Group_141" data-name="Group 141" transform="translate(29.231)">
      <g id="XMLID_291_" opacity="0.7">
        <path id="XMLID_69_" d="M118.977,236.894H82.541c-4.645,0-6.016-10.089,14.772-3.046-3.16-1.447-3.2-3.389-2.932-3.922a1.932,1.932,0,0,1,1.675-.723c1.637.152,2.894,1.142,4.34,1.942-2.589-1.713-6.472-6.092-4.835-8.757,2.132-3.465,7.577-.685,8.833.571-6.511-5.978-7.272-13.935-3.084-16.067,7.005-3.617,11,10.013,11.422,12.183,0,0-4.607-14.658,2.894-15.686,8.909-1.218,8.11,14.43,8.11,14.43s1.1-7.31,8.528-4.645,4.417,23.643,4.417,23.643" transform="translate(-79.677 -203.322)" fill="#efcdb0"/>
      </g>
      <g id="XMLID_290_" transform="translate(120.784)" opacity="0.7">
        <path id="XMLID_67_" d="M415.224,236.894H451.66c4.645,0,6.016-10.089-14.772-3.046,3.16-1.447,3.2-3.389,2.932-3.922a1.932,1.932,0,0,0-1.675-.723c-1.637.152-2.894,1.142-4.34,1.942,2.589-1.713,6.472-6.092,4.835-8.757-2.132-3.465-7.577-.685-8.833.571,6.51-5.978,7.272-13.935,3.084-16.067-7.005-3.617-11,10.013-11.422,12.183,0,0,4.607-14.658-2.894-15.686-8.909-1.218-8.11,14.43-8.11,14.43s-1.1-7.31-8.528-4.645-4.417,23.643-4.417,23.643" transform="translate(-396.917 -203.322)" fill="#262537"/>
      </g>
    </g>
  </g>
  <g id="Group_145" data-name="Group 145" transform="translate(16.029 0)">
    <g id="Group_143" data-name="Group 143" transform="translate(0 4.834)">
      <g id="XMLID_619_">
        <circle id="XMLID_643_" cx="0.609" cy="0.609" r="0.609" transform="translate(23.834 82.048)" fill="#fff9f3"/>
        <circle id="XMLID_642_" cx="0.609" cy="0.609" r="0.609" transform="translate(14.163 25.89)" fill="#fff9f3"/>
        <circle id="XMLID_641_" cx="0.609" cy="0.609" r="0.609" transform="translate(57.491 11.917)" fill="#fff9f3"/>
        <circle id="XMLID_640_" cx="0.609" cy="0.609" r="0.609" transform="translate(195.697 58.671)" fill="#fff9f3"/>
        <circle id="XMLID_639_" cx="0.609" cy="0.609" r="0.609" transform="translate(42.185 32.172)" fill="#fff9f3"/>
        <circle id="XMLID_638_" cx="0.609" cy="0.609" r="0.609" transform="translate(75.69 11.27)" fill="#fff9f3"/>
        <circle id="XMLID_637_" cx="0.609" cy="0.609" r="0.609" transform="translate(106.643 14.544)" fill="#fff9f3"/>
        <circle id="XMLID_636_" cx="0.609" cy="0.609" r="0.609" transform="translate(161.659 48.01)" fill="#fff9f3"/>
        <path id="XMLID_635_" d="M130,157.438h-.609v-.609a.228.228,0,0,0-.457,0v.609h-.609a.228.228,0,1,0,0,.457h.609v.609a.228.228,0,0,0,.457,0v-.609H130a.219.219,0,0,0,.228-.228C130.27,157.552,130.156,157.438,130,157.438Z" transform="translate(-96.461 -105.506)" fill="#fff9f3"/>
        <path id="XMLID_634_" d="M498.6,139.538h-.609v-.609a.228.228,0,1,0-.457,0v.609h-.609a.228.228,0,0,0,0,.457h.609v.609a.228.228,0,1,0,.457,0v-.609h.609a.219.219,0,0,0,.228-.228C498.87,139.652,498.756,139.538,498.6,139.538Z" transform="translate(-324.723 -94.421)" fill="#fff9f3"/>
        <path id="XMLID_633_" d="M385.9,113.938h-.609v-.609a.228.228,0,1,0-.457,0v.609h-.609a.228.228,0,1,0,0,.457h.609V115a.228.228,0,1,0,.457,0v-.609h.609a.219.219,0,0,0,.228-.228C386.17,114.052,386.056,113.938,385.9,113.938Z" transform="translate(-254.932 -78.568)" fill="#fff9f3"/>
        <path id="XMLID_632_" d="M250.9,171.938h-.609v-.609a.228.228,0,1,0-.457,0v.609h-.609a.228.228,0,1,0,0,.457h.609V173a.228.228,0,1,0,.457,0v-.609h.609a.219.219,0,0,0,.228-.228A.246.246,0,0,0,250.9,171.938Z" transform="translate(-171.331 -114.485)" fill="#fff9f3"/>
        <path id="XMLID_631_" d="M520.1,219.638h-.609v-.609a.228.228,0,1,0-.457,0v.609h-.609a.228.228,0,0,0,0,.457h.609v.609a.228.228,0,1,0,.457,0v-.609h.609a.228.228,0,0,0,0-.457Z" transform="translate(-338.037 -144.024)" fill="#fff9f3"/>
        <path id="XMLID_630_" d="M368,153.738h-.609v-.609a.228.228,0,1,0-.457,0v.609h-.609a.228.228,0,1,0,0,.457h.609v.609a.228.228,0,1,0,.457,0v-.609H368a.219.219,0,0,0,.228-.228C368.27,153.852,368.156,153.738,368,153.738Z" transform="translate(-243.847 -103.214)" fill="#fff9f3"/>
        <circle id="XMLID_629_" cx="1.142" cy="1.142" r="1.142" transform="translate(159.641 15.762)" fill="#fff9f3"/>
        <circle id="XMLID_628_" cx="1.142" cy="1.142" r="1.142" transform="translate(115.286 27.717)" fill="#fff9f3"/>
        <circle id="XMLID_627_" cx="1.142" cy="1.142" r="1.142" transform="translate(85.969)" fill="#fff9f3"/>
        <circle id="XMLID_626_" cx="1.142" cy="1.142" r="1.142" transform="translate(34.799 5.597)" fill="#fff9f3"/>
        <circle id="XMLID_625_" cx="1.142" cy="1.142" r="1.142" transform="translate(185.836 53.683)" fill="#fff9f3"/>
        <circle id="XMLID_624_" cx="1.142" cy="1.142" r="1.142" transform="translate(127.888 2.322)" fill="#fff9f3"/>
        <circle id="XMLID_623_" cx="1.142" cy="1.142" r="1.142" transform="translate(53.036 18.085)" fill="#fff9f3"/>
        <circle id="XMLID_622_" cx="1.142" cy="1.142" r="1.142" transform="translate(40.815 55.968)" fill="#fff9f3"/>
        <circle id="XMLID_621_" cx="1.142" cy="1.142" r="1.142" transform="translate(0 73.177)" fill="#fff9f3"/>
        <circle id="XMLID_620_" cx="1.142" cy="1.142" r="1.142" transform="translate(17.552 33.352)" fill="#fff9f3"/>
      </g>
    </g>
    <g id="Group_144" data-name="Group 144" transform="translate(2.508)">
      <g id="XMLID_265_" transform="translate(148.492 21.788)" opacity="0.5">
        <path id="XMLID_65_" d="M492.316,80.55c-1.6-1.028-6.625-.114-6.625-.114s1.18-.457,1.18-1.066a1.652,1.652,0,0,0-1.028-1.409,3.537,3.537,0,0,0-1.789-.228,11.62,11.62,0,0,0-3.579.8,1.059,1.059,0,0,0,.3-1.485,1.087,1.087,0,0,0-1.523-.19c.761-1.066,1.98-5.673-1.713-7.729-4.607-2.551-8.11-.457-8.871,1.1A4.721,4.721,0,0,0,465.4,67.3a8.837,8.837,0,0,0-6.739.685,9.7,9.7,0,0,0-2.589,2.551,5.412,5.412,0,0,0-.761,1.561,3.776,3.776,0,0,0-1.98.457c-2.7,1.523-1.827,4.95-1.256,5.711a.785.785,0,0,0-1.1.152.8.8,0,0,0,.228,1.1,9.052,9.052,0,0,0-2.665-.609,2.652,2.652,0,0,0-1.333.19,1.194,1.194,0,0,0-.761,1.028c0,.457.876.8.876.8s-3.731-.685-4.911.076c-1.409.914-.571,1.142-.343,1.142,7.615-.114,41.386-.114,50.676,0C493.115,82.111,494.219,81.768,492.316,80.55Z" transform="translate(-441.603 -66.931)" fill="#fff"/>
      </g>
      <g id="XMLID_264_" transform="translate(0 16.486)" opacity="0.45">
        <path id="XMLID_63_" d="M97.2,63.816c-.647.038-1.256.114-1.866.19.876-.3,1.789-.8,1.371-1.523-.723-1.333-3.389-.457-3.389-.457s1.523-2.322,0-4.036c-1.066-1.18-3.35-.457-4.378-.076a5.236,5.236,0,0,0-2.627-3.845,8.685,8.685,0,0,0-6.739-.685A4.807,4.807,0,0,0,76.3,56.315c-.761-1.561-4.264-3.655-8.871-1.1-3.693,2.056-2.475,6.7-1.713,7.729a1.087,1.087,0,0,0-1.523.19,1.059,1.059,0,0,0,.3,1.485,11.621,11.621,0,0,0-3.579-.8,4.08,4.08,0,0,0-1.789.228A1.721,1.721,0,0,0,58.1,65.453c0,.609,1.18,1.066,1.18,1.066s-5.026-.914-6.625.114c-1.866,1.218-.8,1.561-.457,1.561,10.318-.152,20.636-.267,30.954-.419H98.879a1.854,1.854,0,0,0,1.866-1.789C100.858,65.072,100.135,63.587,97.2,63.816Z" transform="translate(-51.586 -53.005)" fill="#fff"/>
      </g>
      <g id="XMLID_263_" transform="translate(80.911)" opacity="0.4">
        <path id="XMLID_61_" d="M267.755,20.516c.647.038,1.256.114,1.866.19-.876-.3-1.789-.8-1.371-1.523.723-1.333,3.389-.457,3.389-.457s-1.523-2.322,0-4.036c1.066-1.18,3.35-.457,4.378-.076a5.236,5.236,0,0,1,2.627-3.845,8.685,8.685,0,0,1,6.739-.685,4.806,4.806,0,0,1,3.274,2.932c.761-1.561,4.264-3.655,8.871-1.1,3.693,2.056,2.475,6.7,1.713,7.729a1.087,1.087,0,0,1,1.523.19,1.059,1.059,0,0,1-.3,1.485,11.621,11.621,0,0,1,3.579-.8,4.08,4.08,0,0,1,1.789.228,1.721,1.721,0,0,1,1.028,1.409c0,.609-1.18,1.066-1.18,1.066s5.026-.914,6.625.114c1.866,1.218.8,1.561.457,1.561-10.318-.152-20.636-.267-30.954-.419H265.966a1.854,1.854,0,0,1-1.866-1.789C264.1,21.772,264.823,20.325,267.755,20.516Z" transform="translate(-264.1 -9.705)" fill="#fff"/>
      </g>
    </g>
  </g>
  <g id="Group_150" data-name="Group 150" transform="translate(58.024 35.222)">
    <path id="XMLID_262_" d="M202.346,137.4s1.294,3.16,2.779,6.168c3.5,1.675,5.939,2.665,6.282,2.779-.076.457-.343,1.485-.343,1.485s-5.368-.609-7.082-1.485c-1.675-.876-2.627-2.665-4.683-7.2C201.546,136.37,202.346,137.4,202.346,137.4Z" transform="translate(-182.548 -123.887)" fill="#f9b4ac"/>
    <path id="XMLID_261_" d="M199.255,136.4a15.189,15.189,0,0,1,2.855,3.96,13.246,13.246,0,0,1-3.731,3.084s-2.817-2.627-3.579-4.873A31.787,31.787,0,0,0,199.255,136.4Z" transform="translate(-179.761 -123.385)" fill="#b1b0d8"/>
    <ellipse id="XMLID_35_" cx="13.288" cy="1.18" rx="13.288" ry="1.18" transform="translate(0 73.514)" fill="#efd2bc"/>
    <g id="XMLID_260_" transform="translate(16.336 3.002)">
      <path id="XMLID_474_" d="M200.45,110.1a4.736,4.736,0,0,1,.685,1.98,2.166,2.166,0,0,1-.723,1.9.96.96,0,0,1-1.028.19,1.009,1.009,0,0,1-.228-.19,3.646,3.646,0,0,1-.914-2.932" transform="translate(-198.207 -110.1)" fill="#0c3151"/>
    </g>
    <g id="XMLID_32_" transform="translate(2.349 69.364)">
      <path id="XMLID_34_" d="M165.773,284.781s-.609,1.713-.761,2.17c-.152.419-1.447.038-1.523-.228a14.392,14.392,0,0,1,.495-2.322" transform="translate(-162.715 -284.4)" fill="#f9b4ac"/>
      <path id="XMLID_33_" d="M161.861,289.633c-.152.457-.457,1.1-.381,1.333a12.4,12.4,0,0,0,2.056,1.142,6.314,6.314,0,0,0,1.18.457,2.834,2.834,0,0,0,1.98-.152c.343-.685-1.789-1.18-2.7-3.122a.607.607,0,0,0-.343.152.773.773,0,0,1-.914.19,1.266,1.266,0,0,1-.457-.533S162.013,289.176,161.861,289.633Z" transform="translate(-161.468 -287.311)" fill="#594ea1"/>
    </g>
    <g id="XMLID_29_" transform="translate(17.717 70.468)">
      <path id="XMLID_31_" d="M204.028,287.3s-.038,1.828-.076,2.284-1.371.457-1.523.228a14.833,14.833,0,0,1-.228-2.4" transform="translate(-202.061 -287.3)" fill="#f9b4ac"/>
      <path id="XMLID_30_" d="M201.86,292.69a5.371,5.371,0,0,0,.038,1.409,10.485,10.485,0,0,0,2.284.457,4.655,4.655,0,0,0,1.256.076c1.1-.152,1.828-.571,1.828-.761.114-.761-2.056-.571-3.541-2.17a.486.486,0,0,0-.267.228.771.771,0,0,1-.8.457,1.1,1.1,0,0,1-.571-.343S201.86,292.195,201.86,292.69Z" transform="translate(-201.835 -290.025)" fill="#594ea1"/>
    </g>
    <path id="XMLID_234_" d="M198.472,211.649c.3-3.922-1.066-16.181-1.18-17.247s-.876-1.18-1.447-1.371c-2.817-.838-6.206,3.541-5.292,7.5,0,.076.038.114.038.19.533,2.284,3.541,9.633,3.312,11.765-1.637,4.455.228,13.668.8,17.514h.19a11.917,11.917,0,0,0,2.208-.228S198.205,215.57,198.472,211.649Z" transform="translate(-177.037 -158.39)" fill="#b74f42"/>
    <g id="XMLID_233_" transform="translate(14.354 41.264)">
      <path id="XMLID_472_" d="M196.5,223.39c.114-1.447-1.371-12.945-1.713-12.793-.114.038-.19.19-.267.3a16.116,16.116,0,0,0-.838,1.6,13.926,13.926,0,0,0-.685,1.751c1.066,3.122,2.7,7.653,2.551,9.214-.99,2.627-.723,6.929-.228,10.813C195.132,229.139,196.427,224.532,196.5,223.39Z" transform="translate(-193 -210.596)" fill="#a13e36"/>
    </g>
    <path id="XMLID_232_" d="M180.424,183.818a13.855,13.855,0,0,1-3.236.228,21.916,21.916,0,0,1-6.168-1.447c-3.465,3.769-1.561,8.148-1.675,9.594s-.419,8.338-.723,12.145c-3.541,3.465-3.655,12.6-4.683,17.438,0,.038-.038.114-.038.152a11.99,11.99,0,0,0,2.322.647l.152-.381c1.066-3.16,5.9-12.26,7.082-15.838,1.1-3.236,3.922-13.021,3.96-13.021l3.617.609A66.757,66.757,0,0,0,180.424,183.818Z" transform="translate(-160.626 -151.995)" fill="#b74f42"/>
    <g id="Group_146" data-name="Group 146" transform="translate(11.684 1.571)">
      <g id="XMLID_967_">
        <path id="XMLID_231_" d="M185.992,110.4a4.734,4.734,0,0,0,.419,1.789c.419,1.18,1.028,2.361,1.066,2.551a2.309,2.309,0,0,1-.723,2.056l1.371,2.17.419.685.495-.267,1.523-.838.343-1.637a1.176,1.176,0,0,1-.228-.723v-.533c.152-.038.533-.076,1.218-.228a1.791,1.791,0,0,0,1.18-1.675c.038-.609.114-3.883.114-3.883.114-5.711-5.33-2.894-6.168-2.361C186.182,108,186.068,109.22,185.992,110.4Z" transform="translate(-185.987 -106.342)" fill="#f9b4ac"/>
      </g>
    </g>
    <path id="XMLID_230_" d="M176.4,157.7c.685.114,1.333.228,1.98.3a32.464,32.464,0,0,0,10.737-.381,79.071,79.071,0,0,1-.038-9.061c.228-4.226.876-8.871-.19-12.488-.419-1.409-2.4-2.094-3.96-2.322-1.294,2.284-4.074-.152-4.074-.152a14.034,14.034,0,0,0-2.817,1.9,1.626,1.626,0,0,0-.3.723,17.939,17.939,0,0,0-.228,3.16c-.038,1.98.038,3.96,0,4.036-.038.038-.076,1.18-.114,2.779v.267C177.314,148.944,176.743,155.53,176.4,157.7Z" transform="translate(-168.367 -121.651)" fill="#fff"/>
    <g id="Group_147" data-name="Group 147" transform="translate(13.669 11.226)">
      <rect id="XMLID_229_" width="13.326" height="12.374" transform="translate(1.97 1.602) rotate(-4.478)" fill="#f0a351"/>
      <rect id="XMLID_228_" width="1.485" height="12.374" transform="translate(2.909 13.931) rotate(175.522)" fill="#e88b37"/>
      <rect id="XMLID_227_" width="13.326" height="1.904" transform="translate(1.96 1.625) rotate(-4.478)" fill="#f0a351" opacity="0.5"/>
      <rect id="XMLID_226_" width="1.485" height="1.904" transform="translate(2.107 3.536) rotate(175.523)" fill="#f0a351" opacity="0.5"/>
      <rect id="XMLID_225_" width="13.63" height="1.904" transform="translate(1.924 1.064) rotate(-4.478)" fill="#f0a351"/>
      <rect id="XMLID_224_" width="1.904" height="1.904" transform="translate(2.046 2.932) rotate(175.523)" fill="#e88b37"/>
    </g>
    <g id="Group_148" data-name="Group 148" transform="translate(20.592 14.767)" opacity="0.3">
      <path id="XMLID_223_" d="M211.9,142.895a.606.606,0,0,1-.114-.495h0l-.685.076-.685.076h0a.649.649,0,0,1,0,.533,2.954,2.954,0,0,1-.609.914h0a1.434,1.434,0,0,0-.419,1.142l.419,4.531a.555.555,0,0,0,.609.495l2.894-.267a.555.555,0,0,0,.495-.609l-.419-4.531a1.33,1.33,0,0,0-.647-1.028h0A2.913,2.913,0,0,1,211.9,142.895Z" transform="translate(-209.385 -141.867)" fill="#fff"/>
      <path id="XMLID_222_" d="M212.913,141.609l-1.371.114a.308.308,0,0,1-.343-.267h0a.308.308,0,0,1,.267-.343l1.371-.114a.308.308,0,0,1,.343.267h0A.267.267,0,0,1,212.913,141.609Z" transform="translate(-210.509 -141)" fill="#fff"/>
    </g>
    <g id="Group_149" data-name="Group 149" transform="translate(9.29 16.747)">
      <path id="XMLID_221_" d="M179.7,148.9a22.091,22.091,0,0,0,4.226,4.8,4.218,4.218,0,0,0,2.627,1.294c2.894-.228,7.957-2.627,9.709-3.541-.419-1.218-.723-1.409-.723-1.409s-5.521,1.028-8.681,1.9a27.13,27.13,0,0,1-3.541-5.749" transform="translate(-179.7 -146.2)" fill="#f9b4ac"/>
      <path id="XMLID_220_" d="M220.9,152.994a3.532,3.532,0,0,0,1.371-.685c.457-.419,1.447-1.409,2.284-1.409a1.6,1.6,0,0,1,1.142,1.028c.533,1.218.152,1.9-.076,2.056-.114-.343-.343-.723-.838-.533s-.609.495-.99.8c-.609.495-1.6,0-2.056.114C221.395,154.479,220.9,152.994,220.9,152.994Z" transform="translate(-205.214 -149.111)" fill="#f9b4ac"/>
    </g>
    <path id="XMLID_219_" d="M181.3,137.765a16.755,16.755,0,0,0,1.333,3.579s-.647,1.675-3.465,3.16a7.229,7.229,0,0,1-2.894-6.016c.152-1.9,2.475-3.465,4.036-4.188" transform="translate(-168.279 -122.084)" fill="#fff"/>
    <path id="XMLID_218_" d="M190.833,146.979l-.19-.571c-.114-.343-.3-.761-.457-1.218-.076-.228-.19-.457-.267-.647s-.152-.419-.228-.571c-.038-.152-.114-.3-.152-.419a.6.6,0,0,1-.038-.152,3.45,3.45,0,0,0,.076.609,6.578,6.578,0,0,0,.381,1.256,8.6,8.6,0,0,0,.571,1.18A2.646,2.646,0,0,0,190.833,146.979Z" transform="translate(-176.479 -127.72)" fill="#010101" opacity="0.08"/>
    <g id="XMLID_217_" transform="translate(10.775)">
      <path id="XMLID_16_" d="M190.034,106.626c1.142-.038,2.779,0,3.008-1.447.533-3.693-3.35-3.236-5.1-2.322a6.7,6.7,0,0,1-1.675.571c-1.98.533-2.627,2.132-2.665,3.96,0,0,.038,3.883,2.7,4.759a7.431,7.431,0,0,0,.19-1.713,2.182,2.182,0,0,1-1.294-1.447.621.621,0,0,1,.8-.723c.533.076.571.8.571.8a6.67,6.67,0,0,0,.267-1.409,1.253,1.253,0,0,0-.228-.723A12.878,12.878,0,0,1,190.034,106.626Z" transform="translate(-183.6 -102.215)" fill="#0c3151"/>
    </g>
    <path id="XMLID_216_" d="M193.5,130.1a4.079,4.079,0,0,0,1.828.609v-.343A5.933,5.933,0,0,1,193.5,130.1Z" transform="translate(-178.956 -119.483)" fill="#f7a39c"/>
    <path id="XMLID_215_" d="M230.27,161.423a.462.462,0,0,0-.609.19c-.228.381-.152,1.371-.419,1.447-.3.038-1.142.076-1.142.076a6.107,6.107,0,0,0,1.675.343C230.841,163.479,230.765,161.994,230.27,161.423Z" transform="translate(-200.383 -138.851)" fill="#f9b4ac"/>
    <path id="XMLID_214_" d="M193.547,121.3a8,8,0,0,1-.647,2.475s1.98,1.409,3.465.838c1.523-.571,1.028-3.2,1.028-3.2A32.328,32.328,0,0,1,193.547,121.3Z" transform="translate(-178.584 -114.034)" fill="#fff"/>
    <path id="XMLID_213_" d="M190.737,124.146A5.392,5.392,0,0,1,189.1,121.9" transform="translate(-176.231 -114.405)" fill="none" stroke="#fff" stroke-miterlimit="10" stroke-width="0.575"/>
    <path id="XMLID_212_" d="M190.6,119.3a3.13,3.13,0,0,0,1.942.876" transform="translate(-177.16 -112.795)" fill="none" stroke="#fff" stroke-miterlimit="10" stroke-width="0.575"/>
    <path id="XMLID_211_" d="M189.17,118.95s.114-.914-.723-.952-.761.838-.343,1.447.952.876,1.066.761C189.284,120.168,189.17,119.178,189.17,118.95Z" transform="translate(-175.425 -111.988)" fill="#f9b4ac"/>
  </g>
  <g id="Group_156" data-name="Group 156" transform="translate(95.607 35.867)">
    <g id="XMLID_210_" transform="translate(16.866 3.309)">
      <path id="XMLID_53_" d="M300.021,113.095c-.685,1.18-.076,2.817-.8,4-.267.457-.761.838-.876,1.371a1.3,1.3,0,0,0,.419,1.256,1.234,1.234,0,0,0,1.294.114.806.806,0,0,1,.267-.114c.343-.114.647.19.952.419a1.5,1.5,0,0,0,1.256.228,1.813,1.813,0,0,0,1.028-1.256,7.8,7.8,0,0,0-.3-4.645,2.621,2.621,0,0,0-1.294-1.866" transform="translate(-298.313 -112.6)" fill="#222c54"/>
    </g>
    <path id="XMLID_208_" d="M286.2,143.38c.647-.228,3.541-6.244,4.493-8.072a2.777,2.777,0,0,1,1.6-1.409c1.18.647,1.294,2.094.952,3.35-1.447,5.216-5.9,9.4-6.549,9.4A17.353,17.353,0,0,0,286.2,143.38Z" transform="translate(-273.946 -122.482)" fill="#f8aba5"/>
    <path id="XMLID_207_" d="M258.235,151a10.237,10.237,0,0,1-3.5-1.142c-.838-.457-.876-1.066-.457-1.18a6.737,6.737,0,0,1,1.637.457c.419.152.761.19.8.076s-.076-.152-.571-.381-.723-.495-.267-.533a3.388,3.388,0,0,1,1.447.457c.419.19,2.17,1.256,3.084,1.6.914.381,2.817.8,3.769,1.066a8.462,8.462,0,0,1,2.094.876,17.351,17.351,0,0,1,.495,3.274,24,24,0,0,1-3.312-1.561C260.862,152.559,259.034,151.036,258.235,151Z" transform="translate(-254.014 -131.394)" fill="#f8aba5"/>
    <g id="XMLID_206_" transform="translate(14.31 11.266)">
      <path id="XMLID_51_" d="M295.978,133.5a3.681,3.681,0,0,0-2.513,1.98,7.2,7.2,0,0,0-.343.8c-.457,1.142-1.066,2.17-1.523,3.35a6.732,6.732,0,0,0,1.98.952,4.362,4.362,0,0,0,1.866.267.717.717,0,0,0,.3-.076,2.093,2.093,0,0,0,.343-.267l.571-.685a2.23,2.23,0,0,0,.381-.647,2.36,2.36,0,0,0-.076-1.028" transform="translate(-291.6 -133.5)" fill="#fff"/>
    </g>
    <g id="XMLID_205_" transform="translate(15.414 14.264)" opacity="0.08">
      <path id="XMLID_456_" d="M296.632,141.5c.038-.038.076-.114.152-.114a.28.28,0,0,1,.3.152.566.566,0,0,1,.076.343,4.311,4.311,0,0,1-.228,1.371l.152,2.437h0a4.019,4.019,0,0,1-1.751-.267c-.267-.114-.533-.19-.838-.3A9.484,9.484,0,0,1,296.632,141.5Z" transform="translate(-294.5 -141.374)" fill="#010101"/>
    </g>
    <path id="XMLID_204_" d="M308.08,126.395s.038,1.523-.19,1.6a6.567,6.567,0,0,1-.99.3v3.122l4.188-.647,2.894-1.6s-3.008-.99-3.008-1.294c-.038-.3.152-1.98.152-1.98" transform="translate(-286.764 -117.528)" fill="#f9b8b0"/>
    <g id="Group_151" data-name="Group 151" transform="translate(20.935 31.382)">
      <path id="XMLID_203_" d="M318.776,236.677h0c1.142,5.444.609,12.907.838,16.981-.076,0-1.561.19-1.561.19s-3.541-17.209-4.188-20.521a4.238,4.238,0,0,1-.076-.647c-.152-2.475,2.094-2.589,3.35-.571a10.051,10.051,0,0,1,.571,1.1,2.642,2.642,0,0,1,.19.495h0q.286.8.571,1.713v.076a2.806,2.806,0,0,0,.152.533v.038A4.729,4.729,0,0,1,318.776,236.677Z" transform="translate(-311.961 -213.808)" fill="#f9b8b0"/>
      <path id="XMLID_202_" d="M309.114,189.748c.038.457.267,2.589.571,5.1.228,2.132.533,4.493.723,6.4.152,1.409.266,2.551.3,3.084q.057.514.114.914h0c.533,2.475,2.246,2.627,3.274,2.056a3.294,3.294,0,0,0,.381-.267,1.535,1.535,0,0,0,.457-.723h0c.076-.495.114-1.218.19-2.018h0c.114-1.6.228-3.693.343-5.711.114-2.475.19-4.873.19-6.206v-.228c0-4.112-3.769-6.777-6.13-5.483-.038,0-.038.038-.076.038a.118.118,0,0,1-.076.038c-.267.19-.343.8-.381,1.485C309.038,188.682,309.076,189.253,309.114,189.748Z" transform="translate(-309 -186.335)" fill="#f9b8b0"/>
      <path id="XMLID_201_" d="M323.719,234.466l.3-1.066h0a18.139,18.139,0,0,0,.343,3.769v.076a3.9,3.9,0,0,0,.152.533v.038a2.832,2.832,0,0,1,.114.571h0c0,.495-1.028-1.675-1.294-2.208a.3.3,0,0,1-.038-.114l.267-1.142Z" transform="translate(-317.855 -215.481)" fill="#f9b8b0"/>
    </g>
    <g id="Group_152" data-name="Group 152" transform="translate(14.805 31.114)">
      <path id="XMLID_200_" d="M296.807,237.908h0c.114,5.711-1.637,12.374-2.094,16.486-.038,0-1.447-.19-1.447-.19S293,236.8,293,233.377a3.482,3.482,0,0,1,.038-.647c.267-2.513,2.322-2.094,3.084.267q.171.571.343,1.256c.038.19.076.343.114.533h0a14.043,14.043,0,0,1,.19,1.866v.076c0,.19.038.381.038.571v.609Z" transform="translate(-292.962 -213.743)" fill="#f9b8b0"/>
      <path id="XMLID_199_" d="M295.565,207.474a1.192,1.192,0,0,0,.381-.19,1.161,1.161,0,0,0,.533-.609h0c.152-.495.343-1.18.533-1.98h0v-.038c.381-1.561.838-3.617,1.256-5.6.533-2.437.99-4.8,1.218-6.13,0-.076.228-1.066.228-1.1.723-4.15-2.513-6.853-4.873-6.054a.133.133,0,0,0-.076.038c-.457.19-.609,1.866-.723,2.97-.114,1.142-.914,12.793-1.1,14.887a8.278,8.278,0,0,0-.038.952C293.014,207.207,294.537,207.778,295.565,207.474Z" transform="translate(-292.9 -185.632)" fill="#f9b8b0"/>
      <path id="XMLID_198_" d="M301.509,236.69l.457-.99h0a18.422,18.422,0,0,0-.3,3.845v.076a2.883,2.883,0,0,0,.038.571v.038a1.316,1.316,0,0,1,0,.571h0c-.076.495-.647-1.942-.761-2.513a.167.167,0,0,0-.038-.114l.457-1.066Z" transform="translate(-297.854 -216.637)" fill="#f9b8b0"/>
    </g>
    <path id="XMLID_197_" d="M304.922,173.481s2.513,3.922,2.208,7.843c-.114,1.637-.343,3.046-.533,4.683-.038.228-.381,3.655-.3,3.655a19.987,19.987,0,0,1-12.336-.609,38.8,38.8,0,0,1,2.779-15.953A55.914,55.914,0,0,0,304.922,173.481Z" transform="translate(-278.732 -146.757)" fill="#b74f42"/>
    <path id="XMLID_196_" d="M296.4,139.134a4.082,4.082,0,0,0,1.447,2.7,29.242,29.242,0,0,1,.457,4.264c.038.838-.495,1.828-.19,1.9,1.218,1.066,6.32,1.409,8.338-.038a26.53,26.53,0,0,1,.609-7.653,6.356,6.356,0,0,1,.228-.761c.495-1.523,1.409-5.863.8-6.168-.152-.076-.381-.571-.647-.647-1.066-.3-2.589-.838-2.589-.838s-.914,2.7-3.274,3.008c-1.294-.533-1.18-2.17-1.18-2.932-.419.114-.609.228-1.9.609-.381.533-.038,1.637-.647,3.274C297.693,136.355,296.361,137.763,296.4,139.134Z" transform="translate(-280.261 -121.243)" fill="#fff"/>
    <path id="XMLID_195_" d="M303.2,112.395a26.984,26.984,0,0,0,.533,5.1c.343,1.028,1.409.914,2.551.914,3.16,0,3.731-4.3,3.693-4.493a48.99,48.99,0,0,0-4.645-2.018Z" transform="translate(-284.473 -108.858)" fill="#f9b8b0"/>
    <path id="XMLID_194_" d="M301.1,186.8" transform="translate(-283.173 -155.241)" fill="#f2f2f2"/>
    <g id="Group_153" data-name="Group 153" transform="translate(11.091 71.384)">
      <path id="XMLID_193_" d="M283.7,293.456a19.6,19.6,0,0,0,3.122-.038c.457.076,1.6.381,2.056-.038.419-.381.381-1.751-.152-1.942a2.8,2.8,0,0,1-.3.076,3.589,3.589,0,0,1-1.485-.114,7.384,7.384,0,0,1-2.056.762,9.8,9.8,0,0,0-1.371.419C283.014,292.809,282.976,293.3,283.7,293.456Z" transform="translate(-283.145 -291.4)" fill="#564da0"/>
    </g>
    <g id="Group_154" data-name="Group 154" transform="translate(23.948 70.432)">
      <path id="XMLID_192_" d="M318.051,292.441a21.216,21.216,0,0,0,2.589-.99c.457-.076,1.6-.3,1.713-.761.076-.343-.266-1.789-.8-1.789a1.508,1.508,0,0,1-.267.19,3.359,3.359,0,0,1-1.447.381,6.723,6.723,0,0,1-1.675,1.409,7.411,7.411,0,0,0-1.142.838C316.642,292.1,317.328,292.555,318.051,292.441Z" transform="translate(-316.914 -288.9)" fill="#564da0"/>
    </g>
    <g id="Group_155" data-name="Group 155" transform="translate(19.298 11.532)">
      <path id="XMLID_191_" d="M312.315,140.777c-2.094,1.6-6.206,6.663-7.5,6.929H304.7v-3.655l.076-.114s3.427-4.531,4.34-5.977c1.028-1.561,1.98-2.894,3.465-3.16C312.962,135.066,312.505,140.663,312.315,140.777Z" transform="translate(-304.7 -134.572)" fill="#f9b8b0"/>
      <path id="XMLID_190_" d="M316.868,134.2a3.029,3.029,0,0,0-1.561.533c-.609.495-3.807,5.216-3.807,5.216a3.237,3.237,0,0,0,1.028,1.561,4.209,4.209,0,0,0,2.132.914,17.9,17.9,0,0,0,2.284-2.132C320.219,136.218,316.868,134.2,316.868,134.2Z" transform="translate(-308.911 -134.2)" fill="#fff"/>
    </g>
    <g id="XMLID_189_" transform="translate(17.539)">
      <path id="XMLID_454_" d="M309.683,115.29a.832.832,0,0,0,.19-.114,1.976,1.976,0,0,0,.838-.838,2.667,2.667,0,0,0,0-2.094c-.19-.381-.609-.647-.876-.99a2.742,2.742,0,0,1-.495-1.713,14.721,14.721,0,0,0-.114-1.828,4.535,4.535,0,0,0-1.294-2.665c-1.256-1.066-3.769-1.675-5.14-.495-.267.228-.3.381-.647.419a2.359,2.359,0,0,0-1.142.343c-.457.267-.99.609-.914,1.218a1.976,1.976,0,0,0,.876,1.256,1.054,1.054,0,0,0,.495.114c.533,0,.99-.343,1.485-.267a.888.888,0,0,1,.647.381c.19.228.152.571.381.761.343.343.914.3,1.333.533a.38.38,0,0,1,.19.152.483.483,0,0,1,.038.228,3.482,3.482,0,0,0,.038.647c.19-.076.228-.381.419-.533a.467.467,0,0,1,.609.038,1.657,1.657,0,0,1,.3.571,1.944,1.944,0,0,1-.114.8c-.152.457-.533.838-.838.571-.228.343.038.876.038,1.256,0,.3,0,.876-.267,1.1-.267.19-.647.038-.685.495a.9.9,0,0,0,.838.8,3.655,3.655,0,0,0,1.256-.228,2.035,2.035,0,0,1,1.256-.076,5.391,5.391,0,0,0,.685.3A.915.915,0,0,0,309.683,115.29Z" transform="translate(-300.081 -103.91)" fill="#222c54"/>
    </g>
    <path id="XMLID_188_" d="M277.929,144.708a4.484,4.484,0,0,1-2.094-1.066c-.723-.647-.571-1.447-.343-1.561s1.218.647,1.675.876c.419.19.952.533,1.028.419s-.076-.114-.495-.457-.571-.647-.114-.571a3.184,3.184,0,0,1,1.371.723c.343.3,1.294,1.371,2.094,1.98.8.571,3.845,2.322,3.845,2.322a10.587,10.587,0,0,1,1.789,1.371s.076,3.427-.152,3.5c-.571.152-3.693-3.236-5.825-5.292A9.689,9.689,0,0,0,277.929,144.708Z" transform="translate(-267.197 -127.541)" fill="#f9b8b0"/>
    <path id="XMLID_187_" d="M303.7,121.59a5.733,5.733,0,0,0,3.465-.19,7.49,7.49,0,0,0,.3,1.675,2.587,2.587,0,0,1-2.284,1.18C303.583,124.255,303.7,121.59,303.7,121.59Z" transform="translate(-284.78 -114.741)" fill="#fff"/>
    <path id="XMLID_186_" d="M312.7,120.523a5.886,5.886,0,0,0,1.066-.723" transform="translate(-290.356 -113.75)" fill="none" stroke="#fff" stroke-miterlimit="10" stroke-width="0.557"/>
    <path id="XMLID_185_" d="M313.3,124.947a9.273,9.273,0,0,0,1.028-.647" transform="translate(-290.728 -116.537)" fill="none" stroke="#fff" stroke-miterlimit="10" stroke-width="0.557"/>
    <path id="XMLID_184_" d="M314.827,119.5a.937.937,0,0,1,.495-.761c.457-.19.723.381.723.876s-.343,1.523-.876,1.409C314.6,120.909,314.827,119.5,314.827,119.5Z" transform="translate(-291.645 -113.07)" fill="#f9b8b0"/>
  </g>
  <g id="Group_161" data-name="Group 161" transform="translate(147.496 38.362)">
    <ellipse id="XMLID_183_" cx="17.095" cy="2.018" rx="17.095" ry="2.018" transform="translate(0 70.221)" fill="#efd2bc"/>
    <path id="XMLID_182_" d="M452.293,286.76c-.228.571-1.028.8-2.246,1.218s-3.2,1.333-4.112,1.637c-.952.3-1.18-.381-.761-.685a10.029,10.029,0,0,0,1.561-1.561c.495-.571,1.713-1.751,1.751-2.094v-.228a3,3,0,0,0-.228-.838l1.028-.457,1.142-.152s.19.3.457.685a4.959,4.959,0,0,0,.381.571C451.76,285.58,452.407,286.455,452.293,286.76Z" transform="translate(-424.157 -217.681)" fill="#f9ab86"/>
    <path id="XMLID_181_" d="M409.134,291.883c-.419.457-1.218.381-2.513.343-1.294,0-3.465.19-4.455.114-.99-.038-.99-.761-.495-.914a14.73,14.73,0,0,0,2.018-.914c.647-.381,2.361-1.066,2.437-1.371a5.5,5.5,0,0,0,0-1.142h1.18l1.066.038s.114.495.266,1.1c.038.19.114.381.152.571C409.019,290.627,409.362,291.655,409.134,291.883Z" transform="translate(-397.14 -220.406)" fill="#f9ab86"/>
    <path id="XMLID_180_" d="M440.85,253.651a10.294,10.294,0,0,1-2.437.8c-.152-.3-.3-.609-.457-.952L429.2,236.442l5.444-1.142a2.979,2.979,0,0,0,.381,1.18,32.6,32.6,0,0,1,3.312,6.815C440.241,248.245,440.2,251.177,440.85,253.651Z" transform="translate(-414.389 -187.771)" fill="#35498d"/>
    <path id="XMLID_179_" d="M416,188.09s3.389,12.716,5.026,18.5a11.435,11.435,0,0,0,5.444-1.142,36.461,36.461,0,0,1-.152-5.6c.076-1.751.571-3.96.533-5.825-.038-3.122-.3-5.6-1.1-6.929Z" transform="translate(-406.215 -157.922)" fill="#35498d"/>
    <path id="XMLID_178_" d="M412.264,201.225c1.828-4.493,3.845-8.947,5.026-13.706l-9.1-.419a113.317,113.317,0,0,0-2.627,17.133,5.913,5.913,0,0,0,.076,1.637l2.855,18.009c.076.647.152,1.256.228,1.789a4.52,4.52,0,0,0,2.361-.038v-.419c.114-2.627,1.294-5.444,1.028-10.889a33.27,33.27,0,0,0-1.1-7.729,4.824,4.824,0,0,1-.076-1.409A16.732,16.732,0,0,1,412.264,201.225Z" transform="translate(-399.738 -157.922)" fill="#35498d"/>
    <path id="XMLID_177_" d="M423.207,177.951s-10.051,2.094-12.907-.495c.457-2.094,1.066-3.389,1.6-5.787a12.034,12.034,0,0,0,.152-4.226l8.6-.343a14.459,14.459,0,0,0,.114,1.751,12.814,12.814,0,0,0,.952,3.465A19.4,19.4,0,0,1,423.207,177.951Z" transform="translate(-402.685 -145.537)" fill="#fff"/>
    <path id="XMLID_176_" d="M423.546,146.053s-1.218,4.3-.99,5.825c0,0-3.2,1.18-8.719.038,0,0-.152-4.988-.838-6.168a8.11,8.11,0,0,0,.267-1.18c.533.19.914,0,.952-.952.076-3.389-.3-3.769-.3-3.769l3.16-.647,3.274.076s1.751.495,3.579,1.218C423.927,140.495,422.785,143.845,423.546,146.053Z" transform="translate(-404.357 -128.259)" fill="#fff"/>
    <path id="XMLID_175_" d="M411.766,140.9s-1.9.381-2.208,3.084c-.19,1.942.723,9.366.723,9.366a3.866,3.866,0,0,0,1.447-1.9c.343-1.18,0-3.2.114-4.074a23.278,23.278,0,0,0,.3-3.312C412.147,143.108,412.185,141.2,411.766,140.9Z" transform="translate(-402.209 -129.312)" fill="#fff"/>
    <path id="XMLID_174_" d="M442.26,155.5a12.107,12.107,0,0,0,.19-3.845c-.152-1.447-.495-3.427-.952-6.4-.419-2.932-2.361-3.16-2.361-3.16-1.789,2.665.076,5.749.076,5.749l.152,6.663C439.4,154.512,441.422,153.941,442.26,155.5Z" transform="translate(-420.063 -130.055)" fill="#f9ab86"/>
    <path id="XMLID_173_" d="M437.712,148.687a6.785,6.785,0,0,0,4.074-.152s-.19-1.028-.419-2.284c-.267-1.637-.838-3.617-2.741-4.15a2.937,2.937,0,0,0-1.028,1.751A34.151,34.151,0,0,0,437.712,148.687Z" transform="translate(-419.551 -130.055)" fill="#fff"/>
    <g id="Group_157" data-name="Group 157" transform="translate(6.434 13.721)">
      <rect id="XMLID_172_" width="12.678" height="11.765" transform="matrix(0.992, 0.124, -0.124, 0.992, 1.454, 0.559)" fill="#e88b37"/>
      <rect id="XMLID_171_" width="12.678" height="1.828" transform="matrix(0.992, 0.124, -0.124, 0.992, 1.45, 0.559)" fill="#f0a351" opacity="0.5"/>
      <rect id="XMLID_170_" width="13.097" height="1.789" transform="matrix(0.992, 0.124, -0.124, 0.992, 1.375, 0)" fill="#e88b37"/>
    </g>
    <g id="Group_158" data-name="Group 158" transform="translate(9.823 18.213)" opacity="0.6">
      <circle id="XMLID_169_" cx="3.084" cy="3.084" r="3.084" fill="#fdd8c0"/>
      <circle id="XMLID_168_" cx="1.028" cy="1.028" r="1.028" transform="translate(2.056 2.056)" fill="#fdccaa"/>
      <path id="XMLID_167_" d="M425.6,158.4a4.578,4.578,0,0,1,2.475,1.218,8.575,8.575,0,0,1,1.9,2.855s-.114.228-.99.419a4.219,4.219,0,0,1-1.789-.076S428.874,159.314,425.6,158.4Z" transform="translate(-421.983 -158.362)" fill="#fdccaa"/>
    </g>
    <path id="XMLID_166_" d="M411.313,151.7a2.3,2.3,0,0,1-1.028.838,2.22,2.22,0,0,1-.571.952c-.076.038-.114.152-.114.3l.457-3.617a1.971,1.971,0,0,1,.838.076A.866.866,0,0,1,411.313,151.7Z" transform="translate(-402.252 -135.047)" fill="#e88b37"/>
    <g id="Group_159" data-name="Group 159" transform="translate(5.131 14.965)">
      <path id="XMLID_165_" d="M407.935,151.3a3.063,3.063,0,0,1-1.256.952,2.22,2.22,0,0,1-.571.952c-.076.038-.114.152-.114.3v.114l-.761,6.092c-.609-.19-1.561-2.17-1.447-3.541s1.028-3.236,1.142-4.531c.076-1.294.038-1.447.571-1.6a4.267,4.267,0,0,1,2.056-.228C408.163,149.934,408.43,150.657,407.935,151.3Z" transform="translate(-403.775 -149.77)" fill="#f9ab86"/>
    </g>
    <g id="Group_160" data-name="Group 160" transform="translate(11.222)">
      <path id="XMLID_164_" d="M425.865,134.4s-.152,1.409.152,1.789c.495.228.952.381.952.381s-1.18,2.094-3.008,1.751c-1.447-.267-1.561-1.98-1.561-1.98s.571-.076.647-.19a3.339,3.339,0,0,0,0-.876Z" transform="translate(-421.4 -125.287)" fill="#f9ab86"/>
      <path id="XMLID_163_" d="M424.1,135.247a3.393,3.393,0,0,0,2.513-.647,3.093,3.093,0,0,1-2.513,1.637Z" transform="translate(-422.453 -125.41)" fill="#f69471"/>
      <g id="XMLID_162_" transform="translate(0 1.559)">
        <path id="XMLID_45_" d="M420.355,115.716c-.495.761-.19,1.6-.3,2.475-.076.609-.99,4.34.99,4.8a5.571,5.571,0,0,0,3.541-.761,4.306,4.306,0,0,0,1.751-3.122,3.958,3.958,0,0,0-.114-1.333,4.09,4.09,0,0,0-1.789-2.817,2.466,2.466,0,0,0-3.122.343" transform="translate(-419.774 -114.558)" fill="#f9ab86"/>
      </g>
      <g id="XMLID_161_" transform="translate(1.256 0.753)">
        <path id="XMLID_43_" d="M425.292,112.539c-.038-.114-.19-.114-.3-.076a2.6,2.6,0,0,0-1.751,1.561,1.64,1.64,0,0,0-.152.838.79.79,0,0,0,.228.381c1.18,1.295,3.236,1.1,4.3,2.551a4.9,4.9,0,0,0,.228-2.437,5,5,0,0,0-.8-2.018c-.3-.457-.723-.914-1.294-.8" transform="translate(-423.074 -112.44)" fill="#2c2f76"/>
      </g>
      <g id="XMLID_160_" transform="translate(2.121)">
        <path id="XMLID_41_" d="M428.412,115.122a1.547,1.547,0,0,1,.343,1.218,2.894,2.894,0,0,0-.19,1.256.133.133,0,0,0,.038.076c.114.076.267-.152.381-.114a.892.892,0,0,1-.038.761,4.125,4.125,0,0,0-.3.723v.114a.209.209,0,0,0,.19.114,2.066,2.066,0,0,0,1.371-.533,4.909,4.909,0,0,0,1.751-3.236,2.677,2.677,0,0,0-.038-1.1,1.369,1.369,0,0,0-.685-.838,1.992,1.992,0,0,0-.076-1.409,2.213,2.213,0,0,0-.647-.685c-1.256-.914-3.389-1.523-4.683-.381a1.673,1.673,0,0,0-.457.685,1.865,1.865,0,0,0,.685,1.561,14.79,14.79,0,0,0,1.827,1.637" transform="translate(-425.346 -110.464)" fill="#2c2f76"/>
      </g>
      <g id="XMLID_159_" transform="translate(0.108 0.93)">
        <path id="XMLID_36_" d="M422.7,112.98a2.023,2.023,0,0,0-2.246.876,4.738,4.738,0,0,0-.19,3.274,4.542,4.542,0,0,1,.571-1.98,4.42,4.42,0,0,1,1.675-1.333" transform="translate(-420.059 -112.907)" fill="#2c2f76"/>
      </g>
    </g>
    <path id="XMLID_158_" d="M419.761,127.5a10.327,10.327,0,0,0,3.693.876,10,10,0,0,0,.228,2.056,6.142,6.142,0,0,1-2.855.533C419.381,130.774,419.533,128.414,419.761,127.5Z" transform="translate(-408.454 -121.014)" fill="#fff"/>
    <path id="XMLID_157_" d="M429.6,129.419a4.807,4.807,0,0,0,1.751-.419" transform="translate(-414.637 -121.943)" fill="none" stroke="#fff" stroke-miterlimit="10" stroke-width="0.557"/>
    <path id="XMLID_156_" d="M429.8,133.8a3.866,3.866,0,0,0,1.675-.8" transform="translate(-414.761 -124.42)" fill="none" stroke="#fff" stroke-miterlimit="10" stroke-width="0.557"/>
    <g id="XMLID_155_" transform="translate(15.837 6.905)">
      <path id="XMLID_429_" d="M431.935,129.933c.228-.419.609-1.18.647-1.218a2.007,2.007,0,0,1,.457-.114.573.573,0,0,1,.419.152.768.768,0,0,1,.114.419,1.5,1.5,0,0,1-.838,1.218.689.689,0,0,1-.609.038c-.152-.076-.3-.343-.19-.495" transform="translate(-431.895 -128.6)" fill="#f9ab86"/>
    </g>
    <path id="XMLID_154_" d="M430.678,172.995c-.838-.609-2.018.038-2.551.457s-1.523,1.751-1.713,1.866a3.113,3.113,0,0,1-2.17.152h0a3.274,3.274,0,0,0-.609-.038,2.62,2.62,0,0,1-.495-.076,2.378,2.378,0,0,0-1.409-.114c-.495.3.685.647.685.647-1.827-.419-2.589-.343-2.246-.114a7.625,7.625,0,0,0,2.246.647,24.957,24.957,0,0,0,4.036.343,7.936,7.936,0,0,0,2.779-.533,2.691,2.691,0,0,0,1.789-2.17A1.044,1.044,0,0,0,430.678,172.995Z" transform="translate(-408.748 -149.033)" fill="#f9ab86"/>
    <path id="XMLID_153_" d="M409.134,293.741c-.419.457-1.218.381-2.513.343-1.294,0-3.465.19-4.455.114-.99-.038-.99-.761-.495-.914a14.726,14.726,0,0,0,2.018-.914c.647-.381,2.361-1.066,2.437-1.371a7.7,7.7,0,0,0,2.475,0,6.6,6.6,0,0,0,.381.723C409.4,292.828,409.362,293.513,409.134,293.741Z" transform="translate(-397.14 -222.264)" fill="#2d2d59"/>
    <path id="XMLID_152_" d="M452.293,287.937c-.228.571-1.028.8-2.246,1.218s-3.2,1.333-4.112,1.637c-.952.3-1.18-.381-.761-.685a10.032,10.032,0,0,0,1.561-1.561c.495-.571,1.713-1.751,1.751-2.094v-.228a3.248,3.248,0,0,0,2.361-.723c.114.19.457.457.609.647C452.217,286.947,452.407,287.632,452.293,287.937Z" transform="translate(-424.157 -218.858)" fill="#2d2d59"/>
    <path id="XMLID_151_" d="M438.4,112.918s1.447-1.866,2.97-1.294c2.094.8,2.665,5.1-1.98,4.607" transform="translate(-420.087 -111.114)" fill="#2c2f76"/>
  </g>
  <g id="Group_162" data-name="Group 162" transform="translate(72.187 73.289)">
    <rect id="XMLID_150_" width="61.488" height="46.602" transform="translate(4.416)" fill="#e88b37"/>
    <g id="XMLID_149_" transform="translate(7.524 21.7)">
      <text id="XMLID_237_" transform="translate(0 9)" fill="#f0a351" font-size="9" font-family="Montserrat-ExtraBold, Montserrat" font-weight="800"><tspan x="0" y="0">DONATE</tspan></text>
    </g>
    <rect id="XMLID_148_" width="6.663" height="4.607" transform="translate(54.978 39.101)" fill="#f0a351"/>
    <rect id="XMLID_147_" width="4.455" height="4.607" transform="translate(48.924 39.101)" fill="#f0a351"/>
    <rect id="XMLID_146_" width="16.105" height="46.602" transform="translate(65.905)" fill="#f0a351"/>
    <path id="XMLID_145_" d="M265.588,202.2l-2.665,13.973H204.1V210.31L212.743,207" transform="translate(-199.684 -202.2)" fill="#f0a351" opacity="0.5"/>
    <path id="XMLID_144_" d="M254.026,213.812H192.5l4.417-11.612H258.4Z" transform="translate(-192.5 -202.2)" fill="#f0a351"/>
    <path id="XMLID_143_" d="M381.705,205.208v10.965H369.179L365.6,202.2Z" transform="translate(-299.695 -202.2)" fill="#f0a351" opacity="0.5"/>
    <path id="XMLID_142_" d="M381.705,202.2H365.6l4.378,11.612h16.143Z" transform="translate(-299.695 -202.2)" fill="#f0a351"/>
  </g>
  <g id="Group_174" data-name="Group 174" transform="translate(15.191 60.954)">
    <g id="Group_163" data-name="Group 163" transform="translate(33.657 50.675)">
      <rect id="XMLID_140_" width="16.905" height="15.915" fill="#e88b37"/>
      <rect id="XMLID_139_" width="6.625" height="15.915" transform="translate(16.905)" fill="#f0a351"/>
      <rect id="XMLID_138_" width="1.828" height="1.256" transform="translate(7.539)" fill="#eaa157"/>
      <rect id="XMLID_137_" width="1.294" height="1.256" transform="translate(19.151)" fill="#fdc068"/>
    </g>
    <g id="Group_164" data-name="Group 164" transform="translate(35.484 34.76)">
      <rect id="XMLID_136_" width="13.592" height="15.915" fill="#e88b37"/>
      <rect id="XMLID_135_" width="5.33" height="15.915" transform="translate(13.592)" fill="#f0a351"/>
      <rect id="XMLID_134_" width="1.447" height="1.256" transform="translate(6.054)" fill="#eaa157"/>
      <rect id="XMLID_133_" width="1.066" height="1.256" transform="translate(15.382)" fill="#fdc068"/>
    </g>
    <g id="Group_165" data-name="Group 165" transform="translate(36.475 56.69)" opacity="0.3">
      <path id="XMLID_132_" d="M140.239,322.5a.745.745,0,0,1-.381-.038,1.364,1.364,0,0,0-.952,0c-.457.228-.381,1.256.114,1.675a3.286,3.286,0,0,0,1.294.571" transform="translate(-138.603 -320.972)" fill="none" stroke="#fff" stroke-miterlimit="10" stroke-width="0.617"/>
      <path id="XMLID_131_" d="M148.658,319.195a7.938,7.938,0,0,0-1.98-.495,7.938,7.938,0,0,0-1.98.495c-1.371.381-1.6.952-2.4.914l.152,2.323a6.77,6.77,0,0,0,4.226,1.1,6.9,6.9,0,0,0,4.226-1.1l.152-2.323C150.257,320.147,150.067,319.576,148.658,319.195Z" transform="translate(-140.892 -318.7)" fill="#fff"/>
      <path id="XMLID_130_" d="M164.576,322.5a.745.745,0,0,0,.381-.038,1.364,1.364,0,0,1,.952,0c.457.228.381,1.256-.114,1.675a3.286,3.286,0,0,1-1.294.571" transform="translate(-154.64 -320.972)" fill="none" stroke="#fff" stroke-miterlimit="10" stroke-width="0.617"/>
    </g>
    <path id="XMLID_129_" d="M109.15,260.066h-4.416a.545.545,0,0,1-.533-.533h0a.545.545,0,0,1,.533-.533h4.416a.545.545,0,0,1,.533.533h0A.572.572,0,0,1,109.15,260.066Z" transform="translate(-80.823 -225.039)" fill="#542f1f"/>
    <g id="Group_166" data-name="Group 166" transform="translate(26.423 34.151)">
      <path id="XMLID_128_" d="M145.4,292.51H117.683a1.365,1.365,0,0,1-1.371-1.371V260.414a.246.246,0,0,0-.228-.228h-3.541a.343.343,0,1,1,0-.685h3.541a.926.926,0,0,1,.914.914v30.725a.682.682,0,0,0,.685.685H145.4a.343.343,0,0,1,0,.685Z" transform="translate(-112.2 -259.5)" fill="#542f1f"/>
    </g>
    <g id="Group_170" data-name="Group 170" transform="translate(1.247)">
      <g id="Group_167" data-name="Group 167" transform="translate(15.847 65.447)">
        <path id="XMLID_127_" d="M90.061,341.7a27.932,27.932,0,0,1,0,3.122c-.114.457-1.9.533-2.056.3a20.913,20.913,0,0,1-.3-3.236" transform="translate(-87.7 -341.7)" fill="#f9b8b0"/>
      </g>
      <g id="Group_168" data-name="Group 168" transform="translate(0 63.582)">
        <path id="XMLID_126_" d="M49.017,338.742s-.838,1.561-1.028,2.018c-.228.419-2.056-.457-1.9-.723.457-.876,1.371-3.236,1.371-3.236" transform="translate(-46.076 -336.8)" fill="#f9b8b0"/>
      </g>
      <path id="XMLID_125_" d="M63.871,249.064l-2.094,8.072c-.267.914-.533,1.9-.838,2.856-.114.381-.228.761-.3,1.1-.228.876-.495,1.713-.723,2.513-.228.761-.419,1.485-.609,2.132-.114.457-.228,1.485-.419,2.17a7.582,7.582,0,0,1-.685,1.561c-1.333,2.17-8.452,13.554-9.366,15A8.776,8.776,0,0,1,46.7,283.33c1.333-3.2,2.513-9.328,4.911-12.907.267-.381,1.447-1.98,1.751-2.322a91.318,91.318,0,0,0,1.713-11.688,10.021,10.021,0,0,0-.114-2.132h0c-.3-1.523-.761-4.569,1.675-6.967a.167.167,0,0,1,.19-.038,19.11,19.11,0,0,0,5.254,1.447l1.675.114C63.833,248.873,63.909,248.988,63.871,249.064Z" transform="translate(-46.463 -217.768)" fill="#35498d"/>
      <path id="XMLID_124_" d="M77.7,275.278c-.228.876-.495,1.713-.723,2.513-.228.761-.419,1.485-.609,2.132L74.2,270.1l1.98,2.208Z" transform="translate(-63.492 -231.913)" fill="#2a3f7c"/>
      <path id="XMLID_123_" d="M70.542,257.856a4.2,4.2,0,0,1-1.942-2.589s7.615-5.559,9.366-5.026c.495.152,1.713,17.057,1.713,17.361v2.246c-.114,2.817-1.371,16.79-1.371,16.79a13.042,13.042,0,0,1-2.665.038c-.381-3.541-1.789-10.318-.609-16.524a8.946,8.946,0,0,0-.419-2.17c-1.142-2.932-3.274-8.262-4-10.051C70.618,257.894,70.58,257.894,70.542,257.856Z" transform="translate(-60.025 -219.593)" fill="#35498d"/>
      <path id="XMLID_122_" d="M65.638,206.213c0,.876.076,1.789.114,2.627.076,1.066.19,2.894.267,3.807a27.718,27.718,0,0,1-.419,6.815c.152.076.99.19,1.751.419,3.845,1.142,9.442-.609,9.442-.609-.038-.419-.457-4.188-.457-4.531,0-.3-.076-1.371-.267-2.855q-.114-.8-.228-1.713c-.076-.533-.152-1.066-.228-1.637-.114-.647-.19-1.294-.267-1.9-.076-.685-.19-1.371-.267-2.056a28.935,28.935,0,0,0-.685-3.35,12.283,12.283,0,0,0-.952-2.475c-1.066-2.018-3.693-2.513-4.112-2.551a.14.14,0,0,0-.114.038c-1.9,1.256-2.855,3.465-3.312,5.939A27.639,27.639,0,0,0,65.638,206.213Z" transform="translate(-58.167 -186.149)" fill="#fff"/>
      <path id="XMLID_121_" d="M75.593,208.241c-.076,2.094.838,7.957,3.769,10.661l.038.038a5.014,5.014,0,0,0,2.741.3c.076,0,.152-.114.152-.19-.114-.914-.267-1.98-.419-3.122,0-.038,0-.038-.038-.076l-5.9-7.691A.19.19,0,0,0,75.593,208.241Z" transform="translate(-64.352 -193.507)" fill="#010101" opacity="0.08"/>
      <g id="Group_169" data-name="Group 169" transform="translate(11.668 13.253)">
        <path id="XMLID_120_" d="M76.79,207.386a4.965,4.965,0,0,1,0-1.561c.152-1.523,1.789-1.256,2.094-1.066.343.19,1.18.876,2.132,3.693.647,1.942,1.028,3.427,1.294,4.378.076.267.19.609.267.914l-2.208,3.008a16.3,16.3,0,0,1-2.855-5.33A21.166,21.166,0,0,1,76.79,207.386Z" transform="translate(-76.722 -204.611)" fill="#f9b8b0"/>
        <path id="XMLID_119_" d="M87.678,229.755c.838,1.256,3.883,6.168,5.292,7.919l-1.218.952c-.038-.076-2.475-2.361-4-3.883a30.52,30.52,0,0,1-3.883-4.873,9.09,9.09,0,0,1-.571-1.409l3.122-1.561A11.37,11.37,0,0,0,87.678,229.755Z" transform="translate(-80.796 -218.414)" fill="#f9b8b0"/>
      </g>
      <path id="XMLID_118_" d="M83,176.405a25.848,25.848,0,0,1-1.028,3.769,9.493,9.493,0,0,1-.723,1.523c-.419.647-.685.914-1.294.914h0a6.713,6.713,0,0,1-1.256-.19c-.3-.076-.343.114-.381.19a2.58,2.58,0,0,0-.19,1.1,5.443,5.443,0,0,1-2.855-.8h0a1.368,1.368,0,0,1-.267-.381c.571-.495.533-2.056.533-2.056h0a3.287,3.287,0,0,1-.381-1.98,8.316,8.316,0,0,1,2.094-4.3c.114-.038,3.541.571,3.693.609.114.038,1.6,1.1,1.98,1.371A.322.322,0,0,1,83,176.405Z" transform="translate(-63.988 -172.523)" fill="#f9b8b0"/>
      <path id="XMLID_117_" d="M79.675,207.75c-.609.723-3.769,1.828-4.759,1.866-.571-1.485-2.817-7.5.19-8.224C77.848,200.745,78.876,204.971,79.675,207.75Z" transform="translate(-63.104 -189.323)" fill="#fff"/>
      <path id="XMLID_116_" d="M82.529,174.6c-1.256.723-4.112-.114-4.645.228-.533.3-.723,1.6-.952,1.637-.267.038-.19-.343-.152-.838.038-.457-.3-1.371-1.028-.99-.876.457-.267,1.294-.533,2.132a3.024,3.024,0,0,1-.495,1.066.161.161,0,0,1-.267-.038,6.011,6.011,0,0,1-.647-4.34c.267-1.751,1.218-3.16,3.16-3.16.038,0,.076-.038.114-.038C82.376,168.278,82.947,173.3,82.529,174.6Z" transform="translate(-63.14 -169.802)" fill="#2c1f56"/>
    </g>
    <path id="XMLID_115_" d="M87.271,348.538a3.765,3.765,0,0,0-.419,1.028,2.818,2.818,0,0,0-.038,1.256.577.577,0,0,0,.571.495h6.206a.615.615,0,0,0,.533-.914,1.191,1.191,0,0,0-.723-.457c-1.218-.343-2.4-.723-2.741-.876-.495-.267-1.1-.571-1.1-.571A4.148,4.148,0,0,1,87.271,348.538Z" transform="translate(-70.023 -280.464)" fill="#2d2d59"/>
    <path id="XMLID_114_" d="M49.082,348.393a.7.7,0,0,1-.647.419H46.379a1.922,1.922,0,0,1-1.1-.419,3.133,3.133,0,0,0-1.1-.761,3.168,3.168,0,0,1-1.142-.838.662.662,0,0,1-.228-.419,2.856,2.856,0,0,1,1.294-1.675c1.294,1.1,1.828.876,1.828.876a3.694,3.694,0,0,0,.99,1.028c.343.267,1.066.761,1.447.99C49.158,347.974,49.2,348.089,49.082,348.393Z" transform="translate(-42.8 -278.11)" fill="#2d2d59"/>
    <path id="XMLID_113_" d="M107.9,255.994a.955.955,0,0,1,.381-.038c.343,0,.457-.343.343-.381-.114-.076-.8-.076-.99-.152-.076-.038-.19-.076-.267-.114l-.038-.038c-.343-.152-.876-.419-1.218-.609a2.936,2.936,0,0,1-.723-.761l-1.1.152-.381.647a6.575,6.575,0,0,1,1.256,1.485,4.77,4.77,0,0,0,.381.8h0a.037.037,0,0,0,.038.038c.038.076.19.19.571.228a7.125,7.125,0,0,0,1.561,0h.19a.518.518,0,0,0,.457-.419h-.228c-.267,0-.381-.419-.381-.419h0c0-.038,0-.038-.038-.076h0C107.669,256.184,107.9,255.994,107.9,255.994Z" transform="translate(-80.637 -221.881)" fill="#f9b8b0"/>
    <g id="Group_171" data-name="Group 171" transform="translate(30.763 56.424)">
      <path id="XMLID_112_" d="M133.309,328.546l-.761-5.749a2.066,2.066,0,0,0-1.294-1.6l-7.653-2.7.152-.495,7.653,2.7a2.44,2.44,0,0,1,1.637,2.018l.761,5.749Z" transform="translate(-123.6 -318)" fill="#542f1f"/>
    </g>
    <g id="Group_172" data-name="Group 172" transform="translate(33.771 66.742)">
      <path id="XMLID_111_" d="M133.956,347.461h-1.294L131.9,345.1h2.855Z" transform="translate(-131.748 -345.1)" fill="#542f1f"/>
      <circle id="XMLID_110_" cx="1.561" cy="1.561" r="1.561" transform="translate(0 0.8)" fill="#e88b37"/>
      <circle id="XMLID_109_" cx="0.647" cy="0.647" r="0.647" transform="translate(0.914 1.713)" fill="#542f1f"/>
    </g>
    <g id="Group_173" data-name="Group 173" transform="translate(54.902 66.742)">
      <path id="XMLID_108_" d="M189.356,347.461H188.1l-.8-2.361h2.855Z" transform="translate(-187.186 -345.1)" fill="#542f1f"/>
      <circle id="XMLID_107_" cx="1.561" cy="1.561" r="1.561" transform="translate(0 0.8)" fill="#e88b37"/>
      <circle id="XMLID_106_" cx="0.647" cy="0.647" r="0.647" transform="translate(0.914 1.713)" fill="#542f1f"/>
    </g>
    <path id="XMLID_105_" d="M86.24,187.856a8.438,8.438,0,0,1-.723,1.561c-.114.228-.609,1.066-1.371.876A5.776,5.776,0,0,1,81.9,188.58l.647-1.98A12.734,12.734,0,0,0,86.24,187.856Z" transform="translate(-67.013 -180.204)" fill="#fff"/>
    <path id="XMLID_104_" d="M79.553,186.154a5.523,5.523,0,0,1-1.789-2.208,1.292,1.292,0,0,1,.267-1.409.965.965,0,0,1,.838-.114c.685.228.495,1.485,1.142,1.751" transform="translate(-64.4 -177.588)" fill="none" stroke="#fff" stroke-miterlimit="10" stroke-width="0.557"/>
    <path id="XMLID_103_" d="M78.973,182.565c-.114-.228-.419-.761-.99-.609-.609.152-1.028,1.409-.3,2.475.457.685,1.333-.267,1.371-.8A2.376,2.376,0,0,0,78.973,182.565Z" transform="translate(-64.162 -177.312)" fill="#f9b8b0"/>
    <path id="XMLID_102_" d="M79.357,183.7a.471.471,0,0,1,.381.3c.152.3.152.99-.267,1.028-.267.038-.419-.19-.381-.457a.5.5,0,0,1,.533-.419S79.7,183.928,79.357,183.7Z" transform="translate(-65.27 -178.408)" fill="#f7a7a2"/>
    <path id="XMLID_101_" d="M149.305,280.735a9.911,9.911,0,0,0-1.523-1.561c-.419-.3-1.142-.19-1.751-.571-.267-.152-.647-.533-1.066-.838a3.7,3.7,0,0,1-1.066-1.1c-.038-.228.19-.381.647-.076.457.267,1.218,1.028,1.371.952s-.343-.457-.609-.723c-.267-.228-1.713-1.637-1.789-1.789-.114-.228-.038-.419.267-.457a33.324,33.324,0,0,1,2.627,2.132c.114-.038,0-.267-.19-.419-.152-.19-2.475-2.779-2.589-2.932-.152-.228,0-.609.419-.419.381.19,2.741,2.551,2.855,2.627.114.114.3.228.381.152.076-.114-1.485-1.828-1.98-2.779-.114-.228.038-.685.609-.19.495.419,1.98,2.4,2.132,2.513.19.114.267.152.3-.038.038-.228-.495-.99-.609-1.18s-.228-.685-.038-.8c.228-.114,1.447,1.256,1.713,1.561s.19.914.495,1.9a4.3,4.3,0,0,0,1.561,1.866A3.334,3.334,0,0,1,149.305,280.735Z" transform="translate(-105.14 -233.411)" fill="#fff" opacity="0.3"/>
  </g>
  <g id="Group_175" data-name="Group 175" transform="translate(139.691 105.956)">
    <rect id="XMLID_100_" width="22.082" height="20.978" transform="translate(0.609 1.523)" fill="#e88b37"/>
    <rect id="XMLID_99_" width="4.378" height="20.978" transform="translate(22.692 1.523)" fill="#f0a351"/>
    <rect id="XMLID_98_" width="27.717" height="3.16" fill="#e88b37"/>
    <rect id="XMLID_97_" width="26.461" height="1.104" transform="translate(0.609 3.16)" fill="#f0a351" opacity="0.5"/>
    <path id="XMLID_96_" d="M394.32,317.237a13.929,13.929,0,0,0-2.4-2.437c-.647-.457-1.789-.3-2.779-.914-.419-.267-.99-.838-1.637-1.333a5.84,5.84,0,0,1-1.675-1.713c-.038-.381.3-.571,1.028-.152.723.457,1.942,1.6,2.17,1.523s-.533-.723-.952-1.1-2.665-2.589-2.817-2.817c-.19-.343-.076-.685.419-.723s4,3.389,4.15,3.35,0-.381-.267-.685c-.267-.267-3.883-4.34-4.074-4.607-.228-.343.038-.99.685-.647.609.3,4.34,4,4.493,4.15s.457.381.571.228-2.322-2.894-3.16-4.378c-.19-.343.076-1.066.952-.267.8.685,3.122,3.769,3.389,3.922s.419.267.495-.076-.761-1.561-.952-1.866-.381-1.1-.038-1.294,2.246,1.98,2.741,2.475c.457.495.343,1.409.761,3.008a6.72,6.72,0,0,0,2.437,2.932A5.615,5.615,0,0,1,394.32,317.237Z" transform="translate(-379.319 -298.124)" fill="#fff" opacity="0.2"/>
  </g>
  <g id="Group_177" data-name="Group 177" transform="translate(148.448 115.474)">
    <rect id="XMLID_95_" width="23.149" height="11.688" transform="translate(0.647 1.294)" fill="#e08033"/>
    <rect id="XMLID_94_" width="8.947" height="11.688" transform="translate(19.417 1.294)" fill="#f0a351"/>
    <rect id="XMLID_93_" width="29.05" height="2.703" fill="#e08033"/>
    <rect id="XMLID_92_" width="27.717" height="0.952" transform="translate(0.647 2.703)" fill="#f0a351" opacity="0.5"/>
    <g id="Group_176" data-name="Group 176" transform="translate(4.57 5.597)" opacity="0.3">
      <path id="XMLID_91_" d="M406.439,331.5a.745.745,0,0,1-.381-.038,1.364,1.364,0,0,0-.952,0c-.457.228-.381,1.256.114,1.675a3.286,3.286,0,0,0,1.294.571" transform="translate(-404.803 -329.972)" fill="none" stroke="#fff" stroke-miterlimit="10" stroke-width="0.617"/>
      <path id="XMLID_90_" d="M414.858,328.195a4.207,4.207,0,0,0-3.96,0c-1.371.381-1.6.952-2.4.914l.152,2.322a6.77,6.77,0,0,0,4.226,1.1,6.9,6.9,0,0,0,4.226-1.1l.152-2.322C416.457,329.147,416.267,328.614,414.858,328.195Z" transform="translate(-407.092 -327.7)" fill="#fff"/>
      <path id="XMLID_89_" d="M430.776,331.5a.745.745,0,0,0,.381-.038,1.364,1.364,0,0,1,.952,0c.457.228.381,1.256-.114,1.675a3.286,3.286,0,0,1-1.294.571" transform="translate(-420.84 -329.972)" fill="none" stroke="#fff" stroke-miterlimit="10" stroke-width="0.617"/>
    </g>
  </g>
  <g id="Group_182" data-name="Group 182" transform="translate(163.127 61.94)">
    <g id="XMLID_88_" transform="translate(4.724 16.451)">
      <path id="XMLID_380_" d="M455.808,218.3c-1.142,1.371-2.056,4.569-3.236,5.9a44.821,44.821,0,0,1-7.424,5.749c-.114-.838-1.866-.3-1.256-.876,1.942-1.751,5.292-3.5,6.4-6.7a64.9,64.9,0,0,1,3.5-6.777" transform="translate(-443.763 -215.6)" fill="#f3b799"/>
    </g>
    <g id="Group_178" data-name="Group 178" transform="translate(0 18.653)">
      <rect id="XMLID_87_" width="12.907" height="11.993" transform="translate(13.778 12.586) rotate(177.351)" fill="#f0a351"/>
      <rect id="XMLID_86_" width="1.447" height="11.993" transform="translate(13.213 0.614) rotate(-2.649)" fill="#e88b37"/>
      <rect id="XMLID_85_" width="12.907" height="1.866" transform="translate(13.305 2.486) rotate(177.351)" fill="#f0a351" opacity="0.5"/>
      <rect id="XMLID_84_" width="1.447" height="1.866" transform="translate(13.18 0.61) rotate(-2.649)" fill="#f0a351" opacity="0.5"/>
      <rect id="XMLID_83_" width="13.211" height="1.828" transform="translate(13.281 1.906) rotate(177.351)" fill="#f0a351"/>
      <rect id="XMLID_82_" width="1.828" height="1.828" transform="matrix(0.999, -0.046, 0.046, 0.999, 13.182, 0.084)" fill="#e88b37"/>
    </g>
    <g id="Group_179" data-name="Group 179" transform="translate(5.266 22.162)" opacity="0.3">
      <path id="XMLID_81_" d="M447.781,232.395a.761.761,0,0,1-.076-.495h0l-.685.038-.685.038h0a.742.742,0,0,1-.038.495,2.752,2.752,0,0,1-.647.838h0a1.34,1.34,0,0,0-.457,1.1l.19,4.417a.5.5,0,0,0,.571.495l2.817-.114a.5.5,0,0,0,.495-.571l-.19-4.417a1.249,1.249,0,0,0-.571-1.028h0A2.879,2.879,0,0,1,447.781,232.395Z" transform="translate(-445.187 -231.405)" fill="#fff"/>
      <path id="XMLID_80_" d="M449.137,231.209l-1.333.038a.3.3,0,0,1-.3-.3h0a.3.3,0,0,1,.3-.3l1.333-.038a.3.3,0,0,1,.3.3h0A.328.328,0,0,1,449.137,231.209Z" transform="translate(-446.619 -230.6)" fill="#fff"/>
    </g>
    <g id="Group_180" data-name="Group 180" transform="translate(18.782 26.54)">
      <path id="XMLID_78_" d="M481.035,246.364l5.216-4.264s2.361,3.274,1.409,6.4a24.467,24.467,0,0,1-1.294,3.008c-.228.685-1.9,10.318-1.828,11.041a43.4,43.4,0,0,1,1.18,4.8c.343,2.513.152,10.661.419,12.831s-1.751,2.513-1.827,1.751c-.838-6.244-3.2-16.029-3.5-19.151C480.54,259.652,480.769,253.9,481.035,246.364Z" transform="translate(-480.688 -242.1)" fill="#f9ab86"/>
      <g id="XMLID_77_" transform="translate(0.009 10.432)">
        <path id="XMLID_378_" d="M480.936,269.5l2.17,5.178a11.964,11.964,0,0,0-1.637,5.368c-.038.99.038,1.98,0,2.97a.483.483,0,0,1-.038.228c-.267-1.485-.495-2.7-.571-3.465a96.736,96.736,0,0,1-.038-10.242A.14.14,0,0,1,480.936,269.5Z" transform="translate(-480.711 -269.5)" fill="#f89e7b"/>
      </g>
      <path id="XMLID_76_" d="M485.2,340.595a12,12,0,0,1,.3,2.551,3.586,3.586,0,0,1-1.1,1.409c-.495.3-1.6.685-1.713.8-.076.152-.114.343.038.457a2.177,2.177,0,0,0,1.561.419c1.485-.228,1.675-.876,2.551-.99.152,0,.419.228.838,0a1.019,1.019,0,0,0,.609-.952,3.737,3.737,0,0,0-.647-1.6,14.06,14.06,0,0,1-.381-2.589" transform="translate(-481.888 -302.788)" fill="#f9ab86"/>
      <path id="XMLID_75_" d="M481.952,350.956a.543.543,0,0,1-.038-.533c.152-.076.914-.457,1.218-.571s.761-.228.571-.152c-.152.076.114.419.419.419a7.033,7.033,0,0,0,2.17-.8,1.935,1.935,0,0,0,1.142-1.218,3.486,3.486,0,0,1,.533,1.066,1.943,1.943,0,0,1,.114.8,2,2,0,0,0-.114.761,1.474,1.474,0,0,1-.571.19,2.907,2.907,0,0,1-.609,0s-.267-.495-.533-.457a1.8,1.8,0,0,0-.723.343c-.114.114-.19.343-.343.419a3.193,3.193,0,0,1-1.218.3C482.98,351.527,482.1,351.26,481.952,350.956Z" transform="translate(-481.414 -307.742)" fill="#2d2d59"/>
    </g>
    <g id="Group_181" data-name="Group 181" transform="translate(11.5 25.665)">
      <path id="XMLID_74_" d="M462.637,283.432c.114-.114,1.294-.3,1.866-.533a3.166,3.166,0,0,0,1.295-1.256,12.458,12.458,0,0,0,.076-2.475c-.114-4.455-.952-15.305-1.066-17.932-.19-4.531.381-9.176,2.132-16.448l6.472-4.988s1.828,3.389,1.218,6.587c-.343,1.866-1.9,2.17-2.17,2.894s-4.188,12.45-4.188,12.45a22.147,22.147,0,0,1,.8,5.33c.038,2.361-1.028,9.518-1.218,12.26a8.479,8.479,0,0,0,.038,2.208c.19.495.685,1.066.647,1.713a.88.88,0,0,1-.723.838c-.457.152-.723-.114-.876-.114-.914-.038-1.18.609-2.741.571a2.481,2.481,0,0,1-1.561-.647A.311.311,0,0,1,462.637,283.432Z" transform="translate(-462.165 -239.8)" fill="#f9ab86"/>
      <path id="XMLID_73_" d="M461.614,352.494c-.076-.19-.076-.495.038-.533a11.29,11.29,0,0,1,1.333-.419c.3-.076.8-.114.647-.076-.19.076.076.419.381.457a8.336,8.336,0,0,0,2.361-.457,1.455,1.455,0,0,0,1.18-1.066,3.575,3.575,0,0,1,.571,1.142,1.427,1.427,0,0,1,0,.8,1.691,1.691,0,0,0-.19.761,2.4,2.4,0,0,1-.609.114,3.41,3.41,0,0,1-.609-.076s-.228-.533-.495-.533a1.659,1.659,0,0,0-.8.266c-.152.114-.266.267-.419.3a3.659,3.659,0,0,1-1.295.114A2.771,2.771,0,0,1,461.614,352.494Z" transform="translate(-461.561 -308.291)" fill="#2d2d59"/>
    </g>
    <g id="XMLID_72_" transform="translate(13.723 25.398)">
      <path id="XMLID_362_" d="M477.756,239.9a7.437,7.437,0,0,1,2.132,6.891c-.152.723-1.066,2.665-1.256,3.35a41.559,41.559,0,0,0-.876,6.016c-2.551,1.523-8.224,1.409-10.356-.076.19-2.7.381-4.417.8-7.577a27.49,27.49,0,0,1,2.361-8c.076-.343.076-.99.152-1.409" transform="translate(-467.4 -239.1)" fill="#b74f42"/>
    </g>
    <g id="XMLID_71_" transform="translate(13.542 10.702)">
      <path id="XMLID_364_" d="M470.532,200.5c-.419.152-.266,1.1-.647,1.256-.3.114-.876-.038-1.142.114-1.447.8-1.066,2.437-1.256,4.417-.609,1.523-.761,2.932-.267,3.769a12.492,12.492,0,0,0,1.98,2.246,7.088,7.088,0,0,1,.838,3.465c.038.267-.19.685-.114.952.114.457.99.838,1.789.838,3.5,0,6.587-.876,6.511-1.333-.038-.3-.228-.723-.343-1.333-.266-1.333-.495-4.721-.685-5.863a31.256,31.256,0,0,0-2.132-7.767" transform="translate(-466.924 -200.5)" fill="#fff"/>
    </g>
    <g id="XMLID_70_" transform="translate(13 15.499)" opacity="0.08">
      <path id="XMLID_374_" d="M465.5,215.27a18,18,0,0,1,1.637-2.17l1.561.685a18.673,18.673,0,0,0-1.218,4.607,3.911,3.911,0,0,1-.914-.076c-.152-.228-.076-.114-.3-.495A7.253,7.253,0,0,1,465.5,215.27Z" transform="translate(-465.5 -213.1)" fill="#010101"/>
    </g>
    <path id="XMLID_68_" d="M462.241,180.532a7.748,7.748,0,0,1-.266-2.018c.038-1.142.19-2.817,2.132-3.541,1.942-.685,4.036-.267,4.683,1.1s.495,3.5.571,4.607a6.532,6.532,0,0,0,.914,2.475l-4.15,1.789a7.713,7.713,0,0,0-.952-1.637c-.267-.19-.381.533-1.295.457-.381-.038-.8-.723-1.142-1.6a.133.133,0,0,0-.038-.076c-.19,0-.457-.038-.495-.038-.3-.076-.267-.228-.19-.381A5.025,5.025,0,0,0,462.241,180.532Z" transform="translate(-450.307 -173.79)" fill="#f9ab86"/>
    <path id="XMLID_54_" d="M464.518,191.637,462.881,190a1.185,1.185,0,0,1-1.066,0s-.3.647-.533,1.066c-.152.343,1.294,2.17,2.17,2.17.685-.038.8-.952,1.028-1.447-.038-.038-.114-.038-.152-.076Z" transform="translate(-449.881 -183.296)" fill="#fff"/>
    <path id="XMLID_8_" d="M465.5,188.914a1.553,1.553,0,0,0,.343-.914" transform="translate(-452.5 -182.057)" fill="none" stroke="#fff" stroke-miterlimit="10" stroke-width="0.557"/>
    <g id="XMLID_6_" transform="translate(2.217 29.358)">
      <path id="XMLID_372_" d="M441.184,250.6a2.259,2.259,0,0,1-1.142,1.409,1.087,1.087,0,0,1-.495,0c-.228.114-.952.19-.685-.228a2.179,2.179,0,0,1-1.561.343c-.19,0-.19-.228.228-.343a2.217,2.217,0,0,0,1.333-1.1c-.076-.076-.152.038-.381.076-.267.038-.419-.076-.419-.19,0-.076.3-.19.381-.228.267-.19.533-.343.8-.533a1.725,1.725,0,0,1,.838-.3c.076,0,.609.038.495.228" transform="translate(-437.178 -249.5)" fill="#f9ab86"/>
    </g>
    <path id="XMLID_5_" d="M455.17,214.38c-.685,1.409-2.475,6.13-2.779,6.663-1.1,2.132-6.739,6.777-6.739,6.777a1.132,1.132,0,0,1-.952-1.1c1.6-1.1,4.645-5.939,5.292-6.511.419-.381,2.246-7.805,2.246-7.805" transform="translate(-439.619 -197.167)" fill="#f9ab86"/>
    <path id="XMLID_4_" d="M463.951,200.828c1.561-.609,3.084-.609,4.3-1.828,1.218.952-1.485,6.4-2.132,6.549-.685.152-1.447,3.122-1.751,3.579a3.7,3.7,0,0,1-2.97-1.256C461.819,205.32,462.428,201.4,463.951,200.828Z" transform="translate(-449.961 -188.869)" fill="#fff"/>
    <g id="XMLID_3_" transform="translate(11.172)">
      <path id="XMLID_370_" d="M464.812,184.5c.114-.419.419-.723.495-1.142a1.831,1.831,0,0,0-.228-1.256,3.287,3.287,0,0,0-.533-.495,1.857,1.857,0,0,1-.876-2.284,3.206,3.206,0,0,0,.152-1.028c-.038-.3-.076-.647-.419-.685a.37.37,0,0,0-.457.228c-.076.152.038,1.142-.267.571a2.244,2.244,0,0,1-.571-1.828,2.949,2.949,0,0,0-.038-.838,2.4,2.4,0,0,0-.8,1.675,1.258,1.258,0,0,1-.571-1.028,2.65,2.65,0,0,1,.228-1.256,3.847,3.847,0,0,1,2.208-2.208,4.849,4.849,0,0,1,2.056-.533c.723.038,1.6.228,1.789.761.99-.267,1.561.609,1.789.914a5.871,5.871,0,0,1,.761,1.447,24.32,24.32,0,0,1,.495,2.4,3.193,3.193,0,0,0,.952,1.751c.495.419,1.142.457,1.675.876a2.62,2.62,0,0,1,.99,2.17c-.038.838-.457,1.713.038,2.475a4.956,4.956,0,0,0,.571.685,1.874,1.874,0,0,1-.038,1.942,3.443,3.443,0,0,1-1.675,1.447,4.954,4.954,0,0,1-1.828.267,4.89,4.89,0,0,1-3.465-1.066c-.723-.609-.267-.952-.952-1.6-.381-.381-.914-.571-1.218-1.028a1.992,1.992,0,0,1-.19-1.333C464.774,184.54,464.774,184.5,464.812,184.5Z" transform="translate(-460.7 -172.391)" fill="#222c54"/>
    </g>
    <path id="XMLID_1_" d="M466.119,187.062s-.381-.952.267-1.218c.647-.228.838.723.723,1.218C467.033,187.519,466.652,188.356,466.119,187.062Z" transform="translate(-452.815 -180.7)" fill="#f9ab86"/>
  </g>
</svg>
