<svg xmlns="http://www.w3.org/2000/svg" xmlns:xlink="http://www.w3.org/1999/xlink" width="541.236" height="533.166" viewBox="0 0 541.236 533.166">
  <defs>
    <linearGradient id="linear-gradient" x1="-2.686" y1="6.19" x2="-2.686" y2="5.227" gradientUnits="objectBoundingBox">
      <stop offset="0" stop-color="#a7a9ac"/>
      <stop offset="0.124" stop-color="#bbbdbf"/>
      <stop offset="0.34" stop-color="#dadcdd"/>
      <stop offset="0.454" stop-color="#e6e7e8"/>
      <stop offset="0.572" stop-color="#e2e3e5"/>
      <stop offset="0.702" stop-color="#d7d9da"/>
      <stop offset="0.839" stop-color="#c5c7c9"/>
      <stop offset="0.979" stop-color="#abadb0"/>
      <stop offset="1" stop-color="#a7a9ac"/>
    </linearGradient>
    <linearGradient id="linear-gradient-2" x1="-2.509" y1="3.87" x2="-2.509" y2="3.032" gradientUnits="objectBoundingBox">
      <stop offset="0" stop-color="#a7a9ac"/>
      <stop offset="0.038" stop-color="#abadb0"/>
      <stop offset="0.296" stop-color="#c5c7c9"/>
      <stop offset="0.547" stop-color="#d7d9da"/>
      <stop offset="0.785" stop-color="#e2e3e5"/>
      <stop offset="1" stop-color="#e6e7e8"/>
    </linearGradient>
    <linearGradient id="linear-gradient-3" x1="-2.728" y1="3.139" x2="-2.728" y2="2.248" gradientUnits="objectBoundingBox">
      <stop offset="0" stop-color="#00002d"/>
      <stop offset="1" stop-color="#0091cf"/>
    </linearGradient>
    <linearGradient id="linear-gradient-4" x1="-4.44" y1="4.7" x2="-4.44" y2="3.703" gradientUnits="objectBoundingBox">
      <stop offset="0" stop-color="#808285"/>
      <stop offset="0.02" stop-color="#858789"/>
      <stop offset="0.185" stop-color="#a7a9ab"/>
      <stop offset="0.35" stop-color="#c5c7c9"/>
      <stop offset="0.515" stop-color="#dddedf"/>
      <stop offset="0.679" stop-color="#eeefef"/>
      <stop offset="0.841" stop-color="#f9f9f9"/>
      <stop offset="1" stop-color="#fff"/>
    </linearGradient>
  </defs>
  <g id="email" transform="translate(-144.694 -104.534)">
    <g id="Group_229" data-name="Group 229" transform="translate(144.694 104.534)">
      <path id="Path_194" data-name="Path 194" d="M569,255.637l-5.09-37.6S375.033,137.323,321.589,106.809c-6-3.544-17.633-10.827-26-9.646-9.271,1.378-18.542,12.993-23.632,18.505C230.879,160.356,76,290.876,76,290.876L81.635,333Z" transform="translate(-71.078 -17.026)" fill="url(#linear-gradient)"/>
      <path id="Path_195" data-name="Path 195" d="M610,486.326c1.463,10.827-5.484,21.064-15.722,22.639l-453.2,71.461c-10.055,1.575-19.561-5.906-21.024-16.93L78.188,255.6c-1.463-10.827,5.484-21.064,15.722-22.639l453.2-71.461c10.055-1.575,19.561,5.906,21.024,16.93Z" transform="translate(-69.147 -47.469)" fill="url(#linear-gradient-2)"/>
      <path id="Path_196" data-name="Path 196" d="M560.393,461.946l-419.88,54.815L73.5,108.078,493.38,53.1Z" transform="translate(-73.5 -53.1)" fill="url(#linear-gradient-3)"/>
      <g id="Group_227" data-name="Group 227" transform="translate(84.701 74.967)">
        <path id="Path_197" data-name="Path 197" d="M319.027,181.972l1.575-19.686,45.278-6.693-8.071,126.583c-.394,8.071-.591,13.19-.2,15.749a9.437,9.437,0,0,0,2.953,5.906,6.2,6.2,0,0,0,5.118,1.575c6.1-.984,13.583-6.1,22.049-15.552q12.993-14.174,20.671-36.616a94.843,94.843,0,0,0,4.134-47.05,98.819,98.819,0,0,0-13.387-37.6,88.3,88.3,0,0,0-27.167-28.151c-11.221-7.481-24.214-12.6-39.569-15.552-15.158-2.953-31.892-2.953-50.2-.394q-28.053,4.134-50.2,14.765a127.636,127.636,0,0,0-37.8,26.97,118.165,118.165,0,0,0-24.608,37.994,145.015,145.015,0,0,0-10.237,41.144,174.079,174.079,0,0,0,.787,44.1c2.953,19.686,9.449,37.01,19.686,52.169a110.728,110.728,0,0,0,40.16,36.026c16.536,8.859,35.632,13.977,57.484,15.552s45.869-.984,72.052-7.678c20.671-5.709,37.994-12.993,51.578-22.245a108.234,108.234,0,0,0,32.876-35.238l36.42-5.315a119.054,119.054,0,0,1-18.505,36.223,131.663,131.663,0,0,1-29.923,29.136,173.1,173.1,0,0,1-40.75,21.261,252.742,252.742,0,0,1-51.184,12.8c-28.151,4.134-53.94,4.134-77.564,0s-44.1-12.009-61.421-23.623a137.872,137.872,0,0,1-42.129-44.491q-15.946-27.167-21.261-62.012a192.606,192.606,0,0,1,2.165-69.886,160.636,160.636,0,0,1,26.97-60.24c12.993-17.914,29.726-32.679,50.594-44.688,20.671-12.009,44.294-19.883,70.87-23.82,21.655-3.15,42.129-2.953,61.027.787,19.1,3.74,35.829,10.434,50.594,20.474a122.4,122.4,0,0,1,35.829,37.994c9.253,15.355,15.158,32.679,18.111,52.365a131.211,131.211,0,0,1-19.292,89.375,114.148,114.148,0,0,1-32.089,33.073,100.243,100.243,0,0,1-43.31,16.733c-9.253,1.378-16.733.787-22.245-1.575s-9.843-6.89-12.4-13.583A68.389,68.389,0,0,1,283,352.652a64.282,64.282,0,0,1-37.994,1.969c-12.8-3.15-23.82-10.04-33.073-20.867-9.253-10.631-15.158-24.608-17.521-41.932a133.04,133.04,0,0,1,3.74-54.728A109.728,109.728,0,0,1,224.73,189.65,76.892,76.892,0,0,1,270.6,166.026C290.875,162.483,307.018,167.995,319.027,181.972ZM238.313,284.537c1.969,13.78,6.5,23.82,13.19,30.317a27.148,27.148,0,0,0,24.017,7.678c10.827-1.575,19.489-7.284,26.576-16.93a82.772,82.772,0,0,0,13.78-35.238,124.084,124.084,0,0,0,.787-38.979,58.6,58.6,0,0,0-4.528-15.946,37.354,37.354,0,0,0-8.268-11.812,27.428,27.428,0,0,0-11.418-6.89,29.154,29.154,0,0,0-13.78-.787c-10.04,1.378-18.505,6.693-25.4,15.749s-11.615,20.08-14.174,33.27A115.982,115.982,0,0,0,238.313,284.537Z" transform="translate(-125.489 -91.181)" fill="url(#linear-gradient-4)"/>
      </g>
      <g id="Group_228" data-name="Group 228" transform="translate(8.846 113.825)">
        <path id="Path_198" data-name="Path 198" d="M495.741,484.554,450.856,178.236A19.868,19.868,0,0,0,428.217,161.5l-22.049,3.15S288.444,287.495,250.253,342.42c-4.331,6.3-13.583,18.111-12.4,26.576,1.378,9.253,14.568,18.111,20.867,23.033,50.987,39.569,192.728,118.9,192.728,118.9L478.81,507A19.784,19.784,0,0,0,495.741,484.554Z" transform="translate(35.853 -161.294)" fill="#262537"/>
        <path id="Path_199" data-name="Path 199" d="M123.088,528.11,78.2,221.792a19.784,19.784,0,0,1,16.93-22.442l22.049-3.15s148.04,84.06,200.406,125.6c5.906,4.725,18.308,13.584,19.489,21.852,1.378,9.253-8.662,21.458-13.387,28.151-37.4,52.562-150.4,169.3-150.4,169.3l-27.364,3.937C134.9,546.418,124.662,538.937,123.088,528.11Z" transform="translate(-77.994 -127.483)" fill="#262537"/>
        <path id="Path_200" data-name="Path 200" d="M318.9,257.482c-9.266,1.378-18.533,12.993-23.62,18.505C254.222,320.675,99.6,451,99.6,451l2.725,19.489c1.454,10.827,10.9,18.505,20.895,16.93L573.64,415.957c9.993-1.575,17.079-11.812,15.626-22.639l-2-14.962s-188.78-80.714-242.2-111.227C338.709,263.585,327.081,256.1,318.9,257.482Z" transform="translate(-57.065 -68.285)" fill="#3d3d77"/>
      </g>
    </g>
  </g>
</svg>
