<svg xmlns="http://www.w3.org/2000/svg" width="194.664" height="91.7" viewBox="0 0 194.664 91.7">
  <g id="Group_234" data-name="Group 234" transform="translate(-1668.568 306.545)">
    <g id="school" transform="translate(1668.568 -306.545)">
      <g id="Group_139" data-name="Group 139">
        <g id="Group_50" data-name="Group 50" transform="translate(0 20.608)">
          <g id="Group_49" data-name="Group 49">
            <g id="Group_10" data-name="Group 10" transform="translate(0.215 6.032)">
              <g id="Group_7" data-name="Group 7" transform="translate(2.671)">
                <rect id="Rectangle_25" data-name="Rectangle 25" width="72.902" height="65.017" fill="#262537"/>
                <rect id="Rectangle_26" data-name="Rectangle 26" width="72.902" height="13.701" transform="translate(0 51.316)" fill="#262537"/>
              </g>
              <g id="Group_9" data-name="Group 9" transform="translate(0 26.541)">
                <rect id="Rectangle_27" data-name="Rectangle 27" width="72.902" height="1.336" transform="translate(2.671 4.61)" fill="#fdb947" opacity="0.5"/>
                <g id="Group_8" data-name="Group 8">
                  <rect id="Rectangle_28" data-name="Rectangle 28" width="76.478" height="4.783" fill="#ffde9e"/>
                  <rect id="Rectangle_29" data-name="Rectangle 29" width="76.478" height="1.551" fill="#ffde9e" opacity="0.5"/>
                </g>
              </g>
            </g>
            <g id="Group_15" data-name="Group 15">
              <g id="Group_12" data-name="Group 12">
                <rect id="Rectangle_30" data-name="Rectangle 30" width="72.902" height="3.231" transform="translate(2.887 6.032)" fill="#fdb947" opacity="0.5"/>
                <g id="Group_11" data-name="Group 11">
                  <path id="Path_2" data-name="Path 2" d="M148.909,148.657H80.1l9.177-8.057h59.631Z" transform="translate(-80.1 -140.6)" fill="#524a55"/>
                  <path id="Path_3" data-name="Path 3" d="M148.909,140.6v1.465H89.277l-7.5,6.592H80.1l9.177-8.057Z" transform="translate(-80.1 -140.6)" fill="#524a55" opacity="0.5"/>
                </g>
              </g>
              <g id="Group_14" data-name="Group 14" transform="translate(0.086 9.867)">
                <rect id="Rectangle_31" data-name="Rectangle 31" width="72.902" height="0.948" transform="translate(2.801 1.077)" fill="#fdb947" opacity="0.5"/>
                <g id="Group_13" data-name="Group 13">
                  <rect id="Rectangle_32" data-name="Rectangle 32" width="68.723" height="1.163" fill="#524a55"/>
                  <rect id="Rectangle_33" data-name="Rectangle 33" width="68.723" height="0.474" fill="#524a55" opacity="0.5"/>
                </g>
              </g>
            </g>
            <g id="Group_48" data-name="Group 48" transform="translate(7.368 12.495)">
              <g id="Group_31" data-name="Group 31">
                <g id="Group_20" data-name="Group 20">
                  <rect id="Rectangle_34" data-name="Rectangle 34" width="12.28" height="0.991" transform="translate(0 18.182)" fill="#fdb947" opacity="0.5"/>
                  <g id="Group_19" data-name="Group 19" transform="translate(1.163)">
                    <rect id="Rectangle_35" data-name="Rectangle 35" width="9.91" height="16.933" fill="#ffde9e"/>
                    <g id="Group_16" data-name="Group 16" transform="translate(0.991 0.819)">
                      <rect id="Rectangle_36" data-name="Rectangle 36" width="7.928" height="15.253" fill="#524a55"/>
                    </g>
                    <g id="Group_17" data-name="Group 17" transform="translate(0.991 0.819)" opacity="0.5">
                      <path id="Path_4" data-name="Path 4" d="M110.128,172.8v1.767l-7.928,7.928v-1.767Z" transform="translate(-102.2 -172.24)" fill="#524a55"/>
                      <path id="Path_5" data-name="Path 5" d="M104.914,171.5l-2.714,2.758v-1.767l.991-.991Z" transform="translate(-102.2 -171.5)" fill="#524a55"/>
                      <path id="Path_6" data-name="Path 6" d="M110.128,188.2v4.179l-3.921,3.878H102.2v-.129Z" transform="translate(-102.2 -181.005)" fill="#524a55"/>
                    </g>
                    <rect id="Rectangle_37" data-name="Rectangle 37" width="0.56" height="16.071" transform="translate(4.696 0.431)" fill="#ffde9e"/>
                    <g id="Group_18" data-name="Group 18" transform="translate(0.388 4.826)">
                      <rect id="Rectangle_38" data-name="Rectangle 38" width="9.264" height="0.56" fill="#ffde9e"/>
                      <rect id="Rectangle_39" data-name="Rectangle 39" width="9.264" height="0.56" transform="translate(0 6.721)" fill="#ffde9e"/>
                    </g>
                  </g>
                  <rect id="Rectangle_40" data-name="Rectangle 40" width="12.28" height="1.853" transform="translate(0 16.33)" fill="#ffd178"/>
                </g>
                <g id="Group_25" data-name="Group 25" transform="translate(21.586)">
                  <rect id="Rectangle_41" data-name="Rectangle 41" width="12.28" height="0.991" transform="translate(0 18.182)" fill="#fdb947" opacity="0.5"/>
                  <g id="Group_24" data-name="Group 24" transform="translate(1.206)">
                    <rect id="Rectangle_42" data-name="Rectangle 42" width="9.91" height="16.933" fill="#ffde9e"/>
                    <g id="Group_21" data-name="Group 21" transform="translate(0.991 0.819)">
                      <rect id="Rectangle_43" data-name="Rectangle 43" width="7.928" height="15.253" fill="#524a55"/>
                    </g>
                    <g id="Group_22" data-name="Group 22" transform="translate(0.991 0.819)" opacity="0.5">
                      <path id="Path_7" data-name="Path 7" d="M160.328,172.8v1.767l-7.928,7.928v-1.767Z" transform="translate(-152.4 -172.24)" fill="#524a55"/>
                      <path id="Path_8" data-name="Path 8" d="M155.114,171.5l-2.714,2.758v-1.767l.948-.991Z" transform="translate(-152.4 -171.5)" fill="#524a55"/>
                      <path id="Path_9" data-name="Path 9" d="M160.328,188.2v4.179l-3.921,3.878H152.4v-.129Z" transform="translate(-152.4 -181.005)" fill="#524a55"/>
                    </g>
                    <rect id="Rectangle_44" data-name="Rectangle 44" width="0.56" height="16.071" transform="translate(4.653 0.431)" fill="#ffde9e"/>
                    <g id="Group_23" data-name="Group 23" transform="translate(0.345 4.826)">
                      <rect id="Rectangle_45" data-name="Rectangle 45" width="9.264" height="0.56" fill="#ffde9e"/>
                      <rect id="Rectangle_46" data-name="Rectangle 46" width="9.264" height="0.56" transform="translate(0 6.721)" fill="#ffde9e"/>
                    </g>
                  </g>
                  <rect id="Rectangle_47" data-name="Rectangle 47" width="12.28" height="1.853" transform="translate(0 16.33)" fill="#ffd178"/>
                </g>
                <g id="Group_30" data-name="Group 30" transform="translate(43.216)">
                  <rect id="Rectangle_48" data-name="Rectangle 48" width="12.28" height="0.991" transform="translate(0 18.182)" fill="#fdb947" opacity="0.5"/>
                  <g id="Group_29" data-name="Group 29" transform="translate(1.163)">
                    <rect id="Rectangle_49" data-name="Rectangle 49" width="9.91" height="16.933" fill="#ffde9e"/>
                    <g id="Group_26" data-name="Group 26" transform="translate(0.991 0.819)">
                      <rect id="Rectangle_50" data-name="Rectangle 50" width="7.928" height="15.253" fill="#524a55"/>
                    </g>
                    <g id="Group_27" data-name="Group 27" transform="translate(0.991 0.819)" opacity="0.5">
                      <path id="Path_10" data-name="Path 10" d="M210.428,172.8v1.767l-7.928,7.928v-1.767Z" transform="translate(-202.5 -172.24)" fill="#524a55"/>
                      <path id="Path_11" data-name="Path 11" d="M205.214,171.5l-2.714,2.758v-1.767l.991-.991Z" transform="translate(-202.5 -171.5)" fill="#524a55"/>
                      <path id="Path_12" data-name="Path 12" d="M210.428,188.2v4.179l-3.921,3.878H202.5v-.129Z" transform="translate(-202.5 -181.005)" fill="#524a55"/>
                    </g>
                    <rect id="Rectangle_51" data-name="Rectangle 51" width="0.56" height="16.071" transform="translate(4.696 0.431)" fill="#ffde9e"/>
                    <g id="Group_28" data-name="Group 28" transform="translate(0.388 4.826)">
                      <rect id="Rectangle_52" data-name="Rectangle 52" width="9.264" height="0.56" fill="#ffde9e"/>
                      <rect id="Rectangle_53" data-name="Rectangle 53" width="9.264" height="0.56" transform="translate(0 6.721)" fill="#ffde9e"/>
                    </g>
                  </g>
                  <rect id="Rectangle_54" data-name="Rectangle 54" width="12.28" height="1.853" transform="translate(0 16.33)" fill="#ffd178"/>
                </g>
              </g>
              <g id="Group_47" data-name="Group 47" transform="translate(0 26.024)">
                <g id="Group_36" data-name="Group 36">
                  <rect id="Rectangle_55" data-name="Rectangle 55" width="12.28" height="0.991" transform="translate(0 18.182)" fill="#fdb947" opacity="0.5"/>
                  <g id="Group_35" data-name="Group 35" transform="translate(1.163)">
                    <rect id="Rectangle_56" data-name="Rectangle 56" width="9.91" height="16.933" fill="#ffde9e"/>
                    <g id="Group_32" data-name="Group 32" transform="translate(0.991 0.819)">
                      <rect id="Rectangle_57" data-name="Rectangle 57" width="7.928" height="15.253" fill="#524a55"/>
                    </g>
                    <g id="Group_33" data-name="Group 33" transform="translate(0.991 0.819)" opacity="0.5">
                      <path id="Path_13" data-name="Path 13" d="M110.128,233.2v1.767l-7.928,7.928v-1.767Z" transform="translate(-102.2 -232.64)" fill="#524a55"/>
                      <path id="Path_14" data-name="Path 14" d="M104.914,231.9l-2.714,2.758v-1.767l.991-.991Z" transform="translate(-102.2 -231.9)" fill="#524a55"/>
                      <path id="Path_15" data-name="Path 15" d="M110.128,248.6v4.179l-3.921,3.878H102.2v-.129Z" transform="translate(-102.2 -241.405)" fill="#524a55"/>
                    </g>
                    <rect id="Rectangle_58" data-name="Rectangle 58" width="0.56" height="16.071" transform="translate(4.696 0.431)" fill="#ffde9e"/>
                    <g id="Group_34" data-name="Group 34" transform="translate(0.388 4.826)">
                      <rect id="Rectangle_59" data-name="Rectangle 59" width="9.264" height="0.56" fill="#ffde9e"/>
                      <rect id="Rectangle_60" data-name="Rectangle 60" width="9.264" height="0.56" transform="translate(0 6.765)" fill="#ffde9e"/>
                    </g>
                  </g>
                  <rect id="Rectangle_61" data-name="Rectangle 61" width="12.28" height="1.853" transform="translate(0 16.33)" fill="#ffd178"/>
                </g>
                <g id="Group_41" data-name="Group 41" transform="translate(21.586)">
                  <rect id="Rectangle_62" data-name="Rectangle 62" width="12.28" height="0.991" transform="translate(0 18.182)" fill="#fdb947" opacity="0.5"/>
                  <g id="Group_40" data-name="Group 40" transform="translate(1.206)">
                    <rect id="Rectangle_63" data-name="Rectangle 63" width="9.91" height="16.933" fill="#ffde9e"/>
                    <g id="Group_37" data-name="Group 37" transform="translate(0.991 0.819)">
                      <rect id="Rectangle_64" data-name="Rectangle 64" width="7.928" height="15.253" fill="#524a55"/>
                    </g>
                    <g id="Group_38" data-name="Group 38" transform="translate(0.991 0.819)" opacity="0.5">
                      <path id="Path_16" data-name="Path 16" d="M160.328,233.2v1.767l-7.928,7.928v-1.767Z" transform="translate(-152.4 -232.64)" fill="#524a55"/>
                      <path id="Path_17" data-name="Path 17" d="M155.114,231.9l-2.714,2.758v-1.767l.948-.991Z" transform="translate(-152.4 -231.9)" fill="#524a55"/>
                      <path id="Path_18" data-name="Path 18" d="M160.328,248.6v4.179l-3.921,3.878H152.4v-.129Z" transform="translate(-152.4 -241.405)" fill="#524a55"/>
                    </g>
                    <rect id="Rectangle_65" data-name="Rectangle 65" width="0.56" height="16.071" transform="translate(4.653 0.431)" fill="#ffde9e"/>
                    <g id="Group_39" data-name="Group 39" transform="translate(0.345 4.826)">
                      <rect id="Rectangle_66" data-name="Rectangle 66" width="9.264" height="0.56" fill="#ffde9e"/>
                      <rect id="Rectangle_67" data-name="Rectangle 67" width="9.264" height="0.56" transform="translate(0 6.765)" fill="#ffde9e"/>
                    </g>
                  </g>
                  <rect id="Rectangle_68" data-name="Rectangle 68" width="12.28" height="1.853" transform="translate(0 16.33)" fill="#ffd178"/>
                </g>
                <g id="Group_46" data-name="Group 46" transform="translate(43.216)">
                  <rect id="Rectangle_69" data-name="Rectangle 69" width="12.28" height="0.991" transform="translate(0 18.182)" fill="#fdb947" opacity="0.5"/>
                  <g id="Group_45" data-name="Group 45" transform="translate(1.163)">
                    <rect id="Rectangle_70" data-name="Rectangle 70" width="9.91" height="16.933" fill="#ffde9e"/>
                    <g id="Group_42" data-name="Group 42" transform="translate(0.991 0.819)">
                      <rect id="Rectangle_71" data-name="Rectangle 71" width="7.928" height="15.253" fill="#524a55"/>
                    </g>
                    <g id="Group_43" data-name="Group 43" transform="translate(0.991 0.819)" opacity="0.5">
                      <path id="Path_19" data-name="Path 19" d="M210.428,233.2v1.767l-7.928,7.928v-1.767Z" transform="translate(-202.5 -232.64)" fill="#524a55"/>
                      <path id="Path_20" data-name="Path 20" d="M205.214,231.9l-2.714,2.758v-1.767l.991-.991Z" transform="translate(-202.5 -231.9)" fill="#524a55"/>
                      <path id="Path_21" data-name="Path 21" d="M210.428,248.6v4.179l-3.921,3.878H202.5v-.129Z" transform="translate(-202.5 -241.405)" fill="#524a55"/>
                    </g>
                    <rect id="Rectangle_72" data-name="Rectangle 72" width="0.56" height="16.071" transform="translate(4.696 0.431)" fill="#ffde9e"/>
                    <g id="Group_44" data-name="Group 44" transform="translate(0.388 4.826)">
                      <rect id="Rectangle_73" data-name="Rectangle 73" width="9.264" height="0.56" fill="#ffde9e"/>
                      <rect id="Rectangle_74" data-name="Rectangle 74" width="9.264" height="0.56" transform="translate(0 6.765)" fill="#ffde9e"/>
                    </g>
                  </g>
                  <rect id="Rectangle_75" data-name="Rectangle 75" width="12.28" height="1.853" transform="translate(0 16.33)" fill="#ffd178"/>
                </g>
              </g>
            </g>
          </g>
          <path id="Path_22" data-name="Path 22" d="M236.375,174.207H237.8v37.4h-6.075v-37.4H230.3v-4.783h1.422V140.6H237.8v6.032h0v22.793h-1.422Z" transform="translate(-165.584 -140.6)" fill="#3a2210" opacity="0.2"/>
        </g>
        <g id="Group_94" data-name="Group 94" transform="translate(117.97 20.608)">
          <g id="Group_93" data-name="Group 93">
            <g id="Group_54" data-name="Group 54" transform="translate(0 6.032)">
              <g id="Group_51" data-name="Group 51" transform="translate(0.905)">
                <rect id="Rectangle_76" data-name="Rectangle 76" width="72.902" height="65.017" fill="#262537"/>
                <rect id="Rectangle_77" data-name="Rectangle 77" width="72.902" height="13.701" transform="translate(0 51.316)" fill="#262537"/>
              </g>
              <g id="Group_53" data-name="Group 53" transform="translate(0 26.541)">
                <rect id="Rectangle_78" data-name="Rectangle 78" width="72.902" height="1.336" transform="translate(0.905 4.61)" fill="#fdb947" opacity="0.5"/>
                <g id="Group_52" data-name="Group 52">
                  <rect id="Rectangle_79" data-name="Rectangle 79" width="76.478" height="4.783" fill="#ffde9e"/>
                  <rect id="Rectangle_80" data-name="Rectangle 80" width="76.478" height="1.551" fill="#ffde9e" opacity="0.5"/>
                </g>
              </g>
            </g>
            <g id="Group_59" data-name="Group 59" transform="translate(0.905)">
              <g id="Group_56" data-name="Group 56">
                <rect id="Rectangle_81" data-name="Rectangle 81" width="72.902" height="3.231" transform="translate(0 6.032)" fill="#fdb947" opacity="0.5"/>
                <g id="Group_55" data-name="Group 55" transform="translate(6.98)">
                  <path id="Path_23" data-name="Path 23" d="M372.2,148.657h68.809l-9.177-8.057H372.2Z" transform="translate(-372.2 -140.6)" fill="#524a55"/>
                  <path id="Path_24" data-name="Path 24" d="M372.2,140.6v1.465h59.631l7.5,6.592h1.68l-9.177-8.057Z" transform="translate(-372.2 -140.6)" fill="#524a55" opacity="0.5"/>
                </g>
              </g>
              <g id="Group_58" data-name="Group 58" transform="translate(0 9.867)">
                <rect id="Rectangle_82" data-name="Rectangle 82" width="72.902" height="0.948" transform="translate(0 1.077)" fill="#fdb947" opacity="0.5"/>
                <g id="Group_57" data-name="Group 57" transform="translate(6.98)">
                  <rect id="Rectangle_83" data-name="Rectangle 83" width="68.723" height="1.163" fill="#524a55"/>
                  <rect id="Rectangle_84" data-name="Rectangle 84" width="68.723" height="0.474" fill="#524a55" opacity="0.5"/>
                </g>
              </g>
            </g>
            <g id="Group_92" data-name="Group 92" transform="translate(13.874 12.495)">
              <g id="Group_75" data-name="Group 75">
                <g id="Group_64" data-name="Group 64" transform="translate(43.216)">
                  <rect id="Rectangle_85" data-name="Rectangle 85" width="12.28" height="0.991" transform="translate(0 18.182)" fill="#fdb947" opacity="0.5"/>
                  <g id="Group_63" data-name="Group 63" transform="translate(1.163)">
                    <rect id="Rectangle_86" data-name="Rectangle 86" width="9.91" height="16.933" fill="#ffde9e"/>
                    <g id="Group_60" data-name="Group 60" transform="translate(0.991 0.819)">
                      <rect id="Rectangle_87" data-name="Rectangle 87" width="7.928" height="15.253" fill="#524a55"/>
                    </g>
                    <g id="Group_61" data-name="Group 61" transform="translate(0.991 0.819)" opacity="0.5">
                      <path id="Path_25" data-name="Path 25" d="M491.4,172.8v1.767l7.928,7.928v-1.767Z" transform="translate(-491.4 -172.24)" fill="#524a55"/>
                      <path id="Path_26" data-name="Path 26" d="M503.5,171.5l2.714,2.758v-1.767l-.991-.991Z" transform="translate(-498.287 -171.5)" fill="#524a55"/>
                      <path id="Path_27" data-name="Path 27" d="M491.4,188.2v4.179l3.921,3.878h4.007v-.129Z" transform="translate(-491.4 -181.005)" fill="#524a55"/>
                    </g>
                    <rect id="Rectangle_88" data-name="Rectangle 88" width="0.56" height="16.071" transform="translate(4.696 0.431)" fill="#ffde9e"/>
                    <g id="Group_62" data-name="Group 62" transform="translate(0.259 4.826)">
                      <rect id="Rectangle_89" data-name="Rectangle 89" width="9.264" height="0.56" fill="#ffde9e"/>
                      <rect id="Rectangle_90" data-name="Rectangle 90" width="9.264" height="0.56" transform="translate(0 6.721)" fill="#ffde9e"/>
                    </g>
                  </g>
                  <rect id="Rectangle_91" data-name="Rectangle 91" width="12.28" height="1.853" transform="translate(0 16.33)" fill="#ffd178"/>
                </g>
                <g id="Group_69" data-name="Group 69" transform="translate(21.586)">
                  <rect id="Rectangle_92" data-name="Rectangle 92" width="12.28" height="0.991" transform="translate(0 18.182)" fill="#fdb947" opacity="0.5"/>
                  <g id="Group_68" data-name="Group 68" transform="translate(1.206)">
                    <rect id="Rectangle_93" data-name="Rectangle 93" width="9.91" height="16.933" fill="#ffde9e"/>
                    <g id="Group_65" data-name="Group 65" transform="translate(0.948 0.819)">
                      <rect id="Rectangle_94" data-name="Rectangle 94" width="7.928" height="15.253" fill="#524a55"/>
                    </g>
                    <g id="Group_66" data-name="Group 66" transform="translate(0.948 0.819)" opacity="0.5">
                      <path id="Path_28" data-name="Path 28" d="M441.2,172.8v1.767l7.928,7.928v-1.767Z" transform="translate(-441.2 -172.24)" fill="#524a55"/>
                      <path id="Path_29" data-name="Path 29" d="M453.3,171.5l2.714,2.758v-1.767l-.948-.991Z" transform="translate(-448.087 -171.5)" fill="#524a55"/>
                      <path id="Path_30" data-name="Path 30" d="M441.2,188.2v4.179l3.921,3.878h4.007v-.129Z" transform="translate(-441.2 -181.005)" fill="#524a55"/>
                    </g>
                    <rect id="Rectangle_95" data-name="Rectangle 95" width="0.56" height="16.071" transform="translate(4.653 0.431)" fill="#ffde9e"/>
                    <g id="Group_67" data-name="Group 67" transform="translate(0.215 4.826)">
                      <rect id="Rectangle_96" data-name="Rectangle 96" width="9.264" height="0.56" fill="#ffde9e"/>
                      <rect id="Rectangle_97" data-name="Rectangle 97" width="9.264" height="0.56" transform="translate(0 6.721)" fill="#ffde9e"/>
                    </g>
                  </g>
                  <rect id="Rectangle_98" data-name="Rectangle 98" width="12.28" height="1.853" transform="translate(0 16.33)" fill="#ffd178"/>
                </g>
                <g id="Group_74" data-name="Group 74">
                  <rect id="Rectangle_99" data-name="Rectangle 99" width="12.28" height="0.991" transform="translate(0 18.182)" fill="#fdb947" opacity="0.5"/>
                  <g id="Group_73" data-name="Group 73" transform="translate(1.163)">
                    <rect id="Rectangle_100" data-name="Rectangle 100" width="9.91" height="16.933" fill="#ffde9e"/>
                    <g id="Group_70" data-name="Group 70" transform="translate(0.991 0.819)">
                      <rect id="Rectangle_101" data-name="Rectangle 101" width="7.928" height="15.253" fill="#524a55"/>
                    </g>
                    <g id="Group_71" data-name="Group 71" transform="translate(0.991 0.819)" opacity="0.5">
                      <path id="Path_31" data-name="Path 31" d="M391.1,172.8v1.767l7.928,7.928v-1.767Z" transform="translate(-391.1 -172.24)" fill="#524a55"/>
                      <path id="Path_32" data-name="Path 32" d="M403.2,171.5l2.714,2.758v-1.767l-.991-.991Z" transform="translate(-397.987 -171.5)" fill="#524a55"/>
                      <path id="Path_33" data-name="Path 33" d="M391.1,188.2v4.179l3.921,3.878h4.007v-.129Z" transform="translate(-391.1 -181.005)" fill="#524a55"/>
                    </g>
                    <rect id="Rectangle_102" data-name="Rectangle 102" width="0.56" height="16.071" transform="translate(4.696 0.431)" fill="#ffde9e"/>
                    <g id="Group_72" data-name="Group 72" transform="translate(0.259 4.826)">
                      <rect id="Rectangle_103" data-name="Rectangle 103" width="9.264" height="0.56" fill="#ffde9e"/>
                      <rect id="Rectangle_104" data-name="Rectangle 104" width="9.264" height="0.56" transform="translate(0 6.721)" fill="#ffde9e"/>
                    </g>
                  </g>
                  <rect id="Rectangle_105" data-name="Rectangle 105" width="12.28" height="1.853" transform="translate(0 16.33)" fill="#ffd178"/>
                </g>
              </g>
              <g id="Group_91" data-name="Group 91" transform="translate(0 26.024)">
                <g id="Group_80" data-name="Group 80" transform="translate(43.216)">
                  <rect id="Rectangle_106" data-name="Rectangle 106" width="12.28" height="0.991" transform="translate(0 18.182)" fill="#fdb947" opacity="0.5"/>
                  <g id="Group_79" data-name="Group 79" transform="translate(1.163)">
                    <rect id="Rectangle_107" data-name="Rectangle 107" width="9.91" height="16.933" fill="#ffde9e"/>
                    <g id="Group_76" data-name="Group 76" transform="translate(0.991 0.819)">
                      <rect id="Rectangle_108" data-name="Rectangle 108" width="7.928" height="15.253" fill="#524a55"/>
                    </g>
                    <g id="Group_77" data-name="Group 77" transform="translate(0.991 0.819)" opacity="0.5">
                      <path id="Path_34" data-name="Path 34" d="M491.4,233.2v1.767l7.928,7.928v-1.767Z" transform="translate(-491.4 -232.64)" fill="#524a55"/>
                      <path id="Path_35" data-name="Path 35" d="M503.5,231.9l2.714,2.758v-1.767l-.991-.991Z" transform="translate(-498.287 -231.9)" fill="#524a55"/>
                      <path id="Path_36" data-name="Path 36" d="M491.4,248.6v4.179l3.921,3.878h4.007v-.129Z" transform="translate(-491.4 -241.405)" fill="#524a55"/>
                    </g>
                    <rect id="Rectangle_109" data-name="Rectangle 109" width="0.56" height="16.071" transform="translate(4.696 0.431)" fill="#ffde9e"/>
                    <g id="Group_78" data-name="Group 78" transform="translate(0.259 4.826)">
                      <rect id="Rectangle_110" data-name="Rectangle 110" width="9.264" height="0.56" fill="#ffde9e"/>
                      <rect id="Rectangle_111" data-name="Rectangle 111" width="9.264" height="0.56" transform="translate(0 6.765)" fill="#ffde9e"/>
                    </g>
                  </g>
                  <rect id="Rectangle_112" data-name="Rectangle 112" width="12.28" height="1.853" transform="translate(0 16.33)" fill="#ffd178"/>
                </g>
                <g id="Group_85" data-name="Group 85" transform="translate(21.586)">
                  <rect id="Rectangle_113" data-name="Rectangle 113" width="12.28" height="0.991" transform="translate(0 18.182)" fill="#fdb947" opacity="0.5"/>
                  <g id="Group_84" data-name="Group 84" transform="translate(1.206)">
                    <rect id="Rectangle_114" data-name="Rectangle 114" width="9.91" height="16.933" fill="#ffde9e"/>
                    <g id="Group_81" data-name="Group 81" transform="translate(0.948 0.819)">
                      <rect id="Rectangle_115" data-name="Rectangle 115" width="7.928" height="15.253" fill="#524a55"/>
                    </g>
                    <g id="Group_82" data-name="Group 82" transform="translate(0.948 0.819)" opacity="0.5">
                      <path id="Path_37" data-name="Path 37" d="M441.2,233.2v1.767l7.928,7.928v-1.767Z" transform="translate(-441.2 -232.64)" fill="#524a55"/>
                      <path id="Path_38" data-name="Path 38" d="M453.3,231.9l2.714,2.758v-1.767l-.948-.991Z" transform="translate(-448.087 -231.9)" fill="#524a55"/>
                      <path id="Path_39" data-name="Path 39" d="M441.2,248.6v4.179l3.921,3.878h4.007v-.129Z" transform="translate(-441.2 -241.405)" fill="#524a55"/>
                    </g>
                    <rect id="Rectangle_116" data-name="Rectangle 116" width="0.56" height="16.071" transform="translate(4.653 0.431)" fill="#ffde9e"/>
                    <g id="Group_83" data-name="Group 83" transform="translate(0.215 4.826)">
                      <rect id="Rectangle_117" data-name="Rectangle 117" width="9.264" height="0.56" fill="#ffde9e"/>
                      <rect id="Rectangle_118" data-name="Rectangle 118" width="9.264" height="0.56" transform="translate(0 6.765)" fill="#ffde9e"/>
                    </g>
                  </g>
                  <rect id="Rectangle_119" data-name="Rectangle 119" width="12.28" height="1.853" transform="translate(0 16.33)" fill="#ffd178"/>
                </g>
                <g id="Group_90" data-name="Group 90">
                  <rect id="Rectangle_120" data-name="Rectangle 120" width="12.28" height="0.991" transform="translate(0 18.182)" fill="#fdb947" opacity="0.5"/>
                  <g id="Group_89" data-name="Group 89" transform="translate(1.163)">
                    <rect id="Rectangle_121" data-name="Rectangle 121" width="9.91" height="16.933" fill="#ffde9e"/>
                    <g id="Group_86" data-name="Group 86" transform="translate(0.991 0.819)">
                      <rect id="Rectangle_122" data-name="Rectangle 122" width="7.928" height="15.253" fill="#524a55"/>
                    </g>
                    <g id="Group_87" data-name="Group 87" transform="translate(0.991 0.819)" opacity="0.5">
                      <path id="Path_40" data-name="Path 40" d="M391.1,233.2v1.767l7.928,7.928v-1.767Z" transform="translate(-391.1 -232.64)" fill="#524a55"/>
                      <path id="Path_41" data-name="Path 41" d="M403.2,231.9l2.714,2.758v-1.767l-.991-.991Z" transform="translate(-397.987 -231.9)" fill="#524a55"/>
                      <path id="Path_42" data-name="Path 42" d="M391.1,248.6v4.179l3.921,3.878h4.007v-.129Z" transform="translate(-391.1 -241.405)" fill="#524a55"/>
                    </g>
                    <rect id="Rectangle_123" data-name="Rectangle 123" width="0.56" height="16.071" transform="translate(4.696 0.431)" fill="#ffde9e"/>
                    <g id="Group_88" data-name="Group 88" transform="translate(0.259 4.826)">
                      <rect id="Rectangle_124" data-name="Rectangle 124" width="9.264" height="0.56" fill="#ffde9e"/>
                      <rect id="Rectangle_125" data-name="Rectangle 125" width="9.264" height="0.56" transform="translate(0 6.765)" fill="#ffde9e"/>
                    </g>
                  </g>
                  <rect id="Rectangle_126" data-name="Rectangle 126" width="12.28" height="1.853" transform="translate(0 16.33)" fill="#ffd178"/>
                </g>
              </g>
            </g>
          </g>
          <path id="Path_43" data-name="Path 43" d="M365.722,174.207H364.3v37.4h6.075v-37.4H371.8v-4.783h-1.422V140.6H364.3v6.032h0v22.793h1.422Z" transform="translate(-359.819 -140.6)" fill="#3a2210" opacity="0.2"/>
        </g>
        <g id="Group_138" data-name="Group 138" transform="translate(67.387)">
          <g id="Group_106" data-name="Group 106">
            <g id="Group_98" data-name="Group 98">
              <g id="Group_95" data-name="Group 95" transform="translate(1.422)">
                <rect id="Rectangle_127" data-name="Rectangle 127" width="56.917" height="91.7" fill="#262537"/>
                <rect id="Rectangle_128" data-name="Rectangle 128" width="56.917" height="16.373" transform="translate(0 75.327)" fill="#262537"/>
              </g>
              <g id="Group_97" data-name="Group 97" transform="translate(0 49.263)">
                <rect id="Rectangle_129" data-name="Rectangle 129" width="56.917" height="1.723" transform="translate(1.422 4.524)" fill="#fdb947" opacity="0.5"/>
                <g id="Group_96" data-name="Group 96">
                  <rect id="Rectangle_130" data-name="Rectangle 130" width="59.761" height="4.783" fill="#ffde9e"/>
                  <rect id="Rectangle_131" data-name="Rectangle 131" width="59.761" height="1.379" fill="#ffde9e" opacity="0.5"/>
                </g>
              </g>
            </g>
            <g id="Group_105" data-name="Group 105" transform="translate(21.672 9.264)">
              <g id="Group_99" data-name="Group 99">
                <circle id="Ellipse_1" data-name="Ellipse 1" cx="8.229" cy="8.229" r="8.229" fill="#ffde9e"/>
                <circle id="Ellipse_2" data-name="Ellipse 2" cx="7.238" cy="7.238" r="7.238" transform="translate(0.991 0.991)" fill="#fff"/>
              </g>
              <g id="Group_104" data-name="Group 104" transform="translate(1.336 1.465)">
                <g id="Group_100" data-name="Group 100">
                  <path id="Path_44" data-name="Path 44" d="M305.5,120.41h0a.3.3,0,0,1-.3-.3V118.9a.3.3,0,0,1,.3-.3h0a.3.3,0,0,1,.3.3v1.206A.363.363,0,0,1,305.5,120.41Z" transform="translate(-298.608 -118.6)" fill="#524a55"/>
                  <path id="Path_45" data-name="Path 45" d="M305.5,148.153h0a.3.3,0,0,1-.3-.3V146.6a.3.3,0,0,1,.3-.3h0a.3.3,0,0,1,.3.3v1.206C305.76,148.023,305.631,148.153,305.5,148.153Z" transform="translate(-298.608 -134.365)" fill="#524a55"/>
                  <path id="Path_46" data-name="Path 46" d="M317.7,134.2h0a.3.3,0,0,1,.3-.3h1.206a.3.3,0,0,1,.3.3h0a.3.3,0,0,1-.3.3H318A.363.363,0,0,1,317.7,134.2Z" transform="translate(-305.722 -127.308)" fill="#524a55"/>
                  <path id="Path_47" data-name="Path 47" d="M289.9,134.2h0a.3.3,0,0,1,.3-.3h1.206a.3.3,0,0,1,.3.3h0a.3.3,0,0,1-.3.3H290.2A.363.363,0,0,1,289.9,134.2Z" transform="translate(-289.9 -127.308)" fill="#524a55"/>
                  <path id="Path_48" data-name="Path 48" d="M314.972,124.575h0a.288.288,0,0,1,0-.431l.172-.172a.288.288,0,0,1,.431,0h0a.288.288,0,0,1,0,.431l-.172.172A.391.391,0,0,1,314.972,124.575Z" transform="translate(-304.114 -121.602)" fill="#524a55"/>
                  <path id="Path_49" data-name="Path 49" d="M295.172,144.375h0a.288.288,0,0,1,0-.431l.172-.172a.288.288,0,0,1,.431,0h0a.288.288,0,0,1,0,.431l-.172.172A.391.391,0,0,1,295.172,144.375Z" transform="translate(-292.845 -132.871)" fill="#524a55"/>
                  <path id="Path_50" data-name="Path 50" d="M315.015,143.772h0a.288.288,0,0,1,.431,0l.172.172a.288.288,0,0,1,0,.431h0a.288.288,0,0,1-.431,0l-.172-.172A.391.391,0,0,1,315.015,143.772Z" transform="translate(-304.157 -132.871)" fill="#524a55"/>
                  <path id="Path_51" data-name="Path 51" d="M295.215,123.972h0a.288.288,0,0,1,.431,0l.172.172a.288.288,0,0,1,0,.431h0a.288.288,0,0,1-.431,0l-.172-.172A.391.391,0,0,1,295.215,123.972Z" transform="translate(-292.888 -121.602)" fill="#524a55"/>
                </g>
                <g id="Group_103" data-name="Group 103" transform="translate(4.233 2.284)">
                  <circle id="Ellipse_3" data-name="Ellipse 3" cx="0.603" cy="0.603" r="0.603" transform="translate(2.057 3.878)" fill="#524a55"/>
                  <g id="Group_101" data-name="Group 101" transform="translate(0.506)">
                    <path id="XMLID_9_" d="M302.882,128.467a4.3,4.3,0,0,1-.474-.6,7.709,7.709,0,0,1-.776-1.465,11.614,11.614,0,0,1-.56-1.551,5.569,5.569,0,0,1-.172-.732c0-.086.043-.215.172-.215.086,0,.129,0,.172.086a6.091,6.091,0,0,1,.431.6,11.131,11.131,0,0,1,.819,1.465,8.808,8.808,0,0,1,.6,1.551,2.993,2.993,0,0,1,.129.776.2.2,0,0,1-.172.215C302.968,128.51,302.925,128.51,302.882,128.467Z" transform="translate(-300.9 -123.9)" fill="#524a55"/>
                  </g>
                  <g id="Group_102" data-name="Group 102" transform="translate(0 4.41)">
                    <path id="XMLID_7_" d="M302.515,134.421a4.21,4.21,0,0,1-.345.474c-.215.259-.517.646-.819.991a8.925,8.925,0,0,1-.9.9c-.259.215-.431.388-.431.388-.086.043-.215.043-.259-.043a.192.192,0,0,1,0-.215,4.218,4.218,0,0,1,.345-.474c.215-.259.517-.646.819-.991s.646-.646.9-.9c.259-.215.431-.388.431-.388.086-.043.215-.043.258.043A.192.192,0,0,1,302.515,134.421Z" transform="translate(-299.725 -134.134)" fill="#524a55"/>
                  </g>
                </g>
              </g>
            </g>
          </g>
          <g id="Group_109" data-name="Group 109" transform="translate(5.041 84.763)">
            <g id="Group_107" data-name="Group 107" transform="translate(0 3.404)">
              <rect id="Rectangle_132" data-name="Rectangle 132" width="49.722" height="3.533" fill="#e1ece2"/>
              <rect id="Rectangle_133" data-name="Rectangle 133" width="49.722" height="1.12" fill="#e1ece2" opacity="0.5"/>
            </g>
            <g id="Group_108" data-name="Group 108" transform="translate(4.61)">
              <rect id="Rectangle_134" data-name="Rectangle 134" width="40.501" height="3.49" fill="#e1ece2"/>
              <rect id="Rectangle_135" data-name="Rectangle 135" width="40.501" height="0.905" fill="#e1ece2" opacity="0.5"/>
              <rect id="Rectangle_136" data-name="Rectangle 136" width="40.501" height="0.905" transform="translate(0 2.585)" fill="#e1ece2" opacity="0.5"/>
            </g>
          </g>
          <g id="Group_132" data-name="Group 132" transform="translate(8.186 28.492)">
            <g id="Group_115" data-name="Group 115" transform="translate(1.551 32.444)">
              <g id="Group_110" data-name="Group 110">
                <rect id="Rectangle_137" data-name="Rectangle 137" width="19.518" height="23.784" fill="#ffde9e"/>
                <rect id="Rectangle_138" data-name="Rectangle 138" width="19.518" height="23.784" transform="translate(20.768)" fill="#ffde9e"/>
              </g>
              <g id="Group_114" data-name="Group 114" transform="translate(1.206 1.594)">
                <g id="Group_111" data-name="Group 111">
                  <rect id="Rectangle_139" data-name="Rectangle 139" width="7.497" height="20.638" fill="#524a55"/>
                  <rect id="Rectangle_140" data-name="Rectangle 140" width="7.497" height="20.638" transform="translate(9.608)" fill="#524a55"/>
                </g>
                <g id="Group_112" data-name="Group 112" transform="translate(20.768)">
                  <rect id="Rectangle_141" data-name="Rectangle 141" width="7.497" height="20.638" fill="#524a55"/>
                  <rect id="Rectangle_142" data-name="Rectangle 142" width="7.497" height="20.638" transform="translate(9.651)" fill="#524a55"/>
                </g>
                <g id="Group_113" data-name="Group 113" opacity="0.5">
                  <path id="Path_52" data-name="Path 52" d="M267.889,237.9H269.4v3.792l-7.5,7.54v-5.343Z" transform="translate(-261.9 -237.9)" fill="#524a55"/>
                  <path id="Path_53" data-name="Path 53" d="M285.923,237.9l-1.723,1.68V237.9Z" transform="translate(-274.592 -237.9)" fill="#524a55"/>
                  <path id="Path_54" data-name="Path 54" d="M264,277.092l6.592-6.592v5.3l-1.293,1.293Z" transform="translate(-263.095 -256.454)" fill="#524a55"/>
                  <path id="Path_55" data-name="Path 55" d="M284.2,255.6l7.54-7.5v5.343l-7.54,7.5Z" transform="translate(-274.592 -243.705)" fill="#524a55"/>
                  <path id="Path_56" data-name="Path 56" d="M316.218,237.9l-6.118,6.118v-5.343l.776-.776Z" transform="translate(-289.332 -237.9)" fill="#524a55"/>
                  <path id="Path_57" data-name="Path 57" d="M298.968,281v2.068H296.9Z" transform="translate(-281.82 -262.43)" fill="#524a55"/>
                  <path id="Path_58" data-name="Path 58" d="M310.1,262.7l7.5-7.5v3.188l-7.5,7.54Z" transform="translate(-289.332 -247.746)" fill="#524a55"/>
                  <path id="Path_59" data-name="Path 59" d="M340,237.9v1.034l-7.5,7.5V243.2l5.3-5.3Z" transform="translate(-302.081 -237.9)" fill="#524a55"/>
                  <path id="Path_60" data-name="Path 60" d="M322.378,276.8v3.878H318.5Z" transform="translate(-294.113 -260.039)" fill="#524a55"/>
                  <path id="Path_61" data-name="Path 61" d="M340,254.4v8.617l-4.912,4.912H332.5V261.9Z" transform="translate(-302.081 -247.291)" fill="#524a55"/>
                </g>
              </g>
            </g>
            <g id="Group_131" data-name="Group 131">
              <g id="Group_120" data-name="Group 120">
                <rect id="Rectangle_143" data-name="Rectangle 143" width="12.28" height="0.991" transform="translate(0 18.182)" fill="#fdb947" opacity="0.5"/>
                <g id="Group_119" data-name="Group 119" transform="translate(1.163)">
                  <rect id="Rectangle_144" data-name="Rectangle 144" width="9.91" height="16.933" fill="#ffde9e"/>
                  <g id="Group_116" data-name="Group 116" transform="translate(0.991 0.819)">
                    <rect id="Rectangle_145" data-name="Rectangle 145" width="7.928" height="15.253" fill="#524a55"/>
                  </g>
                  <g id="Group_117" data-name="Group 117" transform="translate(0.991 0.819)" opacity="0.5">
                    <path id="Path_62" data-name="Path 62" d="M268.428,162.1v1.767l-7.928,7.928v-1.767Z" transform="translate(-260.5 -161.54)" fill="#524a55"/>
                    <path id="Path_63" data-name="Path 63" d="M263.214,160.8l-2.714,2.758v-1.767l.948-.991Z" transform="translate(-260.5 -160.8)" fill="#524a55"/>
                    <path id="Path_64" data-name="Path 64" d="M268.428,177.5v4.179l-3.921,3.878H260.5v-.129Z" transform="translate(-260.5 -170.305)" fill="#524a55"/>
                  </g>
                  <rect id="Rectangle_146" data-name="Rectangle 146" width="0.56" height="16.071" transform="translate(4.696 0.431)" fill="#ffde9e"/>
                  <g id="Group_118" data-name="Group 118" transform="translate(0.345 4.826)">
                    <rect id="Rectangle_147" data-name="Rectangle 147" width="9.264" height="0.56" fill="#ffde9e"/>
                    <rect id="Rectangle_148" data-name="Rectangle 148" width="9.264" height="0.56" transform="translate(0 6.765)" fill="#ffde9e"/>
                  </g>
                </g>
                <rect id="Rectangle_149" data-name="Rectangle 149" width="12.28" height="1.853" transform="translate(0 16.33)" fill="#ffd178"/>
              </g>
              <g id="Group_125" data-name="Group 125" transform="translate(15.554)">
                <rect id="Rectangle_150" data-name="Rectangle 150" width="12.28" height="0.991" transform="translate(0 18.182)" fill="#fdb947" opacity="0.5"/>
                <g id="Group_124" data-name="Group 124" transform="translate(1.206)">
                  <rect id="Rectangle_151" data-name="Rectangle 151" width="9.91" height="16.933" fill="#ffde9e"/>
                  <g id="Group_121" data-name="Group 121" transform="translate(0.991 0.819)">
                    <rect id="Rectangle_152" data-name="Rectangle 152" width="7.928" height="15.253" fill="#524a55"/>
                  </g>
                  <g id="Group_122" data-name="Group 122" transform="translate(0.991 0.819)" opacity="0.5">
                    <path id="Path_65" data-name="Path 65" d="M304.628,162.1v1.767l-7.928,7.928v-1.767Z" transform="translate(-296.7 -161.54)" fill="#524a55"/>
                    <path id="Path_66" data-name="Path 66" d="M299.414,160.8l-2.714,2.758v-1.767l.948-.991Z" transform="translate(-296.7 -160.8)" fill="#524a55"/>
                    <path id="Path_67" data-name="Path 67" d="M304.628,177.5v4.179l-3.921,3.878H296.7v-.129Z" transform="translate(-296.7 -170.305)" fill="#524a55"/>
                  </g>
                  <rect id="Rectangle_153" data-name="Rectangle 153" width="0.56" height="16.071" transform="translate(4.696 0.431)" fill="#ffde9e"/>
                  <g id="Group_123" data-name="Group 123" transform="translate(0.345 4.826)">
                    <rect id="Rectangle_154" data-name="Rectangle 154" width="9.264" height="0.56" fill="#ffde9e"/>
                    <rect id="Rectangle_155" data-name="Rectangle 155" width="9.264" height="0.56" transform="translate(0 6.765)" fill="#ffde9e"/>
                  </g>
                </g>
                <rect id="Rectangle_156" data-name="Rectangle 156" width="12.28" height="1.853" transform="translate(0 16.33)" fill="#ffd178"/>
              </g>
              <g id="Group_130" data-name="Group 130" transform="translate(31.151)">
                <rect id="Rectangle_157" data-name="Rectangle 157" width="12.28" height="0.991" transform="translate(0 18.182)" fill="#fdb947" opacity="0.5"/>
                <g id="Group_129" data-name="Group 129" transform="translate(1.206)">
                  <rect id="Rectangle_158" data-name="Rectangle 158" width="9.91" height="16.933" fill="#ffde9e"/>
                  <g id="Group_126" data-name="Group 126" transform="translate(0.991 0.819)">
                    <rect id="Rectangle_159" data-name="Rectangle 159" width="7.928" height="15.253" fill="#524a55"/>
                  </g>
                  <g id="Group_127" data-name="Group 127" transform="translate(0.991 0.819)" opacity="0.5">
                    <path id="Path_68" data-name="Path 68" d="M340.828,162.1v1.767l-7.928,7.928v-1.767Z" transform="translate(-332.9 -161.54)" fill="#524a55"/>
                    <path id="Path_69" data-name="Path 69" d="M335.614,160.8l-2.714,2.758v-1.767l.948-.991Z" transform="translate(-332.9 -160.8)" fill="#524a55"/>
                    <path id="Path_70" data-name="Path 70" d="M340.828,177.5v4.179l-3.921,3.878H332.9v-.129Z" transform="translate(-332.9 -170.305)" fill="#524a55"/>
                  </g>
                  <rect id="Rectangle_160" data-name="Rectangle 160" width="0.56" height="16.071" transform="translate(4.653 0.431)" fill="#ffde9e"/>
                  <g id="Group_128" data-name="Group 128" transform="translate(0.345 4.826)">
                    <rect id="Rectangle_161" data-name="Rectangle 161" width="9.264" height="0.56" fill="#ffde9e"/>
                    <rect id="Rectangle_162" data-name="Rectangle 162" width="9.264" height="0.56" transform="translate(0 6.765)" fill="#ffde9e"/>
                  </g>
                </g>
                <rect id="Rectangle_163" data-name="Rectangle 163" width="12.28" height="1.853" transform="translate(0 16.33)" fill="#ffd178"/>
              </g>
            </g>
          </g>
          <g id="Group_137" data-name="Group 137" transform="translate(0.172)">
            <g id="Group_134" data-name="Group 134" transform="translate(0 5.558)">
              <rect id="Rectangle_164" data-name="Rectangle 164" width="56.917" height="1.723" transform="translate(1.25 0.388)" fill="#fdb947" opacity="0.5"/>
              <g id="Group_133" data-name="Group 133">
                <rect id="Rectangle_165" data-name="Rectangle 165" width="59.373" height="1.163" fill="#524a55"/>
                <rect id="Rectangle_166" data-name="Rectangle 166" width="59.373" height="0.603" fill="#524a55" opacity="0.5"/>
              </g>
            </g>
            <g id="Group_136" data-name="Group 136">
              <rect id="Rectangle_167" data-name="Rectangle 167" width="56.917" height="4.007" transform="translate(1.25)" fill="#fdb947" opacity="0.5"/>
              <g id="Group_135" data-name="Group 135">
                <rect id="Rectangle_168" data-name="Rectangle 168" width="59.373" height="2.887" fill="#524a55"/>
                <rect id="Rectangle_169" data-name="Rectangle 169" width="59.373" height="0.905" fill="#524a55" opacity="0.5"/>
              </g>
            </g>
          </g>
        </g>
      </g>
    </g>
  </g>
</svg>
